<?xml version="1.0" encoding="utf-8"?>
<!-- Generator: Adobe Illustrator 22.0.0, SVG Export Plug-In . SVG Version: 6.00 Build 0)  -->
<svg version="1.1" id="图层_1" xmlns="http://www.w3.org/2000/svg" xmlns:xlink="http://www.w3.org/1999/xlink" x="0px" y="0px"
	 viewBox="0 0 1024 1024" style="enable-background:new 0 0 1024 1024;" xml:space="preserve">
<style type="text/css">
	.st0{fill:#C5A06B;}
</style>
<g>
	<path class="st0" d="M1007.9,634.5C967.4,746.5,872.7,818.1,767,816c-90.8-1.8-161.8-71.1-163.9-162.6c-1.6-69-0.2-138.1-0.6-207.2
		c-0.3-57.9-33.6-94.6-85.8-95.2c-52.6-0.6-88.9,37.6-89.7,95.8c-0.7,53.3,0.1,106.6-0.5,160c-0.5,40.9-21,65.2-52.7,64.2
		c-30.9-1-49.5-24-49.8-63.2c-0.4-54.5-0.4-109.1,0-163.6c1-148.4,143.3-239.6,276.8-174.1c65.4,32.1,104.9,88.2,106.1,164.5
		c1.1,67.8-0.4,135.7,0.6,203.6c1,66.4,33.1,89.3,96.7,70.9c65.9-19,111.6-82.9,118.8-165.9c18.6-212.7-128.7-398-340-429.7
		c-152.8-22.9-282.6,22.8-383.7,137.2C82.8,382.3,67.8,582.6,175.1,730.4c108.8,150,286,208.6,461.9,156.8
		c37.2-10.9,66.8,1,77.3,31.2c9.1,26.1-8.6,61.5-44.3,74.5c-19,6.9-65.5,14.6-87.3,14.6c-60.6,0-131-7.3-166.8-13.1
		C351,983.9,292.7,958.7,237,923.9C110.7,845.2,36,732.5,6.7,587.9c-1.7-8.6-13.4-46-1.3-140.1c6.3-49.5,20.8-98.8,41-143.8
		C105.3,172.7,204.8,78.9,342.2,37.3C429.9,10.8,540.6,4.2,619,18.1c54.8,9.7,112.5,34.5,160.6,61.6
		c122.7,69.1,197.1,177.9,238.1,311C1033.7,505.5,1015,615.2,1007.9,634.5z"/>
</g>
</svg>
