<?xml version="1.0" encoding="utf-8"?>
<!-- Generator: Adobe Illustrator 22.0.0, SVG Export Plug-In . SVG Version: 6.00 Build 0)  -->
<svg version="1.1" id="图层_1" xmlns="http://www.w3.org/2000/svg" xmlns:xlink="http://www.w3.org/1999/xlink" x="0px" y="0px"
	 viewBox="0 0 3262 1024" style="enable-background:new 0 0 3262 1024;" xml:space="preserve">
<style type="text/css">
	.st0{fill:#FFFFFF;}
	.st1{fill:#C5A06B;}
	.st2{opacity:0.4;enable-background:new    ;}
	.st3{fill:url(#SVGID_1_);}
</style>
<path class="st0" d="M1605.4,446.3v62.6c0,7.9-6.6,14.5-14.5,14.5h-0.5c-8.3,0-14.5-6.6-14.5-14.5v-58.1l-127.1-0.2
	c-7.9,0.9-15.4-4-16.8-12.3v-0.9c-0.9-7.9,4-15.4,12.3-16.8l27.6-0.9V418l-2.3-256.6H1446c-7.5,0-14.5-6.2-14.5-14.5V146
	c0-7.5,7.1-14.5,14.5-14.5h144.4c20.1-0.9,15.1,29.9,15.1,29.9v254.1 M1502.3,228.8h73.5v-67.4h-73.5V228.8z M1502.3,326.5h73.5
	v-67.8h-73.5V326.5z M1502.3,419.5l73.5,0.4v-63.4h-73.5V419.5z M1643.7,342.4c-7.9,0-14.5-6.6-14.5-14.5v-0.5
	c0-8.3,6.6-14.5,14.5-14.5h74.9l1.4-7.9c2.2-23.3,3.5-49.3,3.5-78.4v-9.7H1657c-8.3,0-14.5-7.1-14.5-14.5v-0.9
	c0-7.9,6.2-14.5,14.5-14.5h18.5l-15-36.6c-3.1-7.9,0.5-16.3,7.9-19.4h0.5c7.9-3.1,15.9,0.5,18.9,7.9l18.5,44.1
	c0.5,1.4,0.9,2.6,0.9,4h66.5c0-1.4,0.5-2.6,0.9-4l18-44.1c3.1-7.5,11.4-11,18.9-7.9c4,1.4,6.6,4.4,8.3,7.9c1.7,3.5,1.7,7.5,0,11.4
	l-15.4,36.5h19.4c7.9,0,14.5,6.6,14.5,14.5v0.9c0,7.5-6.6,14.5-14.5,14.5h-70v9.7c0,31.3-1.7,59.5-4.4,84.6c0,0.9-0.5,1.4-0.5,1.7
	h86.8c8.3,0,14.5,6.2,14.5,14.5v0.5c0,7.9-6.2,14.5-14.5,14.5h-78.4l85,152c4,7.1,1.7,16.3-5.3,19.8l-0.5,0.5
	c-7.1,4-15.9,1.4-19.8-5.7l-78.9-140.1c-1.4,4.8-3.1,9.7-4.4,14.5c-16.3,48-44.5,88.9-80.1,129c-2.6,3.1-5.7,4.8-10.2,5.3
	c-4.4,0-7.9-1.4-11-4.4c-5.7-5.3-6.2-14.1-0.9-20.2c32.6-37.4,58.6-75.3,74-120.2c3.1-9.7,5.7-19.8,8.3-30.4h-69.9L1643.7,342.4
	L1643.7,342.4z"/>
<path class="st0" d="M1981.3,146c9.2-8.3,24.7-1.7,24.7,11v352.3c0,8.3-6.6,14.5-14.5,14.5h-0.9c-7.9,0-14.5-6.2-14.5-14.5V190.9
	c-9.2,8.3-18,17.1-27.3,25.6c-6.2,5.3-15,4.8-20.2-0.5c-3.1-3.5-4.4-6.6-4.4-11c0-4,1.7-7.5,4.8-10.2L1981.3,146z M2303.7,156.9
	c7.9,0,14.5,6.6,14.5,14.5v0.9c0,7.9-6.6,14.5-14.5,14.5h-251.5c-7.9,0-14.5-6.6-14.5-14.5v-0.9c0-7.9,6.6-14.5,14.5-14.5h111v-17.6
	c0-8.3,6.6-14.5,14.5-14.5h0.5c7.9,0,14.5,6.2,14.5,14.5v17.6H2303.7z M2044.7,408.4c0-6.2,1.4-12.3,3.5-18
	c7.9-17.1,23.8-29.1,43.2-29.1h173.1c12.8,0,24.2,5.3,33,14.1c8.8,8.8,14.1,20.7,14.1,33v68.7c0,19.4-11.4,35.6-29.1,43.2
	c-5.3,2.6-11.4,3.5-18,3.5h-173.1c-25.6,0-46.7-20.7-46.7-46.7V408.4L2044.7,408.4z M2293.6,228.8c7.9,0,14.5,6.6,14.5,14.5v0.9
	c0,7.5-6.6,14.5-14.5,14.5h-231.2c-7.9,0-14.5-7.1-14.5-14.5v-0.9c0-7.9,6.6-14.5,14.5-14.5L2293.6,228.8L2293.6,228.8z
	 M2293.6,299.2c7.9,0,14.5,7.1,14.5,14.5v0.9c0,7.9-6.6,14.5-14.5,14.5h-231.2c-7.9,0-14.5-6.6-14.5-14.5v-0.9
	c0-7.5,6.6-14.5,14.5-14.5H2293.6z M2074.6,477.2c0,10.2,6.6,17.1,16.8,17.1h173.1c10.2,0,17.1-7.1,17.1-17.1v-68.7
	c0-9.7-7.1-16.8-17.1-16.8h-173.1c-10.2,0-16.8,7.1-16.8,16.8V477.2z"/>
<path class="st0" d="M2419.4,241.1c0,52.9-1.7,101.7-4.4,148.9c-2.2,40.1-5.7,77.1-8.8,110.5c-0.9,7.9-7.9,14.1-16.3,12.8h-0.9
	c-7.9-0.5-13.7-7.9-12.8-15.4c3.5-33.9,6.6-70.9,8.8-110.1c3.5-47.1,4.4-95.1,4.4-146.7c0-7.5,6.6-14.1,14.5-14.1h0.9
	C2412.8,227,2419.4,233.6,2419.4,241.1z M2519.7,178.5c7.9,0,14.5,7.1,14.5,14.5v0.9c0,7.9-6.6,14.5-14.5,14.5h-46.2v300.4
	c0,8.3-6.6,14.5-14.5,14.5h-0.9c-7.5,0-14.5-6.2-14.5-14.5V208.5h-45.3c-8.3,0-14.5-6.6-14.5-14.5v-0.9c0-7.5,6.2-14.5,14.5-14.5
	h45.3V138c0-8.3,7.1-14.5,14.5-14.5h0.9c7.9,0,14.5,6.2,14.5,14.5v40.5H2519.7z M2525,503.1c0,7.9-6.6,14.5-14.5,14.5h-0.9
	c-7.9,0-14.5-6.6-14.5-14.5V242.4c0-7.9,6.6-14.5,14.5-14.5h0.9c7.9,0,14.5,6.6,14.5,14.5V503.1z M2757.1,166.2
	c7.9,0,14.5,6.2,14.5,14.5v0.9c0,7.5-6.6,14.5-14.5,14.5h-104.8c-0.5,1.7-0.9,3.5-1.4,4.8l-46.7,93.8h85.9
	c9.2-11.4,63.3-69.5,71.2-82.2c4.4-7.1,12.8-9.2,19.4-5.3c4,2.2,6.6,4.8,7.5,9.2c1.4,4,0.9,7.9-1.7,11
	c-20.7,33.9-90.6,109.5-118.8,136.4c-27.3,25.6-55.9,48.4-85.9,67.4c-3.5,2.6-7.1,3.1-11,2.2c-4.4-0.9-7.1-3.1-9.2-7.1l-0.5-0.5
	c-4.4-6.6-2.2-15.4,4.8-19.4c28.2-18.5,55-39.6,81.5-64.3c5.7-5.7,11.9-11.4,17.6-17.6h-84.6c-11,0-18-11.4-13.2-21.1l52.4-107.4
	h-49.3c-8.3,0-14.5-7.1-14.5-14.5v-0.9c0-8.3,6.2-14.5,14.5-14.5h78.9v-27.7c0-7.9,6.6-14.5,14.1-14.5h0.9c7.9,0,14.5,6.6,14.5,14.5
	v27.7C2678.7,166.2,2757.1,166.2,2757.1,166.2z M2763.3,353.4c-18,26.8-38.3,51.5-61.2,74l59.5,63c5.7,5.7,5.7,15,0,20.2l-0.9,0.9
	c-2.6,2.6-6.6,4.4-10.6,4c-4,0-7.5-1.7-10.2-4.4l-59.9-63.4c-29.5,25.6-63,47.6-100.8,67.4c-3.5,2.2-7.9,2.2-11.4,0.9
	c-4-1.4-6.6-3.5-8.3-7.5l-0.5-0.5c-3.1-7.1-0.5-15.4,6.6-18.9c37.4-19.8,70.4-42.3,99.1-67.4c28.2-25.6,53.3-53.8,74.4-85
	c4.4-6.2,13.2-7.9,19.4-4c4,2.6,6.2,5.3,7.1,9.7C2766.4,346.3,2765.5,349.9,2763.3,353.4z"/>
<g>
	<path class="st1" d="M1026.7,638.3C985.7,751.6,889.9,824.1,783,822c-91.9-1.8-163.7-71.9-165.8-164.5
		c-1.6-69.8-0.2-139.7-0.6-209.6c-0.3-58.6-34-95.7-86.8-96.3c-53.2-0.6-89.9,38-90.8,96.9c-0.7,53.9,0.1,107.8-0.5,161.9
		c-0.5,41.4-21.2,66-53.3,65c-31.3-1-50.1-24.3-50.4-63.9c-0.4-55.1-0.4-110.4,0-165.5c1-150.1,145-242.4,280-176.1
		c66.2,32.2,106.2,89,107.4,166.2c1.1,68.6-0.4,137.3,0.6,206c1,67.2,33.5,90.3,97.8,71.7c66.7-19.2,112.9-83.9,120.2-167.8
		c18.8-215.2-130.2-402.7-344-434.7c-154.6-23.2-285.9,23-388.2,138.7c-117.9,133.1-133,335.8-24.5,485.3
		c110.1,151.8,289.4,211,467.3,158.6c37.6-11,67.6,1,78.2,31.6c9.2,26.4-8.7,62.2-44.8,75.4c-19.2,7-66.3,14.8-88.3,14.8
		c-61.3,0-132.5-7.4-168.8-13.3c-65.7-10.6-124.6-36.1-181-71.3C119,851.5,43.4,737.5,13.8,591.2c-1.7-8.7-13.6-46.5-1.3-141.7
		c6.4-50.1,21-100,41.5-145.5C113.5,171.1,214.2,76.2,353.2,34.1c88.7-26.8,200.7-33.5,280-19.4C688.6,24.5,747,49.6,795.7,77
		c124.1,69.9,199.4,180,240.9,314.6C1052.8,507.8,1033.9,618.8,1026.7,638.3z"/>
</g>
<g class="st2">
	<path class="st0" d="M1469.8,724.6c24.3-14.1,44.2-32.7,59.6-55.7c7.7-3.8,10.9-1.3,9.6,7.7c-7.7,10.3-15.4,19.2-23.1,26.9v63.4
		c-3.8,7.7-7.7,7.7-11.5,0V715c-10.3,9-19.9,15.4-28.8,19.2C1467.9,735.5,1466,732.2,1469.8,724.6z M1585.1,797.6v19.2
		c0,50-35.9,76.9-107.6,80.7c-5.1-3.8-5.1-7.7,0-11.5c62.8-2.6,94.8-25.6,96.1-69.2v-19.2C1577.4,792.5,1581.3,792.5,1585.1,797.6z
		 M1515.9,774.5h123c14.1,1.3,20.5,7.7,19.2,19.2v69.2c-3.8,5.1-7.7,5.1-11.5,0v-65.3c1.3-7.7-2.6-11.5-11.5-11.5h-115.3
		c-7.7,0-11.5,3.8-11.5,11.5v65.3c-3.8,5.1-7.7,5.1-11.5,0v-69.2C1496.7,780.9,1503.1,774.5,1515.9,774.5z M1594.7,672.7
		c2.6,9,5.8,18.6,9.6,28.8l67.3-3.8c6.4,3.8,7,7.7,1.9,11.5l-65.3,3.8c21.8,32,39.1,48.7,51.9,50c15.4,1.3,22.4-7.7,21.1-26.9
		c3.8-5.1,7.7-5.1,11.5,0c0,28.2-11.5,41-34.6,38.4c-16.7,0-37.2-19.8-61.5-59.6l-67.3,3.8c-5.1-3.8-5.1-7.7,0-11.5l61.5-3.8
		c-2.6-11.5-5.1-21.1-7.7-28.8C1585.7,666.9,1589.6,666.3,1594.7,672.7z M1594.7,847.6c24.3,9,50.6,21.8,78.8,38.4
		c2.6,6.4,0.6,9.6-5.8,9.6c-25.6-14.1-51.3-26.3-76.9-36.5C1585.7,852.7,1587,848.8,1594.7,847.6z M1615.9,672.7
		c-2.6-6.4,0-9.6,7.7-9.6c15.4,7.7,28.8,15.4,40.4,23.1c2.6,7.7,0,10.9-7.7,9.6C1643.4,686.8,1629.9,679.1,1615.9,672.7z"/>
	<path class="st0" d="M1791.2,674.6c0-7.7,3.2-9.6,9.6-5.8c10.2,14.1,17.3,24.4,21.1,30.7h59.6c6.4-10.2,13.5-21.1,21.1-32.7
		c6.4-2.6,9.6-0.6,9.6,5.8c-6.4,10.3-12.2,19.2-17.3,26.9h57.7c6.4,3.8,6.4,7.7,0,11.5h-211.4c-5.1-3.8-5.1-7.7,0-11.5h67.3
		C1804.6,694.5,1798.8,686.1,1791.2,674.6z M1771.9,734.2h57.7c15.4,0,22.4,7.1,21.1,21.1v126.8c-1.3,10.2-8.3,15.4-21.1,15.4
		c-11.5-1.3-22.4-3.8-32.7-7.7c-5.1-6.4-3.8-10.3,3.8-11.5c25.6,9,38.4,9,38.4,0v-40.4h-76.9v57.7c-3.8,5.1-7.7,5.1-11.5,0V753.4
		C1750.8,740.6,1757.8,734.2,1771.9,734.2z M1827.7,745.7h-53.8c-7.7,0-11.5,3.2-11.5,9.6v25h76.9v-25
		C1840.5,748.9,1836.6,745.7,1827.7,745.7z M1839.2,791.8h-76.9v34.6h76.9V791.8z M1893,745.7v109.5c-3.8,6.4-7.7,6.4-11.5,0V745.7
		C1885.3,739.3,1889.2,739.3,1893,745.7z M1943,738v142.2c-1.3,10.2-8.3,16-21.1,17.3c-14.1-1.3-26.3-4.5-36.5-9.6
		c-5.1-5.1-3.8-9,3.8-11.5c26.9,12.8,41,12.8,42.3,0V738C1935.3,730.3,1939.1,730.3,1943,738z"/>
	<path class="st0" d="M2052.9,674.6c51.2,0,100.6-1.3,148-3.8c7.7,2.6,8.3,6.4,1.9,11.5c-42.3,2.6-91.6,3.8-148,3.8
		c-14.1,0-21.1,7.1-21.1,21.1v25H2174c17.9,0,23.7,9,17.3,26.9c-11.5,33.3-30.1,62.1-55.7,86.5c30.7,19.2,60.2,32,88.4,38.4
		c3.8,6.4,2.6,10.2-3.8,11.5c-37.2-10.3-68.6-24.4-94.2-42.3c-30.7,23.1-60.2,37.1-88.4,42.3c-6.4-2.6-7.1-6.4-1.9-11.5
		c30.7-7.7,57.7-20.5,80.7-38.4c-25.6-21.8-48-55.7-67.3-101.9h-15.4v38.4c1.3,46.1-9,83.9-30.7,113.4c-7.7,2.6-10.3,0-7.7-7.7
		c19.2-29.5,28.2-64.7,26.9-105.7v-76.9C2022.2,684.8,2032.4,674.6,2052.9,674.6z M2172.1,743.8h-109.5
		c19.2,44.8,40.4,76.2,63.4,94.2c21.8-19.2,39.7-46.1,53.8-80.7C2183.6,748.3,2181.1,743.8,2172.1,743.8z"/>
	<path class="st0" d="M2303.2,678.4v19.2h50v-19.2c3.8-5.1,7.7-5.1,11.5,0v19.2h15.4c5.1,3.8,5.1,7.7,0,11.5h-15.4v115.3h23.1
		c5.1,3.8,5.1,7.7,0,11.5h-119.2c-5.1-3.8-5.1-7.7,0-11.5h23.1V709.2h-23.1c-5.1-3.8-5.1-7.7,0-11.5h23.1v-19.2
		C2295.5,673.3,2299.3,673.3,2303.2,678.4z M2301.3,841.8c7.7-3.8,10.9-1.9,9.6,5.8c-10.3,20.5-22.4,35.9-36.5,46.1
		c-6.4,1.3-8.3-1.9-5.8-9.6C2281.4,872.5,2292.3,858.5,2301.3,841.8z M2353.2,709.2h-50v30.7h50V709.2z M2353.2,751.5h-50v30.7h50
		V751.5z M2353.2,793.7h-50v30.7h50V793.7z M2337.8,849.5c0-7.7,3.2-10.2,9.6-7.7c12.8,16.7,21.8,31.4,26.9,44.2
		c0,5.1-3.8,7-11.5,5.8C2357.6,878.9,2349.3,864.8,2337.8,849.5z M2395.4,678.4c3.8-6.4,7.7-6.4,11.5,0v19.2h55.7
		c24.3,1.3,24.3,28.8,0,82.6c-6.4,3.8-9.6,1.9-9.6-5.8c19.2-43.6,21.8-65.3,7.7-65.3H2405c-2.6,26.9-9,48.7-19.2,65.3
		c-5.1,3.8-8.3,2.6-9.6-3.8C2389,743.8,2395.4,713,2395.4,678.4z M2418.5,720.7c3.8-6.4,7.7-6.4,11.5,0v59.6
		c11.5,47.4,29.5,83.3,53.8,107.6c1.3,7.7-1.3,10.2-7.7,7.7c-21.8-21.8-38.4-51.2-50-88.4c-3.8,34.6-17.3,64.1-40.4,88.4
		c-6.4,1.3-9-1.3-7.7-7.7c28.2-33.3,41.6-73,40.4-119.2L2418.5,720.7L2418.5,720.7z"/>
	<path class="st0" d="M2528.5,739.9h26.9c14.1,0,20.5,6.4,19.2,19.2v96.1c1.3,3.8,12.2-7.7,32.7-34.6c6.4-1.3,9.6,1.3,9.6,7.7
		c-11.5,16.7-25.6,32.7-42.3,48c-7.7,5.1-11.5,1.9-11.5-9.6V763c1.3-7.7-2.6-11.5-11.5-11.5h-23.1
		C2523.3,747.6,2523.3,743.8,2528.5,739.9z M2561.1,672.7c12.8,12.8,23.1,25,30.7,36.5c0,6.4-3.2,9-9.6,7.7
		c-9-12.8-18.6-24.3-28.8-34.6C2550.9,674.6,2553.4,671.4,2561.1,672.7z M2641.8,674.6c6.4-5.1,10.2-3.8,11.5,3.8l-5.8,19.2h98
		c6.4,5.1,6.4,9,0,11.5h-75v57.7h65.3c7.7,3.8,7.7,7.7,0,11.5h-65.3v53.8h65.3c7.7,3.8,7.7,7.7,0,11.5h-65.3v48
		c-3.8,7.7-7.7,7.7-11.5,0V709.2h-15.4c-7.7,19.2-17.3,36.5-28.8,51.9c-6.4,3.8-9.6,1.9-9.6-5.8
		C2624.5,727.1,2636.7,700.2,2641.8,674.6z"/>
</g>
<linearGradient id="SVGID_1_" gradientUnits="userSpaceOnUse" x1="1211.2" y1="581.55" x2="3007.1001" y2="581.55">
	<stop  offset="0" style="stop-color:#FFFFFF;stop-opacity:0"/>
	<stop  offset="0.5" style="stop-color:#FFFFFF"/>
	<stop  offset="1" style="stop-color:#FFFFFF;stop-opacity:0"/>
</linearGradient>
<rect x="1211.2" y="571.7" class="st3" width="1795.9" height="19.7"/>
</svg>
