<?xml version="1.0" encoding="utf-8"?>
<!-- Generator: Adobe Illustrator 22.0.0, SVG Export Plug-In . SVG Version: 6.00 Build 0)  -->
<svg version="1.1" id="图层_1" xmlns="http://www.w3.org/2000/svg" xmlns:xlink="http://www.w3.org/1999/xlink" x="0px" y="0px"
	 viewBox="0 0 1024 1024" style="enable-background:new 0 0 1024 1024;" xml:space="preserve">
<style type="text/css">
	.st0{fill:#083342;}
</style>
<path class="st0" d="M816.5,909V423.2c0-81.9-32-160.1-90.7-218.9s-135.2-90.7-217.1-90.7s-160.1,32-218.9,90.7S199,341.4,199,423.2
	V909h-81.9V423.2c0-53.4,10.7-105,30.2-153c19.6-46.3,48-89,83.6-124.6S309.3,81.6,355.6,62c48-21.4,99.6-32,151.2-32
	c53.4,0,103.2,10.7,151.2,30.2c46.3,19.6,89,48,124.6,83.6c35.6,35.6,64.1,78.3,83.6,124.6c21.4,48,30.2,99.6,30.2,153v485.8
	L816.5,909z"/>
<path class="st0" d="M981.9,990.9H42.4c-23.1,0-40.9-17.8-40.9-40.9S19.3,909,40.7,909h939.5c24.9,0,42.7,17.8,42.7,40.9
	S1005.1,990.9,981.9,990.9z M638.5,512.2h-105V282.7L382.3,563.8h110.3v218.9L638.5,512.2z"/>
</svg>
