<?xml version="1.0" encoding="utf-8"?>
<!-- Generator: Adobe Illustrator 22.0.0, SVG Export Plug-In . SVG Version: 6.00 Build 0)  -->
<svg version="1.1" id="图层_1" xmlns="http://www.w3.org/2000/svg" xmlns:xlink="http://www.w3.org/1999/xlink" x="0px" y="0px"
	 viewBox="0 0 60 54" style="enable-background:new 0 0 60 54;" xml:space="preserve">
<style type="text/css">
	.st0{fill:#FFFFFF;}
</style>
<path class="st0" d="M18.6,11h-5.4c-0.3,0-0.7,0.1-0.9,0.4c-0.2,0.3-0.4,0.6-0.4,0.9l0.2,8.4c0,0.7,0.6,1.3,1.3,1.3h0
	c0.3,0,0.7-0.2,0.9-0.4c0.2-0.3,0.4-0.6,0.4-0.9l-0.1-7h4.1c0.7,0,1.3-0.6,1.3-1.3C19.8,11.6,19.3,11,18.6,11z"/>
<path class="st0" d="M53.7,8.8c-0.1-1-0.7-1.7-1.7-2.1L31.5,0.6c-0.5-0.2-1-0.3-1.5-0.3c-0.5,0-1,0.1-1.4,0.3L8,6.8
	C7.1,7.1,6.5,7.9,6.4,8.8c0,0.4-1.1,8.9,1.1,18.8c1.3,5.9,3.5,10.9,6.5,15.1c3.8,5.2,8.8,8.9,14.9,11c0.4,0.2,0.8,0.2,1.1,0.2
	s0.7-0.1,1.1-0.2c1.3-0.5,2.6-1,3.8-1.6c18.3-8.1,19-32.8,19-33.1C54.1,14.9,53.7,9.1,53.7,8.8z M50.3,18.9
	c-1.4,19.3-10,26.9-17,29.9c-1.1,0.6-2.2,1.1-3.3,1.5c-9.9-3.7-16.3-11.7-19-23.8C9.4,19.4,9.6,12.8,9.8,9.9l20.2-6l20.2,6
	c0.1,1.2,0.1,2.4,0.1,3.7C50.4,15.4,50.4,17.2,50.3,18.9z"/>
<path class="st0" d="M19.9,19.3l2.3-2.4l17.4,17.7L37.3,37L19.9,19.3z"/>
<path class="st0" d="M22.4,36.9L20,34.5l17.4-17.7l2.3,2.4L22.4,36.9z"/>
</svg>
