<?xml version="1.0" encoding="utf-8"?>
<!-- Generator: Adobe Illustrator 22.0.0, SVG Export Plug-In . SVG Version: 6.00 Build 0)  -->
<svg version="1.1" id="图层_1" xmlns="http://www.w3.org/2000/svg" xmlns:xlink="http://www.w3.org/1999/xlink" x="0px" y="0px"
	 viewBox="0 0 1024 1024" style="enable-background:new 0 0 1024 1024;" xml:space="preserve">
<style type="text/css">
	.st0{fill:#083342;}
</style>
<path class="st0" d="M294.4,204.4H191.2c-5.7,0-13.4,1.9-17.2,7.6s-7.6,11.5-7.6,17.2l3.8,160.5c0,13.4,11.5,24.8,24.8,24.8l0,0
	c5.7,0,13.4-3.8,17.2-7.6c3.8-5.7,7.6-11.5,7.6-17.2L218,256h78.3c13.4,0,24.8-11.5,24.8-24.8C317.3,215.9,307.8,204.4,294.4,204.4z
	"/>
<path class="st0" d="M965,162.4c-1.9-19.1-13.4-32.5-32.5-40.1L540.8,5.7C531.3,1.9,521.7,0,512.2,0c-9.6,0-19.1,1.9-26.7,5.7
	L91.9,124.2c-17.2,5.7-28.7,21-30.6,38.2c0,7.6-21,170,21,359.2c24.8,112.7,66.9,208.2,124.2,288.5c72.6,99.3,168.1,170,284.7,210.1
	c7.6,3.8,15.3,3.8,21,3.8c5.7,0,13.4-1.9,21-3.8c24.8-9.6,49.7-19.1,72.6-30.6c349.6-154.7,363-626.6,363-632.4
	C972.6,278.9,965,168.1,965,162.4z M900,355.3c-26.7,368.7-191,513.9-324.8,571.2c-21,11.5-42,21-63,28.7
	c-189.1-70.7-311.4-223.5-363-454.7c-30.6-135.6-26.7-261.7-22.9-317.1L512.2,68.8l385.9,114.6c1.9,22.9,1.9,45.9,1.9,70.7
	C901.9,288.5,901.9,322.9,900,355.3z"/>
<path class="st0" d="M319.2,363l43.9-45.9l332.4,338.1l-43.9,45.9L319.2,363z"/>
<path class="st0" d="M367,699.2l-45.9-45.9l332.4-338.1l43.9,45.9L367,699.2z"/>
</svg>
