<?xml version="1.0" encoding="utf-8"?>
<!-- Generator: Adobe Illustrator 22.0.0, SVG Export Plug-In . SVG Version: 6.00 Build 0)  -->
<svg version="1.1" id="图层_1" xmlns="http://www.w3.org/2000/svg" xmlns:xlink="http://www.w3.org/1999/xlink" x="0px" y="0px"
	 viewBox="0 0 1024 1024" style="enable-background:new 0 0 1024 1024;" xml:space="preserve">
<style type="text/css">
	.st0{fill:#FFFFFF;}
</style>
<path class="st0" d="M625.9,585.5c-155.6,0-285.8-126.6-285.8-285.8S470.3,17.5,625.9,17.5s285.8,126.6,285.8,285.8
	S783.3,585.5,625.9,585.5z M625.9,64.5c-130.2,0-237,104.9-237,237s104.9,237,237,237s237-106.7,237-238.8S757.9,64.5,625.9,64.5z"
	/>
<path class="st0" d="M772.4,315.9H495.6c-12.7,0-23.5-10.9-23.5-23.5c0-14.5,10.9-23.5,23.5-23.5h276.8c12.7,0,23.5,10.9,23.5,23.5
	C795.9,306.9,785.1,315.9,772.4,315.9z M736.2,397.3H524.6c-12.7,0-23.5-10.9-23.5-23.5c0-12.7,10.9-23.5,23.5-23.5h211.6
	c12.7,0,23.5,10.9,23.5,23.5C757.9,384.7,748.9,397.3,736.2,397.3z"/>
<path class="st0" d="M629.5,478.7c-12.7,0-23.5-10.9-23.5-23.5V281.6c0-12.7,10.9-23.5,23.5-23.5c12.7,0,23.5,10.9,23.5,23.5V457
	C654.8,469.7,644,478.7,629.5,478.7z M23.5,923.7C10.9,923.7,0,912.9,0,900.2V639.7c0-12.7,10.9-23.5,23.5-23.5S47,627.1,47,639.7
	v260.5C47,914.7,38,923.7,23.5,923.7z"/>
<path class="st0" d="M634.9,305.1c-5.4,0-12.7-1.8-18.1-7.2L511.9,192.9c-9-9-9-23.5,0-32.6c9-9,23.5-9,32.6,0l104.9,104.9
	c9,9,9,23.5,0,32.6C647.6,303.3,642.2,305.1,634.9,305.1z"/>
<path class="st0" d="M622.3,305.1c-5.4,0-12.7-1.8-18.1-7.2c-9-9-9-23.5,0-32.6l104.9-104.9c9-9,23.5-9,32.6,0c9,9,9,23.5,0,32.6
	L636.7,297.8C633.1,303.3,627.7,305.1,622.3,305.1z M454,883.9c-1.8,0-1.8,0-1.8,0l-231.5-39.8c-9-1.8-14.5-9-12.7-18.1
	c1.8-9,9-14.5,18.1-12.7l231.5,39.8c9,1.8,14.5,9,12.7,18.1C468.5,878.5,463.1,883.9,454,883.9z"/>
<path class="st0" d="M604.2,992.5c-1.8,0-1.8,0-3.6,0l-448.6-76c-10.9-1.8-19.9-10.9-19.9-23.5V639.7c0-12.7,10.9-23.5,23.5-23.5
	h208c1.8,0,5.4,0,7.2,1.8l258.7,79.6c19.9,5.4,34.4,19.9,45.2,36.2c1.8,3.6,3.6,7.2,5.4,10.9L900.8,618c39.8-23.5,90.4-9,112.2,30.8
	c10.9,19.9,14.5,41.6,7.2,61.5c-7.2,19.9-19.9,39.8-38,48.8L616.8,988.9C613.2,992.5,607.8,992.5,604.2,992.5z M179.1,873.1
	l419.7,70.5l358.2-224.3c9-5.4,14.5-12.7,18.1-21.7c1.8-9,1.8-18.1-3.6-27.1c-9-16.3-30.8-21.7-47-12.7L674.7,802.5
	c-16.3,32.6-54.3,48.8-90.4,39.8l-159.2-48.8c-12.7-3.6-19.9-18.1-16.3-30.8c3.6-12.7,18.1-19.9,30.8-16.3l159.2,48.8
	c14.5,5.4,30.8-3.6,34.4-18.1c1.8-7.2,1.8-14.5-1.8-19.9c-3.6-7.2-9-10.9-16.3-14.5L360,665.1H179.1L179.1,873.1L179.1,873.1z"/>
</svg>
