<?xml version="1.0" encoding="utf-8"?>
<!-- Generator: Adobe Illustrator 22.0.0, SVG Export Plug-In . SVG Version: 6.00 Build 0)  -->
<svg version="1.1" id="图层_1" xmlns="http://www.w3.org/2000/svg" xmlns:xlink="http://www.w3.org/1999/xlink" x="0px" y="0px"
	 viewBox="0 0 100 100" style="enable-background:new 0 0 100 100;" xml:space="preserve">
<style type="text/css">
	.st0{fill:#FFFFFF;}
</style>
<path class="st0" d="M50.2,83c0,0.8,0.6,1.4,1.4,1.4c0.8,0,1.4-0.6,1.4-1.4c0-0.8-0.6-1.4-1.4-1.4C50.8,81.6,50.2,82.3,50.2,83z"/>
<path class="st0" d="M60.1,57c-13.6,0-24.8-11.1-24.8-24.8S46.5,7.5,60.1,7.5s24.8,11.1,24.8,24.8S73.8,57,60.1,57z M60.1,11.6
	c-11.4,0-20.6,9.2-20.6,20.6s9.2,20.6,20.6,20.6s20.6-9.2,20.6-20.6S71.5,11.6,60.1,11.6z"/>
<path class="st0" d="M72.8,33.6H48.7c-1.1,0-2.1-0.9-2.1-2.1s0.9-2.1,2.1-2.1h24.1c1.1,0,2.1,0.9,2.1,2.1S73.9,33.6,72.8,33.6z
	 M69.6,40.6H51.3c-1.1,0-2.1-0.9-2.1-2.1c0-1.1,0.9-2.1,2.1-2.1h18.3c1.1,0,2.1,0.9,2.1,2.1C71.6,39.6,70.7,40.6,69.6,40.6z"/>
<path class="st0" d="M60.4,47.8c-1.1,0-2.1-0.9-2.1-2.1V30.6c0-1.1,0.9-2.1,2.1-2.1c1.1,0,2.1,0.9,2.1,2.1v15.2
	C62.5,46.9,61.6,47.8,60.4,47.8z M7.6,86.5c-1.1,0-2.1-0.9-2.1-2.1V61.8c0-1.1,0.9-2.1,2.1-2.1s2.1,0.9,2.1,2.1v22.6
	C9.7,85.6,8.8,86.5,7.6,86.5z"/>
<path class="st0" d="M60.9,32.6c-0.5,0-1.1-0.2-1.5-0.6l-9.2-9.2c-0.8-0.8-0.8-2.1,0-2.9c0.8-0.8,2.1-0.8,2.9,0l9.2,9.2
	c0.8,0.8,0.8,2.1,0,2.9C62,32.4,61.5,32.6,60.9,32.6z"/>
<path class="st0" d="M59.7,32.6c-0.5,0-1.1-0.2-1.5-0.6c-0.8-0.8-0.8-2.1,0-2.9l9.2-9.2c0.8-0.8,2.1-0.8,2.9,0
	c0.8,0.8,0.8,2.1,0,2.9L61.1,32C60.7,32.4,60.2,32.6,59.7,32.6z M45.1,83c-0.1,0-0.2,0-0.2,0l-20.2-3.5c-0.8-0.1-1.3-0.8-1.1-1.6
	c0.1-0.8,0.8-1.3,1.6-1.1l20.2,3.5c0.8,0.1,1.3,0.8,1.1,1.6C46.4,82.6,45.8,83,45.1,83z"/>
<path class="st0" d="M58.1,92.5c-0.1,0-0.2,0-0.3,0l-39-6.7c-1-0.2-1.7-1-1.7-2v-22c0-1.1,0.9-2.1,2.1-2.1h18.1c0.2,0,0.4,0,0.6,0.1
	l22.5,6.9c1.7,0.5,3,1.7,3.9,3.2c0.2,0.3,0.3,0.7,0.4,1l19.2-11.1c3.4-2,7.8-0.8,9.8,2.6c0.9,1.7,1.2,3.6,0.7,5.4
	c-0.5,1.8-1.7,3.4-3.3,4.3L59.2,92.2C58.9,92.4,58.5,92.5,58.1,92.5z M21.2,82l36.5,6.2l31.1-19.6c0.8-0.4,1.3-1.1,1.5-1.9
	c0.2-0.8,0.1-1.6-0.3-2.3c-0.8-1.4-2.7-1.9-4.1-1.1L64.2,75.9c-1.4,2.8-4.7,4.3-7.8,3.4L42.5,75c-1.1-0.3-1.7-1.5-1.4-2.6
	c0.3-1.1,1.5-1.7,2.6-1.4l13.9,4.3c1.3,0.4,2.6-0.3,3-1.6c0.2-0.6,0.1-1.3-0.2-1.8c-0.3-0.6-0.8-1-1.4-1.2l-22.2-6.8H21.1L21.2,82
	L21.2,82z"/>
</svg>
