<?xml version="1.0" encoding="utf-8"?>
<!-- Generator: Adobe Illustrator 22.0.0, SVG Export Plug-In . SVG Version: 6.00 Build 0)  -->
<svg version="1.1" id="图层_1" xmlns="http://www.w3.org/2000/svg" xmlns:xlink="http://www.w3.org/1999/xlink" x="0px" y="0px"
	 viewBox="0 0 124.8 100" style="enable-background:new 0 0 124.8 100;" xml:space="preserve">
<style type="text/css">
	.st0{fill:#9165FE;}
</style>
<path class="st0" d="M51.3,0C39.4,0,29.8,9.6,29.8,21.5c0,11.9,9.6,21.5,21.5,21.5c11.9,0,21.5-9.6,21.5-21.5
	C72.8,9.6,63.2,0,51.3,0z M51.3,37.7c-8.9,0-16.2-7.2-16.2-16.1c0-8.9,7.2-16.2,16.1-16.2v0c8.9,0,16.1,7.2,16.2,16.2
	C67.5,30.4,60.2,37.7,51.3,37.7z M59,43.2c-0.7-0.1-1.4,0.1-1.8,0.6l-5.9,5.9l-5.9-5.9c-0.5-0.5-1.2-0.7-1.8-0.6
	C23,46.5,12.1,62.7,11.9,89.9c0,1.8,2.1,2.7,2.3,2.8c14.1,5.4,27.2,7.3,38.5,7.3c15.7,0,28.1-3.6,35.8-6.7c0.8-0.3,2.3-1.4,2.3-3
	C90.5,62.8,79.5,46.5,59,43.2z M17.4,88.2c0.4-23.2,9.2-36.6,26.1-39.7l6.4,6.4c0.8,0.8,2.1,0.8,2.9,0l6.4-6.4
	C80,52.4,84.9,72.3,85.2,88.8C72.9,93.6,48.2,99.7,17.4,88.2z"/>
<path class="st0" d="M51.3,86.3c-0.6,0-1.1-0.2-1.5-0.6l-8-8c-0.6-0.6-0.8-1.4-0.5-2.2l8-24c0.3-0.9,1.1-1.4,2-1.5
	c0.9,0,1.7,0.6,2,1.5l8,24c0.3,0.8,0.1,1.6-0.5,2.2l-8,8C52.4,86.1,51.9,86.3,51.3,86.3z M45.8,75.6l5.6,5.6l5.5-5.5L51.3,59
	C51.3,59,45.8,75.6,45.8,75.6z"/>
</svg>
