<?xml version="1.0" encoding="utf-8"?>
<!-- Generator: Adobe Illustrator 22.0.0, SVG Export Plug-In . SVG Version: 6.00 Build 0)  -->
<svg version="1.1" id="图层_1" xmlns="http://www.w3.org/2000/svg" xmlns:xlink="http://www.w3.org/1999/xlink" x="0px" y="0px"
	 viewBox="0 0 60 54" style="enable-background:new 0 0 60 54;" xml:space="preserve">
<style type="text/css">
	.st0{fill:#FFFFFF;}
</style>
<path class="st0" d="M17,27.3c-3.3,0-5.9,2.7-5.9,5.9s2.7,5.9,5.9,5.9s5.9-2.7,5.9-5.9S20.3,27.3,17,27.3z M17,36.2
	c-1.6,0-3-1.3-3-3s1.3-3,3-3c1.6,0,3,1.3,3,3S18.6,36.2,17,36.2z"/>
<path class="st0" d="M51.1,0.7H9.6c-3.3,0-5.9,2.7-5.9,5.9v41.5c0,3.3,2.7,5.9,5.9,5.9h41.5c3.3,0,5.9-2.7,5.9-5.9V6.6
	C57,3.3,54.3,0.7,51.1,0.7z M54,48.1c0,1.6-1.3,3-3,3H9.6c-1.6,0-3-1.3-3-3V6.6c0-1.6,1.3-3,3-3h41.5c1.6,0,3,1.3,3,3V48.1z"/>
<path class="st0" d="M30.3,12.5c-3.3,0-5.9,2.7-5.9,5.9s2.7,5.9,5.9,5.9s5.9-2.7,5.9-5.9S33.6,12.5,30.3,12.5z M30.3,21.4
	c-1.6,0-3-1.3-3-3s1.3-3,3-3c1.6,0,3,1.3,3,3S32,21.4,30.3,21.4z M43.7,33.3c-3.3,0-5.9,2.7-5.9,5.9c0,3.3,2.7,5.9,5.9,5.9
	c3.3,0,5.9-2.7,5.9-5.9C49.6,35.9,46.9,33.3,43.7,33.3z M43.7,42.1c-1.6,0-3-1.3-3-3c0-1.6,1.3-3,3-3c1.6,0,3,1.3,3,3
	C46.6,40.8,45.3,42.1,43.7,42.1z"/>
<path class="st0" d="M30.3,12.5c0.4,0,1,0.1,1.5,0.1V8.1c0-0.9-0.6-1.5-1.5-1.5c-0.9,0-1.5,0.6-1.5,1.5v4.6
	C29.3,12.7,29.9,12.5,30.3,12.5z M30.3,24.4c-0.4,0-1-0.1-1.5-0.1v22.4c0,0.9,0.6,1.5,1.5,1.5s1.5-0.6,1.5-1.5V24.2
	C31.4,24.2,30.8,24.4,30.3,24.4z M43.7,33.3c0.4,0,1,0.1,1.5,0.1V8.1c0-0.9-0.6-1.5-1.5-1.5c-0.9,0-1.5,0.6-1.5,1.5v25.3
	C42.6,33.4,43.2,33.3,43.7,33.3z M43.7,45.1c-0.4,0-1-0.1-1.5-0.1v1.6c0,0.9,0.6,1.5,1.5,1.5c0.9,0,1.5-0.6,1.5-1.5V45
	C44.7,45,44.1,45.1,43.7,45.1z"/>
<path class="st0" d="M17,27.3c0.4,0,1,0.1,1.5,0.1V8.1c0-0.9-0.6-1.5-1.5-1.5c-0.9,0-1.5,0.6-1.5,1.5v19.4
	C16,27.5,16.6,27.3,17,27.3z M17,39.2c-0.4,0-1-0.1-1.5-0.1v7.6c0,0.9,0.6,1.5,1.5,1.5c0.9,0,1.5-0.6,1.5-1.5V39
	C18,39,17.4,39.2,17,39.2z"/>
</svg>
