<?xml version="1.0" encoding="utf-8"?>
<!-- Generator: Adobe Illustrator 22.0.0, SVG Export Plug-In . SVG Version: 6.00 Build 0)  -->
<svg version="1.1" id="图层_1" xmlns="http://www.w3.org/2000/svg" xmlns:xlink="http://www.w3.org/1999/xlink" x="0px" y="0px"
	 viewBox="0 0 60 54" style="enable-background:new 0 0 60 54;" xml:space="preserve">
<style type="text/css">
	.st0{fill:#FFFFFF;}
</style>
<path class="st0" d="M53,50.4c0,0.2-0.2,0.4-0.4,0.4H41.9v2.9h10.7c1.8,0,3.2-1.4,3.2-3.2V39.7h-2.9L53,50.4L53,50.4z M5.9,50.4V4
	c0-0.2,0.2-0.4,0.4-0.4h46.4C52.8,3.6,53,3.8,53,4v10.7h2.9V4c0-1.8-1.4-3.2-3.2-3.2H6.2C4.4,0.8,3,2.2,3,4v46.4
	c0,1.8,1.4,3.2,3.2,3.2h10.7v-2.9H6.2C6,50.7,5.9,50.6,5.9,50.4z"/>
<path class="st0" d="M40.2,13c0.6-0.6,0.6-1.5,0-2c-0.6-0.6-1.5-0.6-2,0L25.8,23.6l-6.1-6l-8.3,8.6c-0.6,0.6-0.5,1.5,0,2
	c0.3,0.3,0.6,0.4,1,0.4c0.4,0,0.7-0.2,1-0.4l6.3-6.5l6.1,6C25.9,27.6,40.2,13,40.2,13z M54.8,23.3c-3-3-7.9-3-10.8,0L25.5,41.8
	l-1.1,11.9l11.9-1.1l18.4-18.4C57.7,31.2,57.7,26.3,54.8,23.3z M35.1,49.9l-7.5,0.7l0.7-7.5l14-14l6.8,6.8
	C49.1,35.9,35.1,49.9,35.1,49.9z M52.7,32.2l-1.7,1.7L44.3,27l1.7-1.7c1.9-1.9,4.9-1.9,6.8,0C54.6,27.2,54.6,30.3,52.7,32.2z"/>
</svg>
