<?xml version="1.0" encoding="utf-8"?>
<!-- Generator: Adobe Illustrator 22.0.0, SVG Export Plug-In . SVG Version: 6.00 Build 0)  -->
<svg version="1.1" id="图层_1" xmlns="http://www.w3.org/2000/svg" xmlns:xlink="http://www.w3.org/1999/xlink" x="0px" y="0px"
	 viewBox="0 0 1024 1024" style="enable-background:new 0 0 1024 1024;" xml:space="preserve">
<style type="text/css">
	.st0{fill:#083342;}
</style>
<path class="st0" d="M948.9,949.4c0,3.8-3.8,7.6-7.6,7.6H738.6v54.9h202.7c34.1,0,60.6-26.5,60.6-60.6V746.6H947L948.9,949.4
	L948.9,949.4z M56.6,949.4v-879c0-3.8,3.8-7.6,7.6-7.6h879c1.9,0,5.7,3.8,5.7,7.6V273h54.9V70.3c0-34.1-26.5-60.6-60.6-60.6H62.3
	C28.2,9.7,1.7,36.2,1.7,70.3v879c0,34.1,26.5,60.6,60.6,60.6H265V955H62.3C58.5,955,56.6,953.1,56.6,949.4z"/>
<path class="st0" d="M706.4,240.8c11.4-11.4,11.4-28.4,0-37.9c-11.4-11.4-28.4-11.4-37.9,0L433.6,441.6L318.1,328L160.8,490.9
	c-11.4,11.4-9.5,28.4,0,37.9c5.7,5.7,11.4,7.6,18.9,7.6s13.3-3.8,18.9-7.6l119.4-123.1l115.6,113.7
	C435.5,517.4,706.4,240.8,706.4,240.8z M983,436c-56.8-56.8-149.7-56.8-204.6,0L428,786.4l-20.8,225.4L632.6,991l348.6-348.6
	C1038,585.6,1038,492.8,983,436z M609.8,939.9l-142.1,13.3L481,811.1l265.2-265.2L875,674.7L609.8,939.9z M943.2,604.6L911,636.8
	L784.1,506l32.2-32.2c36-36,92.8-36,128.8,0C979.2,509.8,979.2,568.6,943.2,604.6z"/>
</svg>
