<?xml version="1.0" encoding="utf-8"?>
<!-- Generator: Adobe Illustrator 22.0.0, SVG Export Plug-In . SVG Version: 6.00 Build 0)  -->
<svg version="1.1" id="图层_1" xmlns="http://www.w3.org/2000/svg" xmlns:xlink="http://www.w3.org/1999/xlink" x="0px" y="0px"
	 viewBox="0 0 1024 1024" style="enable-background:new 0 0 1024 1024;" xml:space="preserve">
<style type="text/css">
	.st0{fill:#083342;}
</style>
<path class="st0" d="M494.9,896.8H109.7c-19.5,0-34.1-17.1-34.1-34.1V136.1c0-19.5,17.1-34.1,34.1-34.1h724.1
	c19.5,0,34.1,17.1,34.1,34.1v263.3c0,19.5,17.1,34.1,34.1,34.1c19.5,0,34.1-17.1,34.1-34.1V136.1c0-61-46.3-107.3-107.3-107.3H109.7
	C48.8,26.4,0,75.2,0,136.1v726.6c0,61,46.3,107.3,107.3,107.3h385.2c19.5,0,34.1-17.1,34.1-34.1
	C529.1,913.9,514.4,896.8,494.9,896.8z"/>
<path class="st0" d="M229.2,245.8c-19.5,0-34.1,17.1-34.1,34.1c0,19.5,17.1,34.1,34.1,34.1h487.6c19.5,0,34.1-17.1,34.1-34.1
	c0-19.5-17.1-34.1-34.1-34.1C716.8,245.8,229.2,245.8,229.2,245.8z M516.9,460.4H229.2c-19.5,0-34.1,17.1-34.1,34.1
	c0,19.5,17.1,34.1,34.1,34.1h285.3c9.8,0,17.1-4.9,24.4-9.8c7.3-7.3,9.8-14.6,9.8-24.4C551,479.9,536.4,460.4,516.9,460.4z
	 M365.7,753c9.8,0,19.5-2.4,24.4-9.8c7.3-7.3,9.8-14.6,9.8-24.4c0-19.5-17.1-34.1-34.1-34.1H229.2c-19.5,0-34.1,17.1-34.1,34.1
	c0,19.5,17.1,34.1,34.1,34.1C229.2,753,365.7,753,365.7,753z"/>
<path class="st0" d="M616.8,930.9H1024v46.3H616.8V930.9z M994.7,801.7h-100c-9.8-9.8-14.6-21.9-17.1-36.6
	c-4.9-53.6,53.6-80.5,53.6-148.7c0-56.1-43.9-102.4-112.2-102.4C748.5,514,707,560.3,707,616.4c0,65.8,58.5,92.6,53.6,148.7
	c0,12.2-7.3,24.4-17.1,36.6h-100c-17.1,0-29.3,14.6-29.3,29.3v61H1024v-61C1024,813.9,1009.4,801.7,994.7,801.7z"/>
</svg>
