<?xml version="1.0" encoding="utf-8"?>
<!-- Generator: Adobe Illustrator 22.0.0, SVG Export Plug-In . SVG Version: 6.00 Build 0)  -->
<svg version="1.1" id="图层_1" xmlns="http://www.w3.org/2000/svg" xmlns:xlink="http://www.w3.org/1999/xlink" x="0px" y="0px"
	 viewBox="0 0 100 100" style="enable-background:new 0 0 100 100;" xml:space="preserve">
<style type="text/css">
	.st0{fill:#FFBB7D;}
</style>
<path class="st0" d="M72.5,61.3c7.5,0,13.8,6.3,13.8,13.8S80,88.8,72.5,88.8S58.8,82.5,58.8,75S65,61.3,72.5,61.3 M72.5,55
	c-11.3,0-20,9.4-20,20c0,11.3,9.4,20,20,20s20-9.4,20-20C93.1,64.4,83.8,55,72.5,55z"/>
<path class="st0" d="M60,96.9c-3.1-1.9-5.6-3.8-7.5-6.9h-30v-2.5h28.8c-1.3-1.9-1.9-4.4-2.5-6.3h-30v-3.8c0-0.6,0.6-1.3,1.3-1.3
	c5.6,0,12.5-2.5,18.8-5.6C45.6,66.3,50,60.6,50,55v-1.9c0-2.5,0-4.4-1.3-6.9c-2.5-1.9-3.8-3.8-6.9-6.9c-4.4-3.1-6.3-8.1-6.3-12.5
	c0-9.4,7.5-16.9,16.3-16.9c9.4,0,16.3,7.5,16.3,16.9c0,5-2.5,9.4-5.6,13.1c-6.3,6.3-6.9,8.1-6.9,13.1v4.4c1.9-1.9,3.8-3.1,6.3-4.4
	c0-3.1,0-3.1,5-8.1c5.6-5,8.1-11.9,8.1-18.1S72.5,15,68.1,10.6s-10-6.9-16.3-6.9S40,6.3,35.6,10.6c-4.4,3.8-6.3,10-6.3,16.3
	c0,6.9,3.1,13.1,8.1,17.5c5,5,5,5.6,5,8.7v2.5c0,7.5-14.4,14.4-23.1,14.4c-4.4,0-7.5,3.8-7.5,7.5v6.9c0,1.9,1.3,3.1,3.1,3.1h1.2v6.3
	c0,1.9,1.3,3.1,3.1,3.1H60z M78.1,80.6h-6.3c-1.9,0-3.1-1.3-3.1-3.1v-8.8c0-1.9,1.3-3.1,3.1-3.1s3.1,1.3,3.1,3.1v5.6h3.1
	c1.9,0,3.1,1.3,3.1,3.1S79.4,80.6,78.1,80.6z"/>
</svg>
