<?xml version="1.0" encoding="utf-8"?>
<!-- Generator: Adobe Illustrator 22.0.0, SVG Export Plug-In . SVG Version: 6.00 Build 0)  -->
<svg version="1.1" id="图层_1" xmlns="http://www.w3.org/2000/svg" xmlns:xlink="http://www.w3.org/1999/xlink" x="0px" y="0px"
	 viewBox="0 0 100 100" style="enable-background:new 0 0 100 100;" xml:space="preserve">
<style type="text/css">
	.st0{fill:#FFFFFF;}
</style>
<path class="st0" d="M44.6,80.4c0,3,2.4,5.4,5.4,5.4c3,0,5.4-2.4,5.4-5.4c0-3-2.4-5.4-5.4-5.4l0,0C47,75,44.6,77.4,44.6,80.4
	L44.6,80.4z"/>
<path class="st0" d="M50,100C22.4,100,0,77.6,0,50S22.4,0,50,0s50,22.4,50,50S77.6,100,50,100z M50,7.2C26.4,7.2,7.2,26.4,7.2,50
	S26.4,92.8,50,92.8S92.8,73.6,92.8,50S73.6,7.2,50,7.2z"/>
<path class="st0" d="M50,68c-2,0-3.6-1.6-3.6-3.6v-6c0-5.8,4.5-10.3,8.4-14.2c2.9-2.9,5.9-5.9,5.9-8.3c0-6-4.8-10.8-10.7-10.8
	c-6,0-10.7,4.6-10.7,10.6c0,2-1.6,3.6-3.6,3.6c-2,0-3.6-1.6-3.6-3.6l0,0c0-9.8,8-17.7,17.9-17.7s17.9,8,17.9,17.9
	c0,5.3-4.1,9.4-8,13.3c-3.1,3.1-6.3,6.3-6.3,9.2v6C53.6,66.4,52,68,50,68z"/>
</svg>
