<?xml version="1.0" encoding="utf-8"?>
<!-- Generator: Adobe Illustrator 22.0.0, SVG Export Plug-In . SVG Version: 6.00 Build 0)  -->
<svg version="1.1" id="图层_1" xmlns="http://www.w3.org/2000/svg" xmlns:xlink="http://www.w3.org/1999/xlink" x="0px" y="0px"
	 viewBox="0 0 1024 1024" style="enable-background:new 0 0 1024 1024;" xml:space="preserve">
<style type="text/css">
	.st0{fill:#FFFFFF;}
</style>
<path class="st0" d="M457.9,824.5c0,30.4,24.7,55.1,55.1,55.1s55.1-24.7,55.1-55.1c0-30.4-24.7-55.1-55.1-55.1l0,0
	C482.6,769.4,457.9,792.2,457.9,824.5L457.9,824.5z"/>
<path class="st0" d="M512.9,1024C229.9,1024,0,794.1,0,511.1S229.9,0,512.9,0s512.9,229.9,512.9,512.9S796,1024,512.9,1024z
	 M512.9,74.1c-241.3,0-438.9,195.7-438.9,438.9s197.6,438.9,438.9,438.9s438.9-197.6,438.9-438.9S756.1,74.1,512.9,74.1z"/>
<path class="st0" d="M512.9,697.2c-20.9,0-36.1-17.1-36.1-36.1v-60.8c0-58.9,45.6-106.4,85.5-146.3c30.4-30.4,60.8-60.8,60.8-85.5
	c0-60.8-49.4-110.2-110.2-110.2s-110.2,47.5-110.2,108.3c0,20.9-17.1,36.1-36.1,36.1c-19,0-36.1-17.1-36.1-36.1l0,0
	c0-100.7,81.7-180.5,184.3-180.5s184.3,81.7,184.3,184.3c0,55.1-41.8,96.9-81.7,136.8c-32.3,32.3-64.6,64.6-64.6,95V663
	C550.9,680.1,533.8,697.2,512.9,697.2z"/>
</svg>
