<?xml version="1.0" encoding="utf-8"?>
<!-- Generator: Adobe Illustrator 22.0.0, SVG Export Plug-In . SVG Version: 6.00 Build 0)  -->
<svg version="1.1" id="图层_1" xmlns="http://www.w3.org/2000/svg" xmlns:xlink="http://www.w3.org/1999/xlink" x="0px" y="0px"
	 viewBox="0 0 1024 1024" style="enable-background:new 0 0 1024 1024;" xml:space="preserve">
<path class="st0" d="M857.7,894.8H168.6V550.2c0-190.3,154.3-344.5,344.5-344.5S857.7,360,857.7,550.2V894.8z M254.7,808.7h516.8
	V550.2c0-142.7-115.7-258.4-258.4-258.4S254.7,407.5,254.7,550.2V808.7z"/>
<path class="st0" d="M539,389.2l-9.5,130.9h-99.9C429.6,520.1,539,389.2,539,389.2z"/>
<path class="st0" d="M500.2,619.2l10.3-130.1h99.1L500.2,619.2z M82.4,937.9h861.4v86.1H82.4V937.9z"/>
<path class="st0" d="M899,490l-14.6-86.1l122.3-21.5l14.6,86.1L899,490z M123.8,490L4,468.4l14.6-86.1L141,403.8L123.8,490z
	 M790.5,247l-66.3-55.1l80.1-95.6l66.3,55.1L790.5,247z M229.7,247l-77.5-94.8l66.3-55.1l80.1,95.6L229.7,247z M556.2,129.9H470V5
	h86.1V129.9z"/>
</svg>
