<?xml version="1.0" encoding="utf-8"?>
<!-- Generator: Adobe Illustrator 22.0.0, SVG Export Plug-In . SVG Version: 6.00 Build 0)  -->
<svg version="1.1" id="图层_1" xmlns="http://www.w3.org/2000/svg" xmlns:xlink="http://www.w3.org/1999/xlink" x="0px" y="0px"
	 viewBox="0 0 60 54" style="enable-background:new 0 0 60 54;" xml:space="preserve">
<style type="text/css">
	.st0{fill:#FFFFFF;}
</style>
<path class="st0" d="M26,28v0.2c-1.9,1.2-4,2.2-6.2,2.9c-0.7,0.3-1.2,1-1.2,1.7v1.4c0,0.6,0.5,1.1,1.1,1.1c0.6,0,1.1-0.5,1.1-1.1
	l0,0v-1.1c6.3-2.4,7.1-3.3,7.3-4.2c0-0.1,0-0.2,0-0.3v-1c0-0.3-0.1-0.6-0.3-0.8c-0.6-0.6-1-1.4-1.2-2.2c-0.1-0.3-0.2-0.5-0.4-0.6
	c-0.2-0.2-0.2-0.5,0-0.7l0,0c0.2-0.2,0.3-0.4,0.3-0.7v-2.2c-0.1-1.8,1-2.6,3-2.6s3,0.9,3,2.7v2.2c0,0.3,0.1,0.5,0.3,0.7
	c0.2,0.2,0.2,0.5,0,0.7l0,0c-0.2,0.2-0.4,0.4-0.4,0.6c-0.2,0.9-0.6,1.6-1.2,2.2c-0.2,0.2-0.3,0.5-0.3,0.8v1c0,0.1,0,0.2,0,0.3
	c0.3,0.8,1.1,1.8,7.3,4.3v1.1c0,0.6,0.5,1.1,1.1,1.1s1.1-0.5,1.1-1.1v-1.4c0-0.7-0.5-1.4-1.2-1.7c-2.2-0.7-4.3-1.7-6.3-2.9v-0.3
	c0.6-0.7,1.1-1.6,1.3-2.5c0.4-0.4,0.7-1,0.8-1.6c0.1-0.6-0.1-1.2-0.3-1.7v-2c0.1-2.6-1.9-4.8-4.5-4.9c-0.3,0-0.5,0-0.8,0.1
	c-2.6-0.3-5,1.6-5.3,4.2c0,0.2-0.1,0.4-0.1,0.6v1.8c-0.3,0.5-0.4,1.1-0.3,1.7c0.1,0.6,0.4,1.1,0.8,1.6C24.9,26.4,25.4,27.3,26,28z
	 M25.2,11.1c0.3,1.3,1.4,2.3,2.8,2.2h3c1.3,0.1,2.6-0.9,2.8-2.2l1-7.9c0.1-0.8-0.1-1.6-0.6-2.2c-0.5-0.6-1.3-1-2.1-1h-5
	c-0.8,0-1.6,0.4-2.1,1c-0.5,0.6-0.8,1.4-0.7,2.2L25.2,11.1z M26.6,2.4c0.1-0.1,0.3-0.2,0.4-0.2h5c0.2,0,0.3,0.1,0.4,0.3
	c0.1,0.1,0.2,0.2,0.1,0.4l-1,7.9c0,0.3-0.3,0.4-0.5,0.4h-3c-0.3,0-0.5-0.1-0.5-0.4l-1.1-7.9C26.4,2.7,26.5,2.5,26.6,2.4z"/>
<path class="st0" d="M42.1,8.9h-3.6c-0.6,0-1.1,0.5-1.1,1.1s0.5,1.1,1.1,1.1h3.6c1.6-0.1,2.9,1.2,3,2.8l0,0v24H13.9v-24
	c0.1-1.6,1.4-2.8,3-2.8l0,0h3.6c0.6,0,1.1-0.5,1.1-1.1c0-0.6-0.5-1.1-1.1-1.1l0,0h-3.6c-2.8-0.1-5.2,2.1-5.2,5l0,0v34.8
	c0.1,2.7,2.4,4.8,5,4.8c0.1,0,0.2,0,0.2,0h25.1c2.7,0.2,5-1.8,5.2-4.5c0-0.1,0-0.2,0-0.2V13.9C47.3,11,44.9,8.8,42.1,8.9L42.1,8.9z
	 M42.1,51.2H16.9c-1.5,0.2-2.9-1-3-2.5v-0.1v-8.6h31.2v8.6C45,50.2,43.6,51.4,42.1,51.2L42.1,51.2z"/>
<path class="st0" d="M39.3,44.5h-8.5c-0.6,0-1.1,0.5-1.1,1.1s0.5,1.1,1.1,1.1h8.4c0.6,0,1.1-0.5,1.1-1.1
	C40.4,45,39.9,44.5,39.3,44.5z M24.2,44.5h-4.4c-0.6,0-1.1,0.5-1.1,1.1s0.5,1.1,1.1,1.1h4.4c0.6,0,1.1-0.5,1.1-1.1
	C25.3,45,24.8,44.5,24.2,44.5z M29.5,6.6c0.3,0,0.6-0.1,0.8-0.3c0.2-0.2,0.3-0.5,0.3-0.8c0-0.6-0.5-1.1-1.2-1.1
	c-0.3,0-0.5,0.1-0.7,0.3c-0.2,0.2-0.3,0.5-0.3,0.8c0,0.3,0.1,0.6,0.3,0.8C28.9,6.5,29.2,6.6,29.5,6.6z"/>
</svg>
