<?xml version="1.0" encoding="utf-8"?>
<!-- Generator: Adobe Illustrator 22.0.0, SVG Export Plug-In . SVG Version: 6.00 Build 0)  -->
<svg version="1.1" id="图层_1" xmlns="http://www.w3.org/2000/svg" xmlns:xlink="http://www.w3.org/1999/xlink" x="0px" y="0px"
	 viewBox="0 0 1024 1024" style="enable-background:new 0 0 1024 1024;" xml:space="preserve">
<path class="st0" d="M512,0C229.2,0,0,229.2,0,512s229.2,512,512,512c282.7,0,512-229.2,512-512S794.7,0,512,0z M512,977.5
	C255.3,977.5,46.5,768.7,46.5,512S255.3,46.5,512,46.5S977.5,255.3,977.5,512S768.7,977.5,512,977.5z"/>
<path class="st0" d="M778.3,757.8C707.6,828.1,611.8,867.5,512,867.3c-102.1,0-197.8-40-269.5-112.7c-6.6-6.7-17.4-6.8-24.1-0.2
	s-6.8,17.4-0.2,24.1c77.4,78.9,183.3,123.2,293.8,122.8c109.4,0,212.5-42.4,290.3-119.4c6.7-6.6,6.7-17.4,0.1-24.2
	C795.8,751.2,785,751.2,778.3,757.8L778.3,757.8z M330.3,293.5h52.7V692h-52.7V293.5z M528.8,530H631c56.3,0,95.3-11.7,116.9-35.2
	c21.5-23.5,32.3-52.2,32.3-86c0-19.7-4.1-37.8-12.1-54.3s-18.7-29.3-31.9-38.5c-13.2-9.2-29.7-15.4-49.2-18.6
	c-13.9-2.6-34.2-3.8-60.6-3.8H476.1V692h52.7L528.8,530L528.8,530z M528.8,340.5h101.9c23.9,0,40.4,1.2,49.2,3.5
	c13.6,3.6,25.4,12,33.3,23.5c8.4,11.9,12.6,26.1,12.6,42.8c0,23-7.1,40.9-21.5,53.5s-38.5,19-72.6,19h-103L528.8,340.5L528.8,340.5z
	"/>
</svg>
