<?xml version="1.0" encoding="utf-8"?>
<!-- Generator: Adobe Illustrator 22.0.0, SVG Export Plug-In . SVG Version: 6.00 Build 0)  -->
<svg version="1.1" id="图层_1" xmlns="http://www.w3.org/2000/svg" xmlns:xlink="http://www.w3.org/1999/xlink" x="0px" y="0px"
	 viewBox="0 0 100 100" style="enable-background:new 0 0 100 100;" xml:space="preserve">
<style type="text/css">
	.st0{fill:#FFFFFF;}
</style>
<path class="st0" d="M85.9,56.5c0-1.4-1.1-2.5-2.5-2.5h0c-1.4,0-2.5,1.1-2.5,2.5l0,25.7c0,0.2,0,0.3,0,0.5c0,0.2,0.1,1.3-0.4,1.9
	c-0.4,0.5-1.4,0.6-2.1,0.6c-4.4,0-13.9,0-18.4,0l-0.1-18.8c0.1-0.9,0.3-3.8-1.5-5.9c-0.8-0.9-2.2-2-4.6-2h-0.4c0,0,0,0,0,0h0
	c0,0-1,0-3,0c-2.1,0-3,0-3,0h0c0,0,0,0,0,0h-0.4c-2.4,0-3.8,1.1-4.6,2c-1.8,2.1-1.6,5-1.5,5.9L41,85.2c-4.5,0-13.9,0-18.4,0
	c-0.7,0-1.6-0.1-2.1-0.6c-0.5-0.5-0.4-1.6-0.4-1.9c0-0.2,0-0.3,0-0.5l0-25.7c0-1.4-1.1-2.5-2.5-2.5h0c-1.4,0-2.5,1.1-2.5,2.5l0,25.5
	c-0.1,0.9-0.3,3.6,1.4,5.7c0.9,1.1,2.7,2.4,5.9,2.4c6,0,20.8,0,20.8,0h0c1.4,0,2.5-1.1,2.5-2.5l0.1-21.4c0-0.1,0-0.3,0-0.4
	c-0.1-0.6,0-1.7,0.3-2.1c0.1-0.1,0.4-0.2,0.8-0.2l3.4,0l3.4,0c0.4,0,0.7,0.1,0.8,0.2c0.4,0.4,0.4,1.5,0.3,2.1c0,0.1,0,0.3,0,0.4
	l0.1,21.4c0,1.4,1.1,2.5,2.5,2.5c0,0,14.9,0,20.8,0c3.2,0,5-1.3,5.9-2.4c1.8-2.1,1.6-4.8,1.4-5.7L85.9,56.5L85.9,56.5z"/>
<path class="st0" d="M96.6,51.1L60.7,12.5c-0.5-0.6-4.1-4.5-9.5-4.7c-3.8-0.1-7.5,1.6-10.8,5.2c-9,9.5-35.6,37.8-35.9,38.1
	c-0.9,1-0.9,2.6,0.1,3.5c1,0.9,2.6,0.9,3.5-0.1C8.4,54.2,35,26,44.1,16.4c2.3-2.5,4.7-3.7,7-3.6c3.3,0.1,5.8,2.8,5.9,3
	c0,0,0.1,0.1,0.1,0.1l35.9,38.6c0.5,0.5,1.1,0.8,1.8,0.8c0.6,0,1.2-0.2,1.7-0.7C97.5,53.7,97.5,52.1,96.6,51.1z"/>
</svg>
