<?xml version="1.0" standalone="no"?><!DOCTYPE svg PUBLIC "-//W3C//DTD SVG 1.1//EN" "http://www.w3.org/Graphics/SVG/1.1/DTD/svg11.dtd"><svg t="1536722615259" class="icon" style="" viewBox="0 0 1024 1024" version="1.1" xmlns="http://www.w3.org/2000/svg" p-id="5242" xmlns:xlink="http://www.w3.org/1999/xlink" width="100" height="100"><defs><style type="text/css"></style></defs><path d="M512 0C229.216 0 0 229.248 0 512s229.216 512 512 512c282.72 0 512-229.248 512-512S794.72 0 512 0z m0 977.472C255.328 977.472 46.528 768.672 46.528 512S255.328 46.528 512 46.528 977.472 255.328 977.472 512 768.672 977.472 512 977.472z" fill="#ffffff" p-id="5243"></path><path d="M778.272 757.76A376.16 376.16 0 0 1 512 867.296c-102.08 0-197.792-40-269.504-112.672a17.056 17.056 0 1 0-24.288 23.968 409.728 409.728 0 0 0 293.824 122.848c109.44 0 212.512-42.4 290.272-119.392a17.12 17.12 0 0 0 0.128-24.16 17.088 17.088 0 0 0-24.128-0.096zM330.336 293.504h52.736v398.496h-52.736V293.504zM528.8 529.952h102.208c56.32 0 95.328-11.712 116.928-35.168 21.536-23.488 32.32-52.16 32.32-86.048 0-19.744-4.064-37.824-12.128-54.336s-18.656-29.312-31.936-38.464c-13.216-9.216-29.664-15.36-49.184-18.624-13.92-2.56-34.208-3.776-60.576-3.776h-150.336v398.496h52.736v-162.08z m0-189.408h101.92c23.936 0 40.352 1.152 49.184 3.52a59.2 59.2 0 0 1 33.344 23.52c8.384 11.904 12.608 26.144 12.608 42.848 0 22.976-7.136 40.864-21.472 53.536s-38.528 19.04-72.608 19.04h-103.008v-142.432z" fill="#ffffff" p-id="5244"></path></svg>