<?xml version="1.0" encoding="utf-8"?>
<!-- Generator: Adobe Illustrator 22.0.0, SVG Export Plug-In . SVG Version: 6.00 Build 0)  -->
<svg version="1.1" id="图层_1" xmlns="http://www.w3.org/2000/svg" xmlns:xlink="http://www.w3.org/1999/xlink" x="0px" y="0px"
	 viewBox="0 0 101.1 100" style="enable-background:new 0 0 101.1 100;" xml:space="preserve">
<style type="text/css">
	.st0{fill:#409EFF;}
	.st1{fill:#FBAE17;}
</style>
<path class="st0" d="M46.1,9.2c20.4,0,36.9,16.5,36.9,36.9S66.4,82.9,46.1,82.9S9.2,66.4,9.2,46.1S25.7,9.2,46.1,9.2L46.1,9.2
	 M46.1,0C20.6,0,0,20.6,0,46.1s20.6,46.1,46.1,46.1s46.1-20.6,46.1-46.1l0,0C92.1,20.6,71.5,0,46.1,0z"/>
<path class="st1" d="M20.7,50.7c-2.5,0-4.6-2.1-4.6-4.6l0,0c0-16.5,13.4-29.9,29.9-29.9c2.5,0,4.6,2.1,4.6,4.6
	c0,2.5-2.1,4.6-4.6,4.6c-11.5,0-20.7,9.3-20.7,20.7c0,0,0,0,0,0C25.3,48.6,23.3,50.7,20.7,50.7z"/>
<path class="st0" d="M96.5,100c-1.2,0-2.4-0.5-3.2-1.4l-17.9-18c-1.8-1.8-1.8-4.7,0-6.5c1.8-1.8,4.7-1.8,6.5,0l0,0l17.9,18
	c1.8,1.8,1.8,4.7,0,6.5C98.9,99.5,97.7,100,96.5,100L96.5,100z"/>
</svg>
