<?xml version="1.0" encoding="utf-8"?>
<!-- Generator: Adobe Illustrator 22.0.0, SVG Export Plug-In . SVG Version: 6.00 Build 0)  -->
<svg version="1.1" id="图层_1" xmlns="http://www.w3.org/2000/svg" xmlns:xlink="http://www.w3.org/1999/xlink" x="0px" y="0px"
	 viewBox="0 0 100 100" style="enable-background:new 0 0 100 100;" xml:space="preserve">
<style type="text/css">
	.st0{fill:#FFFFFF;}
</style>
<path class="st0" d="M89.8,32.1c0-1.4-1.1-2.5-2.5-2.5s-2.5,1.1-2.5,2.5V76c0,5.5-2.5,8-8,8h-54c-5.5,0-8-2.5-8-8V24
	c0-5.5,2.5-8,8-8h31c1.3-0.1,2.4-1.1,2.4-2.5S55,11.1,53.7,11h-34c-5.5,0-10,4.5-10,10v58c0,5.5,4.5,10,10,10h60c5.5,0,10-4.5,10-10
	C89.8,78.9,89.8,32.1,89.8,32.1z"/>
<path class="st0" d="M27.8,75.1c-1.4,0-2.5-1.1-2.5-2.5v-7.5c0-1.4,1.1-2.5,2.5-2.5c1.4,0,2.5,1.1,2.5,2.5v7.5
	C30.3,73.9,29.1,75.1,27.8,75.1z M43.7,75.1c-1.4,0-2.5-1.1-2.5-2.5V50.1c0-1.4,1.1-2.5,2.5-2.5s2.5,1.1,2.5,2.5v22.5
	C46.2,74,45,75.1,43.7,75.1z M72.1,75.1c-1.4,0-2.5-1.1-2.5-2.5V40.1c0-1.4,1.1-2.5,2.5-2.5c1.4,0,2.5,1.1,2.5,2.5v32.5
	C74.6,73.9,73.5,75.1,72.1,75.1z M57.1,75.3c-1.4,0-2.5-1.2-2.5-2.6V56.9c0-1.4,1.1-2.5,2.5-2.5c1.4,0,2.5,1.1,2.5,2.5v15.9
	C59.6,74.2,58.5,75.3,57.1,75.3z M81.7,11.5l-17.8,4.2c-2.1,1.5-0.6,3.1-0.6,3.1l5,5.1L56,35.9L42.6,23.7h0l-0.1-0.1c0,0,0,0-0.1,0
	c0,0-0.2-0.1-0.2-0.1c-1-0.7-2.4-0.6-3.2,0.4c0,0.1-0.1,0.1-0.2,0.2L20.9,41.5c-1,1-1,2.5-0.1,3.5c1,1,2.6,1,3.6,0l16.5-16.2
	l13.1,12c0,0.1,0.1,0.2,0.2,0.3c0.4,0.4,1,0.7,1.5,0.7h0.4c0.7,0,1.3-0.3,1.8-0.8c0.1-0.1,0.2-0.2,0.2-0.3l13.7-13.4l4.4,4.4
	c1.5,1.4,3-0.4,3-0.4L83.5,14C84.1,11.7,81.7,11.6,81.7,11.5z"/>
</svg>
