<?xml version="1.0" encoding="utf-8"?>
<!-- Generator: Adobe Illustrator 22.0.0, SVG Export Plug-In . SVG Version: 6.00 Build 0)  -->
<svg version="1.1" id="图层_1" xmlns="http://www.w3.org/2000/svg" xmlns:xlink="http://www.w3.org/1999/xlink" x="0px" y="0px"
	 viewBox="0 0 1024 1024" style="enable-background:new 0 0 1024 1024;" xml:space="preserve">
<style type="text/css">
	.st0{fill:#FFFFFF;}
</style>
<path class="st0" d="M1024,285.4c0-18.5-14.8-31.4-31.4-31.4c-18.5,0-31.4,14.8-31.4,31.4v560.9c0,70.1-31.4,101.5-101.5,101.5
	H167.9c-70.1,0-101.5-31.4-101.5-101.5V182.1c0-70.1,31.4-101.5,101.5-101.5h396.7c16.6-1.8,31.4-14.8,31.4-31.4
	S579.3,17.8,562.7,16H127.3C57.2,16,0,73.2,0,143.3V885c0,70.1,57.2,127.3,127.3,127.3H893c70.1,0,127.3-57.2,127.3-127.3
	C1024,883.2,1024,285.4,1024,285.4z"/>
<path class="st0" d="M232.5,835.2c-18.5,0-31.4-14.8-31.4-31.4v-95.9c0-18.5,14.8-31.4,31.4-31.4s31.4,14.8,31.4,31.4v95.9
	C263.8,818.6,249.1,835.2,232.5,835.2z M435.4,835.2c-18.5,0-31.4-14.8-31.4-31.4V516c0-18.5,14.8-31.4,31.4-31.4
	c18.5,0,31.4,14.8,31.4,31.4v287.8C466.8,820.4,452,835.2,435.4,835.2z M797.1,835.2c-18.5,0-31.4-14.8-31.4-31.4v-417
	c0-18.5,14.8-31.4,31.4-31.4c16.6,0,31.4,14.8,31.4,31.4V802C830.3,818.6,815.5,835.2,797.1,835.2z M605.2,837
	c-18.5,0-31.4-14.8-31.4-33.2V602.7c0-18.5,14.8-31.4,31.4-31.4c18.5,0,31.4,14.8,31.4,31.4v203C638.4,824.1,623.6,837,605.2,837z
	 M920.7,21.5L691.9,76.9c-27.7,18.5-7.4,38.7-7.4,38.7l64.6,64.6L592.3,333.3l-171.6-155l0,0l-1.8-1.8c0,0,0,0-1.8,0l-1.8-1.8
	c-12.9-9.2-31.4-7.4-40.6,5.5c0,1.8-1.8,1.8-1.8,1.8L143.9,403.5c-12.9,12.9-12.9,31.4-1.8,44.3c12.9,12.9,33.2,12.9,46.1,0
	l210.3-206.6l167.9,153.1c0,1.8,1.8,1.8,1.8,3.7c5.5,5.5,12.9,9.2,18.5,9.2h5.5c9.2,0,16.6-3.7,22.1-11.1c1.8-1.8,1.8-1.8,1.8-3.7
	l175.3-171.6l55.4,55.4c18.5,18.5,38.7-5.5,38.7-5.5L941,49.2C950.2,25.2,920.7,23.4,920.7,21.5z"/>
</svg>
