<?xml version="1.0" encoding="utf-8"?>
<!-- Generator: Adobe Illustrator 22.0.0, SVG Export Plug-In . SVG Version: 6.00 Build 0)  -->
<svg version="1.1" id="图层_1" xmlns="http://www.w3.org/2000/svg" xmlns:xlink="http://www.w3.org/1999/xlink" x="0px" y="0px"
	 viewBox="0 0 100 100" style="enable-background:new 0 0 100 100;" xml:space="preserve">
<style type="text/css">
	.st0{fill:#FFFFFF;}
</style>
<path class="st0" d="M68.3,47.2c0-9.9-8.1-18-18-18s-18,8.1-18,18s8.1,18,18,18S68.3,57.2,68.3,47.2 M37.6,47.2
	c0-7,5.7-12.6,12.6-12.6s12.6,5.7,12.6,12.6s-5.7,12.6-12.6,12.6S37.6,54.2,37.6,47.2z"/>
<path class="st0" d="M73.6,86.3h-6.5l-4.8-12.1C75.5,69.3,85,56.6,85,41.7C85,22.5,69.4,6.9,50.3,6.9S15.5,22.5,15.5,41.7
	c0,14.7,9.2,27.3,22.2,32.4c0,0,0,0,0,0.1l-4.9,12.3h-6.6c-1.5,0-2.7,1.2-2.7,2.7c0,1.5,1.2,2.7,2.7,2.7h47.3c1.5,0,2.7-1.2,2.7-2.7
	C76.2,87.5,75,86.3,73.6,86.3 M20.9,41.7c0-16.2,13.2-29.3,29.3-29.3s29.3,13.2,29.3,29.3S66.4,71,50.3,71S20.9,57.8,20.9,41.7
	 M42.7,76.1c0.1-0.2,0.1-0.3,0.1-0.5c2.4,0.5,4.9,0.8,7.5,0.8c2.3,0,4.6-0.2,6.8-0.7c0,0.1,0,0.3,0.1,0.4l4.1,10.2H38.6L42.7,76.1
	L42.7,76.1z"/>
<path class="st0" d="M46.4,22.3c0,1.1,0.4,2.2,1.2,3c0.8,0.8,1.9,1.2,3,1.2c1.1,0,2.2-0.4,3-1.2c0.8-0.8,1.2-1.9,1.2-3
	s-0.4-2.2-1.2-3c-0.8-0.8-1.9-1.2-3-1.2s-2.2,0.4-3,1.2C46.9,20.2,46.4,21.2,46.4,22.3z"/>
</svg>
