<?xml version="1.0" encoding="utf-8"?>
<!-- Generator: Adobe Illustrator 22.0.0, SVG Export Plug-In . SVG Version: 6.00 Build 0)  -->
<svg version="1.1" id="图层_1" xmlns="http://www.w3.org/2000/svg" xmlns:xlink="http://www.w3.org/1999/xlink" x="0px" y="0px"
	 viewBox="0 0 1024 1024" style="enable-background:new 0 0 1024 1024;" xml:space="preserve">
<style type="text/css">
	.st0{fill:#FFFFFF;}
</style>
<path class="st0" d="M736,486.4c0-119.2-98.4-217.7-217.7-217.7s-217.7,98.4-217.7,217.7s98.4,217.7,217.7,217.7
	S736,607.6,736,486.4 M366.9,486.4c0-85.2,68.1-151.4,151.4-151.4s151.4,68.1,151.4,151.4s-68.1,151.4-151.4,151.4
	S366.9,569.7,366.9,486.4z"/>
<path class="st0" d="M800.3,957.8h-77.6L664.1,812c159-58.7,272.6-212,272.6-391.8C936.6,189.3,749.2,0,518.3,0S100,189.3,100,420.2
	c0,177.9,111.7,329.3,266.9,389.9c0,0,0,0,0,1.9l-58.7,147.6h-79.5c-18.9,0-32.2,15.1-32.2,32.2c0,17,15.1,32.2,32.2,32.2h569.7
	c18.9,0,32.2-15.1,32.2-32.2C830.6,971,817.4,957.8,800.3,957.8 M164.4,420.2c0-195,159-354,354-354s352.1,159,352.1,354
	S713.3,772.3,518.3,772.3S164.4,613.3,164.4,420.2 M427.5,834.7c1.9-1.9,1.9-3.8,1.9-5.7c28.4,5.7,58.7,9.5,90.9,9.5
	c28.4,0,54.9-1.9,81.4-7.6c0,1.9,0,3.8,1.9,5.7l49.2,123H378.2L427.5,834.7L427.5,834.7z"/>
<path class="st0" d="M472.9,185.5c0,13.2,5.7,26.5,15.1,36c9.5,9.5,22.7,15.1,36,15.1c13.2,0,26.5-5.7,36-15.1
	c9.5-9.5,15.1-22.7,15.1-36c0-13.2-5.7-26.5-15.1-36c-11.4-9.5-24.6-13.2-37.9-13.2c-13.2,0-26.5,3.8-36,13.2
	C478.6,160.9,472.9,172.2,472.9,185.5z"/>
</svg>
