<?xml version="1.0" encoding="utf-8"?>
<!-- Generator: Adobe Illustrator 22.0.0, SVG Export Plug-In . SVG Version: 6.00 Build 0)  -->
<svg version="1.1" id="图层_1" xmlns="http://www.w3.org/2000/svg" xmlns:xlink="http://www.w3.org/1999/xlink" x="0px" y="0px"
	 viewBox="0 0 100 100" style="enable-background:new 0 0 100 100;" xml:space="preserve">
<style type="text/css">
	.st0{fill:#7D7D7D;}
</style>
<path class="st0" d="M26,87.5h-4.6c-2.2,0-4.2-1.8-4.2-4.2c0-6.1,1.7-12.1,5-17.2c3.2-5.1,7.9-9.2,13.5-11.8l0.4-0.1l-0.4-0.3
	c-5.8-4.4-9.2-11.1-9.2-18.3c0-12.6,10.4-23.1,23.2-23.1s23.1,10.3,23.1,23.1c0,7.2-3.3,13.9-9.2,18.3l-0.3,0.3l0.4,0.1
	c5.6,2.6,10.1,6.8,13.5,11.8c3.2,5.1,5,11.1,5,17.2c0,2.2-1.8,4.2-4.2,4.2C78.1,87.5,26,87.5,26,87.5z M40.1,59.3
	c-9.1,3.6-15.5,12-16.5,21.8v0.3h52.2v-0.3c-1-9.7-7.2-18.1-16.5-21.8l-9.6-3.7C49.7,55.6,40.1,59.3,40.1,59.3z M49.7,18.8
	c-9.3,0-16.8,7.5-16.8,16.8c0,5.8,3.1,11.3,8.1,14.3l8.8,5.4l8.8-5.4c5-3.1,8.1-8.5,8.1-14.3C66.5,26.4,59,18.7,49.7,18.8z"/>
</svg>
