<?xml version="1.0" encoding="utf-8"?>
<!-- Generator: Adobe Illustrator 22.0.0, SVG Export Plug-In . SVG Version: 6.00 Build 0)  -->
<svg version="1.1" id="图层_1" xmlns="http://www.w3.org/2000/svg" xmlns:xlink="http://www.w3.org/1999/xlink" x="0px" y="0px"
	 viewBox="0 0 100 100" style="enable-background:new 0 0 100 100;" xml:space="preserve">
<style type="text/css">
	.st0{fill:#7D7D7D;}
</style>
<path class="st0" d="M29.7,14.1c1.7,0,3.1,1.4,3.1,3.1v12.5c0,1.7-1.4,3.1-3.1,3.1s-3.1-1.4-3.1-3.1V17.2
	C26.6,15.5,28,14.1,29.7,14.1z M50,14.1c1.7,0,3.1,1.4,3.1,3.1v12.5c0,1.7-1.4,3.1-3.1,3.1s-3.1-1.4-3.1-3.1V17.2
	C46.9,15.5,48.3,14.1,50,14.1z M70.3,14.1c1.7,0,3.1,1.4,3.1,3.1v12.5c0,1.7-1.4,3.1-3.1,3.1s-3.1-1.4-3.1-3.1V17.2
	C67.2,15.5,68.6,14.1,70.3,14.1z"/>
<path class="st0" d="M18.8,35.9v40.6h62.5V35.9H18.8z M18.8,29.7h62.5c3.4,0,6.3,2.8,6.3,6.3v40.6c0,3.4-2.8,6.3-6.3,6.3H18.8
	c-3.4,0-6.3-2.8-6.3-6.3V35.9C12.5,32.5,15.3,29.7,18.8,29.7z M12.5,46.9h73.4V50H12.5V46.9z M6.3,76.6h87.5c1.7,0,3.1,1.4,3.1,3.1
	s-1.4,3.1-3.1,3.1H6.3c-1.7,0-3.1-1.4-3.1-3.1S4.5,76.6,6.3,76.6z"/>
</svg>
