<?xml version="1.0" encoding="utf-8"?>
<!-- Generator: Adobe Illustrator 22.0.0, SVG Export Plug-In . SVG Version: 6.00 Build 0)  -->
<svg version="1.1" id="图层_1" xmlns="http://www.w3.org/2000/svg" xmlns:xlink="http://www.w3.org/1999/xlink" x="0px" y="0px"
	 viewBox="0 0 1024 1024" style="enable-background:new 0 0 1024 1024;" xml:space="preserve">
<style type="text/css">
	.st0{fill:#083342;}
</style>
<path class="st0" d="M194.1,1024h-62.9c-30.5,0-57.2-24.8-57.2-57.2c0-83.9,22.9-165.9,68.6-234.5c43.9-70.6,108.7-125.9,185-162.1
	l5.7-1.9l-5.7-3.8c-80.1-61-125.9-152.6-125.9-249.8C201.8,143,342.9,0,518.3,0s314.6,141.1,314.6,314.6
	c0,99.2-45.8,190.7-125.9,249.8l-3.8,3.8l5.7,1.9c76.3,36.2,137.3,93.4,185,162.1c43.9,70.6,68.6,152.6,68.6,234.5
	c0,30.5-24.8,57.2-57.2,57.2C907.3,1024,194.1,1024,194.1,1024z M386.7,638.8c-123.9,49.6-211.7,164-225,297.5v3.8h713.2v-3.8
	c-13.3-131.6-99.2-247.9-225-297.5l-131.6-51.5C518.3,589.2,386.7,638.8,386.7,638.8z M518.3,85.8c-127.8,0-228.8,103-228.8,228.8
	c0,80.1,42,154.5,110.6,194.5l120.1,74.4l120.1-74.4C709,467.2,751,392.8,751,314.6C747.1,190.7,646.1,83.9,518.3,85.8z"/>
</svg>
