<?xml version="1.0" encoding="utf-8"?>
<!-- Generator: Adobe Illustrator 22.0.0, SVG Export Plug-In . SVG Version: 6.00 Build 0)  -->
<svg version="1.1" id="图层_1" xmlns="http://www.w3.org/2000/svg" xmlns:xlink="http://www.w3.org/1999/xlink" x="0px" y="0px"
	 viewBox="0 0 60 54" style="enable-background:new 0 0 60 54;" xml:space="preserve">
<style type="text/css">
	.st0{fill:#FFFFFF;}
</style>
<path class="st0" d="M13.2,53.7H9.9c-1.6,0-3-1.3-3-3c0-4.4,1.2-8.7,3.6-12.3c2.3-3.7,5.7-6.6,9.7-8.5l0.3-0.1l-0.3-0.2
	c-4.2-3.2-6.6-8-6.6-13.1C13.6,7.5,21,0,30.2,0s16.5,7.4,16.5,16.5c0,5.2-2.4,10-6.6,13.1l-0.2,0.2l0.3,0.1c4,1.9,7.2,4.9,9.7,8.5
	c2.3,3.7,3.6,8,3.6,12.3c0,1.6-1.3,3-3,3C50.6,53.7,13.2,53.7,13.2,53.7z M23.3,33.5c-6.5,2.6-11.1,8.6-11.8,15.6v0.2h37.4v-0.2
	c-0.7-6.9-5.2-13-11.8-15.6l-6.9-2.7C30.2,30.9,23.3,33.5,23.3,33.5z M30.2,4.5c-6.7,0-12,5.4-12,12c0,4.2,2.2,8.1,5.8,10.2l6.3,3.9
	l6.3-3.9c3.6-2.2,5.8-6.1,5.8-10.2C42.2,10,36.9,4.4,30.2,4.5z"/>
</svg>
