<?xml version="1.0" encoding="utf-8"?>
<!-- Generator: Adobe Illustrator 22.0.0, SVG Export Plug-In . SVG Version: 6.00 Build 0)  -->
<svg version="1.1" id="图层_1" xmlns="http://www.w3.org/2000/svg" xmlns:xlink="http://www.w3.org/1999/xlink" x="0px" y="0px"
	 viewBox="0 0 1024 1024" style="enable-background:new 0 0 1024 1024;" xml:space="preserve">
<style type="text/css">
	.st0{fill:#083342;}
</style>
<path class="st0" d="M448.9,789.3c0,49.2,37.9,87.1,87.1,87.1s87.1-37.9,87.1-87.1s-37.9-87.1-87.1-87.1S448.9,740.1,448.9,789.3z
	 M566.2,789.3c0,17-11.4,28.4-28.4,28.4c-17,0-28.4-11.4-28.4-28.4s11.4-28.4,28.4-28.4C554.9,760.9,566.2,772.3,566.2,789.3z
	 M623,174.1c17,0,28.4-11.4,28.4-28.4S640,117.4,623,117.4H447c-17,0-28.4,11.4-28.4,28.4s11.4,28.4,28.4,28.4H623z M770.6,554.6
	V321.8c0-49.2-37.9-87.1-87.1-87.1H390.2c-49.2,0-87.1,37.9-87.1,87.1v234.7c0,49.2,37.9,87.1,87.1,87.1h293.4
	C732.8,643.5,770.6,605.7,770.6,554.6z M359.9,554.6V321.8c0-17,11.4-28.4,28.4-28.4h293.4c17,0,28.4,11.4,28.4,28.4v234.7
	c0,17-11.4,28.4-28.4,28.4H390.2C371.3,584.9,359.9,573.5,359.9,554.6z"/>
<path class="st0" d="M814.2,0H257.7c-41.6,0-73.8,32.2-73.8,73.8v819.6c0,41.6,32.2,73.8,73.8,73.8h278.2
	c26.5,0,32.2,11.4,32.2,28.4s11.4,28.4,28.4,28.4s28.4-11.4,28.4-28.4c0-54.9-36-87.1-90.9-87.1H257.7c-9.5,0-15.1-5.7-15.1-15.1
	V71.9c0-9.5,5.7-15.1,15.1-15.1h556.5c9.5,0,15.1,5.7,15.1,15.1v819.6c0,9.5-5.7,15.1-15.1,15.1H700.6c-17,0-28.4,11.4-28.4,28.4
	s11.4,28.4,28.4,28.4h113.6c41.6,0,73.8-32.2,73.8-73.8V71.9C888,32.2,855.8,0,814.2,0z"/>
</svg>
