<?xml version="1.0" encoding="utf-8"?>
<!-- Generator: Adobe Illustrator 22.0.0, SVG Export Plug-In . SVG Version: 6.00 Build 0)  -->
<svg version="1.1" id="图层_1" xmlns="http://www.w3.org/2000/svg" xmlns:xlink="http://www.w3.org/1999/xlink" x="0px" y="0px"
	 viewBox="0 0 100 100" style="enable-background:new 0 0 100 100;" xml:space="preserve">
<style type="text/css">
	.st0{fill:#7D7D7D;}
</style>
<path class="st0" d="M62.1,93.6c-13,0-28.7-12-38.9-29.9C10,40.6,10.3,16.4,23.9,8.7c2.9-1.7,6.3-2.4,10-2.3c0.3,0,0.6-0.1,0.8-0.1
	l0.2,0c6,0,11.5,7.4,12.7,17.3c0.8,6.4-0.4,12.3-3.3,15.6C42.9,41,40.9,42,38.8,42c0,0-0.2,0.1-0.3,0.2c-0.1,0.1-0.2,0.6-0.1,1.6
	c1.3,3.1,2.7,6.1,4.4,9c1.8,3.1,3.8,6.2,6,9c0,0,0,0.1,0.1,0.1c0.4,0.4,0.6,0.4,0.7,0.4c0.4,0,0.9-0.3,1.2-0.5c1.4-1.9,3.8-3,6.7-3
	c3.9,0,8.6,1.9,12.9,5.2c7.8,6.1,11,14.2,8.2,19.4c-0.3,0.5-0.3,0.5-0.5,1c-1.9,2.9-4.1,5.4-7,7C68.5,92.8,65.4,93.6,62.1,93.6
	L62.1,93.6C62.1,93.6,62.1,93.6,62.1,93.6z M57.6,63.7c-1,0-2.2,0.2-2.8,1.1c-0.1,0.2-0.3,0.4-0.5,0.6c-0.2,0.2-2.2,1.8-4.7,1.8
	c-1.6,0-3-0.6-4.2-1.8c-0.1-0.1-0.3-0.2-0.4-0.4c-2.4-3.1-4.6-6.4-6.6-9.8c-1.8-3.1-3.4-6.4-4.8-9.8c-0.1-0.1-0.1-0.3-0.1-0.4
	c-0.5-2.4-0.2-4.4,1-5.8c1.6-1.9,3.9-2,4.1-2c0.2,0,1,0,1.9-1.1c1.9-2.2,2.7-6.8,2.1-11.7c-1-7.5-4.4-12.8-7.9-13
	c-0.1,0-5.2-0.7-8.5,1.7c-10.8,6.1-10.3,28.2,1.2,48.3C36.8,77.4,51,88.7,62.1,88.7c2.4,0,4.6-0.5,6.6-1.6c2.1-1.2,4.1-3.2,5.4-5.5
	c0.1-0.2,0.3-0.4,0.5-0.8c1.3-2.4-1.3-8.4-7.1-12.9C64.1,65.2,60.4,63.7,57.6,63.7z M65.4,47.2c-0.1,0-0.3,0-0.5,0
	c-1.4-0.2-2.3-1.5-2-2.9c0.2-1,0-1.9-0.6-2.7C61.8,40.7,61,40.2,60,40c-1.4-0.2-2.3-1.5-2-2.9c0.2-1.3,1.6-2.2,2.9-2
	c2.3,0.4,4.3,1.7,5.6,3.6c1.3,1.9,1.8,4.2,1.4,6.4C67.7,46.3,66.6,47.2,65.4,47.2z M73.9,47c-0.2,0-0.3,0-0.5,0
	c-1.4-0.2-2.3-1.5-2-2.9c1-5.5-2.7-10.8-8.3-11.8c-1.4-0.2-2.3-1.5-2-2.9c0.2-1.3,1.6-2.2,2.9-2c8.3,1.5,13.8,9.4,12.3,17.6
	C76.1,46.2,75.1,47,73.9,47z M83.6,49.7c-0.1,0-0.3,0-0.5,0c-1.4-0.2-2.3-1.5-2-2.9c1-5.5-0.2-11.1-3.4-15.7
	c-3.2-4.6-8.1-7.7-13.6-8.7c-1.4-0.2-2.3-1.5-2-2.9c0.3-1.3,1.6-2.2,2.9-2c6.9,1.3,12.9,5.1,16.9,10.8c4,5.7,5.5,12.6,4.2,19.4
	C85.8,48.9,84.8,49.7,83.6,49.7z"/>
<path class="st0" d="M62.1,94.1L62.1,94.1c-13.2,0-29-12.1-39.3-30.1c-8.6-15-11.8-31-8.6-42.7c1.6-5.9,4.9-10.4,9.4-13
	c3-1.7,6.4-2.5,10.2-2.3c0.3,0,0.6-0.1,0.8-0.1l0.2,0c6.2,0,11.9,7.6,13.2,17.7c0.8,6.6-0.4,12.5-3.4,16c-1.6,1.8-3.6,2.9-5.9,2.9
	l0,0c0,0.1-0.1,0.4,0,1.1c1.3,3,2.7,6,4.3,8.8c1.8,3.1,3.8,6.1,6,9l0,0c0.2,0.3,0.3,0.3,0.4,0.3c0.2,0,0.6-0.2,0.9-0.3
	c1.5-2,4-3.1,7.1-3.1c4.1,0,8.9,1.9,13.2,5.3c7.8,6.1,11.3,14.5,8.3,20l-0.2,0.3c-0.1,0.2-0.2,0.3-0.4,0.7c-2.2,3.3-4.5,5.7-7.2,7.2
	C68.6,93.3,65.5,94.1,62.1,94.1z M33,7c-3.2,0-6.2,0.7-8.8,2.2c-4.3,2.4-7.4,6.7-9,12.4c-3.1,11.4,0,27.1,8.5,41.9
	c10.1,17.7,25.6,29.6,38.4,29.6c3.2,0,6.2-0.7,8.8-2.2c2.5-1.4,4.7-3.6,6.8-6.8c0.2-0.3,0.2-0.4,0.3-0.6l0.2-0.3
	c2.8-5.1-0.6-13-8-18.8c-4.2-3.2-8.8-5.1-12.6-5.1c-2.8,0-5,1-6.3,2.8l-0.1,0.1l-0.1,0c-0.3,0.2-0.9,0.5-1.5,0.5
	c-0.3,0-0.7-0.1-1.1-0.6c0,0,0-0.1-0.1-0.1c-2.2-2.9-4.3-5.9-6.1-9.1c-1.7-2.9-3.1-5.9-4.4-9l0-0.1c-0.2-0.9-0.1-1.6,0.2-2
	c0.2-0.2,0.6-0.3,0.7-0.3c2,0,3.8-0.9,5.2-2.6c2.8-3.2,4-8.9,3.2-15.2c-1.2-9.6-6.5-16.9-12.2-16.9l-0.2,0c-0.2,0-0.5,0-0.8,0.1l0,0
	l0,0C33.6,7,33.3,7,33,7z M62.1,89.2c-11.3,0-25.7-11.4-35-27.6c-7.8-13.7-10.9-28.7-8-39.1c1.3-4.6,3.7-8,7-9.9
	c2.1-1.5,5-1.8,7-1.8c0.8,0,1.5,0.1,1.7,0.1l0.1,0c3.8,0.2,7.4,6,8.3,13.5c0.7,5.1-0.2,9.8-2.2,12.1c-1,1.2-2,1.2-2.3,1.2
	c-0.1,0-2.3,0-3.7,1.8c-1.1,1.3-1.4,3.2-0.9,5.4c0,0.1,0.1,0.2,0.1,0.3c1.4,3.3,2.9,6.6,4.7,9.7c1.9,3.4,4.1,6.7,6.6,9.8
	c0.1,0.1,0.2,0.2,0.3,0.3c1.1,1.1,2.4,1.7,3.9,1.7c2.3,0,4.2-1.5,4.4-1.7c0.1-0.1,0.3-0.3,0.4-0.4c0.6-0.9,1.7-1.4,3.2-1.4
	c2.9,0,6.7,1.6,10.1,4.3c6,4.7,8.6,10.9,7.2,13.6c-0.1,0.2-0.3,0.5-0.4,0.7l-0.1,0.1c-1.4,2.4-3.4,4.4-5.6,5.7
	C66.9,88.6,64.7,89.2,62.1,89.2L62.1,89.2z M33.1,11.7c-1.9,0-4.5,0.3-6.5,1.7l0,0c-3.1,1.7-5.3,4.9-6.5,9.3
	c-2.8,10.1,0.3,25.1,7.9,38.4c9.1,16,23.2,27.1,34.1,27.1c2.3,0,4.5-0.5,6.3-1.6c2-1.1,3.9-3.1,5.2-5.3l0.1-0.1
	c0.1-0.2,0.2-0.4,0.4-0.7c1.1-2-1-7.7-7-12.3c-3.3-2.5-6.8-4.1-9.5-4.1c-0.8,0-1.9,0.2-2.4,0.9c-0.2,0.2-0.3,0.5-0.6,0.7
	c-0.2,0.2-2.3,1.9-5,1.9c-1.7,0-3.3-0.7-4.6-2c-0.1-0.1-0.3-0.3-0.4-0.4c-2.5-3.1-4.7-6.4-6.7-9.9c-1.8-3.2-3.4-6.4-4.8-9.8
	c-0.1-0.2-0.1-0.3-0.2-0.5c-0.5-2.6-0.2-4.7,1.1-6.3c1.7-2.1,4.4-2.2,4.5-2.2c0.2,0,0.8,0,1.5-0.9c1.8-2.1,2.6-6.6,2-11.4
	c-0.9-6.9-4.1-12.4-7.4-12.6h0c0,0,0,0-0.1,0C34.5,11.8,33.9,11.7,33.1,11.7L33.1,11.7z M83.6,50.2c-0.2,0-0.4,0-0.5,0
	c-0.8-0.1-1.5-0.6-1.9-1.2c-0.4-0.6-0.6-1.4-0.5-2.2c1-5.4-0.2-10.8-3.3-15.3c-3.1-4.5-7.9-7.5-13.3-8.5c-0.8-0.1-1.5-0.6-1.9-1.2
	c-0.4-0.6-0.6-1.4-0.5-2.2c0.3-1.4,1.5-2.4,3-2.4c0.2,0,0.4,0,0.5,0c7,1.3,13.1,5.2,17.2,11c4.1,5.8,5.6,12.8,4.3,19.8
	C86.3,49.2,85,50.2,83.6,50.2z M64.5,17.9c-1,0-1.8,0.7-2,1.6c-0.1,0.5,0,1,0.3,1.5c0.3,0.4,0.8,0.7,1.3,0.8c5.7,1,10.7,4.2,14,8.9
	c3.3,4.7,4.5,10.4,3.5,16.1c-0.1,0.5,0,1,0.3,1.5c0.4,0.5,1,0.9,1.7,0.9c1,0,1.8-0.7,2-1.6c1.2-6.7-0.2-13.4-4.1-19
	c-3.9-5.6-9.8-9.4-16.5-10.6C64.7,17.9,64.6,17.9,64.5,17.9z M65.4,47.7c-0.2,0-0.4,0-0.5-0.1c-0.8-0.1-1.5-0.6-1.9-1.2
	c-0.4-0.6-0.6-1.4-0.5-2.2c0.2-0.8,0-1.7-0.5-2.4c-0.5-0.7-1.2-1.2-2.1-1.3c-0.8-0.1-1.5-0.6-1.9-1.2c-0.4-0.6-0.6-1.4-0.5-2.2
	c0.3-1.4,1.5-2.4,3-2.4c0.2,0,0.4,0,0.5,0c2.4,0.4,4.5,1.8,5.9,3.8c1.4,2,1.9,4.4,1.5,6.8C68.1,46.6,66.9,47.7,65.4,47.7z
	 M60.5,35.6c-1,0-1.8,0.7-2,1.6c-0.1,0.5,0,1,0.3,1.5c0.3,0.4,0.8,0.7,1.3,0.8c1.1,0.2,2.1,0.8,2.7,1.7c0.6,0.9,0.9,2,0.7,3.1
	c-0.1,0.5,0,1,0.3,1.5c0.3,0.4,0.8,0.7,1.3,0.8c1.1,0.2,2.1-0.5,2.3-1.6c0,0,0,0,0,0c0.4-2.1-0.1-4.3-1.3-6.1
	c-1.2-1.8-3.1-3-5.3-3.4C60.7,35.6,60.6,35.6,60.5,35.6L60.5,35.6z M73.9,47.5c-0.2,0-0.4,0-0.5,0c-0.8-0.1-1.5-0.6-1.9-1.2
	c-0.4-0.6-0.6-1.4-0.5-2.2c0.5-2.5-0.1-5.1-1.5-7.2c-1.5-2.2-3.7-3.6-6.3-4.1c-0.8-0.1-1.5-0.6-1.9-1.2c-0.4-0.6-0.6-1.4-0.5-2.2
	c0.3-1.4,1.5-2.4,3-2.4c0.2,0,0.4,0,0.5,0c4.2,0.8,7.8,3.1,10.2,6.6c2.4,3.4,3.2,7.5,2.5,11.6C76.6,46.5,75.3,47.5,73.9,47.5z
	 M63.6,27.8c-1,0-1.8,0.7-2,1.6c-0.1,0.5,0,1,0.3,1.5c0.3,0.4,0.8,0.7,1.3,0.8c2.8,0.5,5.3,2.1,7,4.5c1.6,2.3,2.2,5.2,1.7,7.9
	c-0.1,0.5,0,1,0.3,1.5c0.3,0.4,0.8,0.7,1.3,0.8c1.1,0.2,2.1-0.5,2.3-1.6c0.7-3.8-0.1-7.7-2.3-10.9c-2.2-3.3-5.6-5.4-9.5-6.1
	C63.9,27.8,63.7,27.8,63.6,27.8z"/>
</svg>
