<?xml version="1.0" encoding="utf-8"?>
<!-- Generator: Adobe Illustrator 22.0.0, SVG Export Plug-In . SVG Version: 6.00 Build 0)  -->
<svg version="1.1" id="图层_1" xmlns="http://www.w3.org/2000/svg" xmlns:xlink="http://www.w3.org/1999/xlink" x="0px" y="0px"
	 viewBox="0 0 1024 1024" style="enable-background:new 0 0 1024 1024;" xml:space="preserve">
<style type="text/css">
	.st0{fill:#083342;}
</style>
<path class="st0" d="M836.8,784.6c0,20.9,17.1,38,38,38c20.9,0,38-17.1,38-38l0,0c0-20.9-17.1-38-38-38
	C853.9,748.5,836.8,765.6,836.8,784.6L836.8,784.6z"/>
<path class="st0" d="M973.6,682c-30.4-30.4-70.3-43.7-112.1-41.8l-57-57c7.6-22.8,13.3-45.6,13.3-70.3c0-55.1-20.9-110.2-62.7-150.1
	C692.4,300.1,597.4,283,517.6,321c0,0-1.9,0-1.9,1.9l0,0c0,0-1.9,0-1.9,1.9c-1.9,1.9-5.7,1.9-7.6,5.7c0,0,0,0,0,1.9
	c0,0,0,1.9-1.9,1.9c-5.7,5.7-7.6,13.3-7.6,20.9l0,0c0,3.8,1.9,7.6,1.9,11.4l0,0c0,1.9,1.9,1.9,1.9,3.8c1.9,1.9,1.9,3.8,3.8,5.7
	l87.4,87.4l-39.9,39.9l-87.4-91.2c-13.3-13.3-34.2-13.3-45.6,0c-1.9,1.9-3.8,5.7-5.7,7.6l-1.9,1.9l0,0l0,0
	c-38,81.7-20.9,178.6,41.8,241.3c58.9,58.9,146.3,76,220.4,49.4l55.1,55.1c-3.8,41.8,11.4,83.6,41.8,114
	c55.1,55.1,146.3,55.1,203.3,0c28.5-28.5,41.8-64.6,41.8-100.7C1015.4,746.6,1002.1,710.5,973.6,682L973.6,682z M500.5,619.3
	c-32.3-32.3-47.5-77.9-41.8-121.6l58.9,58.9c9.5,9.5,22.8,15.2,38,15.2c13.3,0,26.6-5.7,38-15.2l57-57c9.5-9.5,15.2-22.8,15.2-38
	c0-13.3-5.7-26.6-15.2-38l-57-57c43.7-3.8,87.4,11.4,119.7,41.8c57,57,57,152,0,209C652.5,676.3,557.5,676.3,500.5,619.3z
	 M928,837.8c-30.4,30.4-79.8,30.4-110.2,0c-19-19-26.6-45.6-20.9-72.2c0-1.9,0-1.9,0-3.8c0-1.9,0-1.9,0-3.8c0-1.9,0-1.9,0-3.8
	c0-1.9,0-3.8-1.9-5.7c0-1.9-1.9-3.8-1.9-5.7c-1.9-1.9-1.9-3.8-3.8-5.7c0,0,0-1.9-1.9-1.9L734.2,682c7.6-5.7,15.2-11.4,20.9-17.1
	c7.6-7.6,11.4-13.3,17.1-20.9l53.2,53.2c0,0,0,0,1.9,0c1.9,1.9,5.7,3.8,9.5,5.7l0,0c3.8,1.9,7.6,1.9,11.4,1.9l0,0c1.9,0,3.8,0,5.7,0
	c26.6-5.7,53.2,1.9,70.3,20.9C958.4,758,958.4,807.4,928,837.8L928,837.8z"/>
<path class="st0" d="M523.3,1024c-161.5,0-313.5-77.9-412.3-212.8C-1.1,659.2-22,467.3,54,300.1c76-171,237.5-281.2,427.5-298.3
	C673.4-13.4,850.1,70.2,952.7,226c9.5,15.2,5.7,36.1-9.5,45.6c-15.2,9.5-36.1,5.7-45.6-9.5c-89.3-136.8-243.2-209-410.4-195.7
	S179.4,176.6,112.9,324.8s-47.5,313.5,51.3,448.4c98.8,133,252.7,203.3,412.3,184.3c19-1.9,34.2,11.4,36.1,28.5
	c1.9,17.1-11.4,34.2-28.5,36.1C563.2,1024,544.2,1024,523.3,1024z"/>
</svg>
