<?xml version="1.0" encoding="utf-8"?>
<!-- Generator: Adobe Illustrator 22.0.0, SVG Export Plug-In . SVG Version: 6.00 Build 0)  -->
<svg version="1.1" id="图层_1" xmlns="http://www.w3.org/2000/svg" xmlns:xlink="http://www.w3.org/1999/xlink" x="0px" y="0px"
	 viewBox="0 0 100 100" style="enable-background:new 0 0 100 100;" xml:space="preserve">
<style type="text/css">
	.st0{fill:#FFFFFF;}
</style>
<path class="st0" d="M80,61.2c-0.8,0-1.7-0.4-2.2-1.1c-0.8-1.2-0.5-2.8,0.7-3.6c6.3-4.3,13.1-13.8,13.1-21.9
	c0-12.9-10.5-23.4-23.4-23.4c-6.2,0-12,2.4-16.4,6.7c-1,1-2.6,1-3.7,0c-4.4-4.3-10.2-6.7-16.4-6.7c-12.9,0-23.4,10.5-23.4,23.4
	c0,8.9,5,17,13,21c1.3,0.6,1.8,2.2,1.2,3.5c-0.6,1.3-2.2,1.8-3.5,1.2C9.2,55.3,3.1,45.5,3.1,34.6C3.1,18.8,16,5.9,31.8,5.9
	c6.7,0,13.1,2.3,18.2,6.6c5.1-4.3,11.5-6.6,18.2-6.6c15.8,0,28.6,12.8,28.6,28.6c0,9.9-7.8,21.1-15.4,26.2
	C81.1,61.1,80.6,61.2,80,61.2z"/>
<path class="st0" d="M75.9,70.1c-2.1,0-4.2-0.8-5.7-2.4l-9.9-9.9c-1-1-1-2.7,0-3.7c1-1,2.7-1,3.7,0l9.9,9.9c1.1,1.1,2.9,1.1,4,0
	c1.1-1.1,1.1-2.9,0-4L49.3,32.4c-1-1-1.1-2.6-0.1-3.7c1-1,2.7-1.1,3.7-0.1l28.5,27.7c3.2,3.2,3.2,8.2,0,11.4
	C80,69.3,78,70.1,75.9,70.1L75.9,70.1z"/>
<path class="st0" d="M69.2,78.8c-2.1,0-4.1-0.8-5.7-2.3l-5.1-5.1c-1-1-1-2.7,0-3.7c1-1,2.7-1,3.7,0l5.1,5.1c1.1,1.1,2.9,1.1,4,0
	c0.5-0.5,0.8-1.2,0.8-2c0-0.8-0.3-1.5-0.8-2L57.7,55.3c-1-1-1-2.7,0-3.7s2.7-1,3.7,0l13.5,13.5c1.5,1.5,2.4,3.5,2.4,5.7
	c0,2.1-0.8,4.2-2.4,5.7C73.3,78,71.2,78.8,69.2,78.8L69.2,78.8z"/>
<path class="st0" d="M61.5,86.5c-2.1,0-4.2-0.8-5.7-2.4l-1.2-1.2c-1-1-1-2.7,0-3.7c1-1,2.7-1,3.7,0l1.2,1.2c1.1,1.1,2.9,1.1,4,0
	c1.1-1.1,1.1-2.9,0-4l-2.7-2.7c-1-1-1-2.7,0-3.7s2.7-1,3.7,0l2.7,2.7c3.1,3.1,3.1,8.2,0,11.4C65.6,85.7,63.6,86.5,61.5,86.5z"/>
<path class="st0" d="M53.9,94.1c-2.1,0-4.2-0.8-5.7-2.4L47,90.5c-1-1-1-2.7,0-3.7c1-1,2.7-1,3.7,0l1.2,1.2c1.1,1.1,2.9,1.1,4,0
	c1.1-1.1,1.1-2.9,0-4L54.8,83c-1-1-1-2.7,0-3.7c1-1,2.7-1,3.7,0l1.1,1.1c3.1,3.1,3.1,8.2,0,11.4C58,93.2,56,94.1,53.9,94.1
	L53.9,94.1z M24.6,67.2c-2.1,0-4.2-0.8-5.7-2.3c-3.1-3.1-3.1-8.2,0-11.4l8.6-8.6c3-3,8.3-3,11.4,0c1.5,1.5,2.4,3.5,2.4,5.7
	c0,2.1-0.8,4.2-2.4,5.7l-8.6,8.6C28.8,66.3,26.8,67.2,24.6,67.2L24.6,67.2z M33.2,47.8c-0.8,0-1.5,0.3-2,0.8l-8.6,8.6
	c-1.1,1.1-1.1,2.9,0,4c1.1,1.1,2.9,1.1,4,0l8.6-8.6c0.5-0.5,0.8-1.2,0.8-2s-0.3-1.5-0.8-2C34.6,48,33.9,47.8,33.2,47.8L33.2,47.8z"
	/>
<path class="st0" d="M32.3,74.8c-2.1,0-4.2-0.8-5.7-2.3c-3.1-3.1-3.1-8.2,0-11.4l8.6-8.6c3-3,8.3-3,11.4,0c3.1,3.1,3.1,8.2,0,11.4
	L38,72.5C36.5,74,34.4,74.8,32.3,74.8L32.3,74.8z M40.9,55.4c-0.8,0-1.5,0.3-2,0.8l-8.6,8.6c-1.1,1.1-1.1,2.9,0,4
	c1.1,1.1,2.9,1.1,4,0l8.6-8.6c1.1-1.1,1.1-2.9,0-4C42.3,55.7,41.6,55.4,40.9,55.4L40.9,55.4z"/>
<path class="st0" d="M40,82.5c-2.1,0-4.2-0.8-5.7-2.3c-3.1-3.1-3.1-8.2,0-11.4l8.6-8.6c3-3,8.3-3,11.4,0c3.1,3.1,3.1,8.2,0,11.4
	l-8.6,8.6C44.1,81.7,42.1,82.5,40,82.5z M48.5,63.1c-0.8,0-1.5,0.3-2,0.8L38,72.5c-1.1,1.1-1.1,2.9,0,4c1.1,1.1,2.9,1.1,4,0l8.6-8.6
	c1.1-1.1,1.1-2.9,0-4C50,63.4,49.3,63.1,48.5,63.1L48.5,63.1z"/>
<path class="st0" d="M47.6,90.2c-2.1,0-4.2-0.8-5.7-2.3c-3.1-3.1-3.1-8.2,0-11.4l8.6-8.6c3-3,8.3-3,11.4,0c3.1,3.1,3.1,8.2,0,11.4
	l-8.6,8.6C51.8,89.3,49.8,90.2,47.6,90.2L47.6,90.2z M56.2,70.8c-0.8,0-1.5,0.3-2,0.8l-8.6,8.6c-1.1,1.1-1.1,2.9,0,4
	c1.1,1.1,2.9,1.1,4,0l8.6-8.6c1.1-1.1,1.1-2.9,0-4C57.7,71.1,57,70.8,56.2,70.8z M37.9,42.9c-2.1,0-4.2-0.8-5.7-2.3
	c-3.1-3.1-3.1-8.2,0-11.4l16-15c1-1,2.7-0.9,3.7,0.1c1,1.1,0.9,2.7-0.1,3.7l-16,15c-1,1-1,2.8,0.1,3.9c1.1,1.1,2.9,1.1,4,0l9.6-8.3
	c1.1-0.9,2.7-0.8,3.7,0.3c0.9,1.1,0.8,2.7-0.3,3.7l-9.5,8.2C42,42,40,42.9,37.9,42.9L37.9,42.9z"/>
</svg>
