<?xml version="1.0" encoding="utf-8"?>
<!-- Generator: Adobe Illustrator 22.0.0, SVG Export Plug-In . SVG Version: 6.00 Build 0)  -->
<svg version="1.1" id="图层_1" xmlns="http://www.w3.org/2000/svg" xmlns:xlink="http://www.w3.org/1999/xlink" x="0px" y="0px"
	 viewBox="0 0 1024 1024" style="enable-background:new 0 0 1024 1024;" xml:space="preserve">
<style type="text/css">
	.st0{fill:#FFFFFF;}
</style>
<path class="st0" d="M839.6,633.8c-9,0-17.9-3.6-23.3-12.5c-9-12.5-5.4-30.4,7.2-39.4c69.8-46.5,143.2-150.4,143.2-239.9
	c0-141.4-114.6-256-256-256c-68,0-130.7,26.9-179,73.4c-10.7,10.7-28.6,10.7-41.2,0c-48.3-46.5-111-73.4-179-73.4
	c-141.4,0-256,114.6-256,256c0,96.7,55.5,186.2,143.2,230.9c14.3,7.2,19.7,23.3,12.5,37.6c-7.2,14.3-23.3,19.7-37.6,12.5
	C66.3,567.6,0.1,460.2,0.1,342.1C-3.5,168.4,137.9,27,311.5,27c73.4,0,143.2,25.1,198.7,71.6C565.7,52.1,635.5,27,708.9,27
	C882.6,27,1024,166.6,1024,340.3c0,109.2-85.9,230.9-168.3,286.4C852.2,632.1,846.8,633.8,839.6,633.8z"/>
<path class="st0" d="M794.9,730.5c-23.3,0-46.5-9-62.7-26.9L623,594.5c-10.7-10.7-10.7-30.4,0-41.2s30.4-10.7,41.2,0l109.2,109.2
	c12.5,12.5,32.2,12.5,43,0c12.5-12.5,12.5-32.2,0-43L503.1,317c-10.7-10.7-12.5-28.6-1.8-41.2c10.7-10.7,30.4-12.5,41.2-1.8
	l311.5,304.3c35.8,35.8,35.8,89.5,0,125.3C839.6,721.6,818.1,730.5,794.9,730.5L794.9,730.5z"/>
<path class="st0" d="M721.5,825.4c-23.3,0-44.8-9-62.7-25.1l-55.5-55.5c-10.7-10.7-10.7-30.4,0-41.2s30.4-10.7,41.2,0l55.5,55.5
	c12.5,12.5,32.2,12.5,43,0c5.4-5.4,9-12.5,9-21.5c0-9-3.6-16.1-9-21.5L594.4,567.6c-10.7-10.7-10.7-30.4,0-41.2s30.4-10.7,41.2,0
	L784.1,675c16.1,16.1,26.9,37.6,26.9,62.7c0,23.3-9,46.5-26.9,62.7C766.2,816.4,743,825.4,721.5,825.4L721.5,825.4z"/>
<path class="st0" d="M637.3,909.5c-23.3,0-46.5-9-62.7-26.9l-14.3-12.5c-10.7-10.7-10.7-30.4,0-41.2c10.7-10.7,30.4-10.7,41.2,0
	l12.5,12.5c12.5,12.5,32.2,12.5,43,0c12.5-12.5,12.5-32.2,0-43l-30.4-30.4c-10.7-10.7-10.7-30.4,0-41.2s30.4-10.7,41.2,0l30.4,30.4
	c34,34,34,89.5,0,125.3C682.1,902.4,658.8,909.5,637.3,909.5z"/>
<path class="st0" d="M553.2,993.7c-23.3,0-46.5-9-62.7-26.9L478,954.3c-10.7-10.7-10.7-30.4,0-41.2c10.7-10.7,30.4-10.7,41.2,0
	l12.5,12.5c12.5,12.5,32.2,12.5,43,0c12.5-12.5,12.5-32.2,0-43l-12.5-10.7c-10.7-10.7-10.7-30.4,0-41.2s30.4-10.7,41.2,0l12.5,12.5
	c34,34,34,89.5,0,125.3C598,982.9,576.5,993.7,553.2,993.7L553.2,993.7z M232.8,698.3c-23.3,0-46.5-9-62.7-25.1
	c-34-34-34-89.5,0-125.3L265,453c32.2-32.2,91.3-32.2,125.3,0c16.1,16.1,26.9,37.6,26.9,62.7c0,23.3-9,46.5-26.9,62.7l-94.9,94.9
	C277.5,689.3,256,698.3,232.8,698.3L232.8,698.3z M325.9,487.1c-9,0-16.1,3.6-21.5,9l-94.9,94.9c-12.5,12.5-12.5,32.2,0,43
	c12.5,12.5,32.2,12.5,43,0l94.9-94.9c5.4-5.4,9-12.5,9-21.5c0-9-3.6-16.1-9-21.5C342,488.8,334.8,487.1,325.9,487.1L325.9,487.1z"/>
<path class="st0" d="M316.9,782.4c-23.3,0-46.5-9-62.7-25.1c-34-34-34-89.5,0-125.3l94.9-94.9c32.2-32.2,91.3-32.2,125.3,0
	c34,34,34,89.5,0,125.3l-94.9,94.9C363.5,773.5,340.2,782.4,316.9,782.4L316.9,782.4z M410,569.4c-9,0-16.1,3.6-21.5,9l-94.9,94.9
	c-12.5,12.5-12.5,32.2,0,43c12.5,12.5,32.2,12.5,43,0l94.9-94.9c12.5-12.5,12.5-32.2,0-43C426.1,573,418.9,569.4,410,569.4
	L410,569.4z"/>
<path class="st0" d="M401,866.6c-23.3,0-46.5-9-62.7-25.1c-34-34-34-89.5,0-125.3l94.9-94.9c32.2-32.2,91.3-32.2,125.3,0
	c34,34,34,89.5,0,125.3l-94.9,94.9C445.8,857.6,424.3,866.6,401,866.6z M494.1,653.5c-9,0-16.1,3.6-21.5,9l-93.1,94.9
	c-12.5,12.5-12.5,32.2,0,43c12.5,12.5,32.2,12.5,43,0l94.9-94.9c12.5-12.5,12.5-32.2,0-43C510.2,657.1,503.1,653.5,494.1,653.5
	L494.1,653.5z"/>
<path class="st0" d="M483.4,950.7c-23.3,0-46.5-9-62.7-25.1c-34-34-34-89.5,0-125.3l94.9-94.9c32.2-32.2,91.3-32.2,125.3,0
	c34,34,34,89.5,0,125.3L546,925.6C529.9,941.7,508.5,950.7,483.4,950.7L483.4,950.7z M578.3,737.7c-9,0-16.1,3.6-21.5,9l-94.9,94.9
	c-12.5,12.5-12.5,32.2,0,43c12.5,12.5,32.2,12.5,43,0l94.9-94.9c12.5-12.5,12.5-32.2,0-43C594.4,741.2,587.2,737.7,578.3,737.7z
	 M377.8,433.4c-23.3,0-46.5-9-62.7-25.1c-34-34-34-89.5,0-125.3l175.4-164.7c10.7-10.7,30.4-10.7,41.2,1.8s10.7,30.4-1.8,41.2
	L354.5,325.9c-10.7,10.7-10.7,30.4,1.8,43c12.5,12.5,32.2,12.5,43,0l105.6-91.3c12.5-10.7,30.4-9,41.2,3.6
	c10.7,12.5,9,30.4-3.6,41.2l-103.8,89.5C422.5,422.6,401,433.4,377.8,433.4L377.8,433.4z"/>
</svg>
