<?xml version="1.0" encoding="utf-8"?>
<!-- Generator: Adobe Illustrator 22.0.0, SVG Export Plug-In . SVG Version: 6.00 Build 0)  -->
<svg version="1.1" id="图层_1" xmlns="http://www.w3.org/2000/svg" xmlns:xlink="http://www.w3.org/1999/xlink" x="0px" y="0px"
	 viewBox="0 0 1024 1024" style="enable-background:new 0 0 1024 1024;" xml:space="preserve">
<style type="text/css">
	.st0{fill:#083342;}
</style>
<path class="st0" d="M805.2,1024H226c-123,0-223.3-100.3-223.3-223.3V223.3C2.6,100.3,102.9,0,226,0h579.2
	c123,0,223.3,100.3,223.3,223.3v579.2C1026.6,923.7,928.2,1024,805.2,1024z M226,73.8c-81.4,0-147.6,66.2-147.6,147.6v579.2
	c0,81.4,66.2,147.6,147.6,147.6h579.2c81.4,0,147.6-66.2,147.6-147.6V223.3c0-81.4-66.2-147.6-147.6-147.6
	C805.2,73.8,226,73.8,226,73.8z"/>
<path class="st0" d="M277.1,865c-20.8,0-37.9-17-37.9-37.9V195c0-20.8,17-37.9,37.9-37.9s37.9,17,37.9,37.9V829
	C313,849.9,296,865,277.1,865z M515.6,865c-20.8,0-37.9-17-37.9-37.9V195c0-20.8,17-37.9,37.9-37.9c20.8,0,37.9,17,37.9,37.9V829
	C551.5,849.9,534.5,865,515.6,865z"/>
<path class="st0" d="M515.6,866.9c-20.8,0-37.9-17-37.9-37.9s17-37.9,37.9-37.9c153.3,0,278.2-124.9,278.2-280.1
	S668.9,230.9,513.7,230.9c-20.8,0-37.9-17-37.9-37.9s17-37.9,37.9-37.9c94.6,0,183.6,36,249.8,104.1s106,159,106,251.7
	c0,94.6-36,183.6-104.1,249.8C697.3,829,608.3,866.9,515.6,866.9z M356.6,865h-159c-20.8,0-37.9-17-37.9-37.9s17-37.9,37.9-37.9h159
	c20.8,0,37.9,17,37.9,37.9C392.5,849.9,377.4,865,356.6,865z M356.6,232.8h-159c-20.8,0-37.9-17-37.9-37.9s17-37.9,37.9-37.9h159
	c20.8,0,37.9,17,37.9,37.9S377.4,232.8,356.6,232.8z"/>
<path class="st0" d="M515.6,866.9L515.6,866.9h-79.5c-20.8,0-37.9-17-37.9-37.9s17-37.9,37.9-37.9l0,0h79.5
	c20.8,0,37.9,17,37.9,37.9C551.5,849.9,534.5,866.9,515.6,866.9z"/>
<path class="st0" d="M515.6,232.8L515.6,232.8h-79.5c-20.8,0-37.9-17-37.9-37.9s17-37.9,37.9-37.9l0,0h79.5
	c20.8,0,37.9,17,37.9,37.9C551.5,215.8,534.5,232.8,515.6,232.8z"/>
</svg>
