<?xml version="1.0" encoding="utf-8"?>
<!-- Generator: Adobe Illustrator 22.0.0, SVG Export Plug-In . SVG Version: 6.00 Build 0)  -->
<svg version="1.1" id="图层_1" xmlns="http://www.w3.org/2000/svg" xmlns:xlink="http://www.w3.org/1999/xlink" x="0px" y="0px"
	 viewBox="0 0 60 54" style="enable-background:new 0 0 60 54;" xml:space="preserve">
<style type="text/css">
	.st0{fill:#FFFFFF;}
</style>
<path class="st0" d="M45.6,54.3H15C8.5,54.3,3.2,49,3.2,42.5V12C3.2,5.5,8.5,0.2,15,0.2h30.6c6.5,0,11.8,5.3,11.8,11.8v30.6
	C57.3,49,52.1,54.3,45.6,54.3z M15,4.1c-4.3,0-7.8,3.5-7.8,7.8v30.6c0,4.3,3.5,7.8,7.8,7.8h30.6c4.3,0,7.8-3.5,7.8-7.8V12
	c0-4.3-3.5-7.8-7.8-7.8C45.6,4.1,15,4.1,15,4.1z"/>
<path class="st0" d="M17.7,45.9c-1.1,0-2-0.9-2-2V10.5c0-1.1,0.9-2,2-2c1.1,0,2,0.9,2,2V44C19.6,45.1,18.7,45.9,17.7,45.9z
	 M30.3,45.9c-1.1,0-2-0.9-2-2V10.5c0-1.1,0.9-2,2-2c1.1,0,2,0.9,2,2V44C32.2,45.1,31.3,45.9,30.3,45.9z"/>
<path class="st0" d="M30.3,46c-1.1,0-2-0.9-2-2s0.9-2,2-2C38.4,42,45,35.4,45,27.2c0-8.2-6.6-14.8-14.8-14.8c-1.1,0-2-0.9-2-2
	s0.9-2,2-2c5,0,9.7,1.9,13.2,5.5S49,22.3,49,27.2c0,5-1.9,9.7-5.5,13.2C39.9,44,35.2,46,30.3,46z M21.9,45.9h-8.4c-1.1,0-2-0.9-2-2
	c0-1.1,0.9-2,2-2h8.4c1.1,0,2,0.9,2,2C23.8,45.1,23,45.9,21.9,45.9z M21.9,12.5h-8.4c-1.1,0-2-0.9-2-2s0.9-2,2-2h8.4
	c1.1,0,2,0.9,2,2S23,12.5,21.9,12.5z"/>
<path class="st0" d="M30.3,46L30.3,46l-4.2,0c-1.1,0-2-0.9-2-2c0-1.1,0.9-2,2-2h0l4.2,0c1.1,0,2,0.9,2,2C32.2,45.1,31.3,46,30.3,46z
	"/>
<path class="st0" d="M30.3,12.5L30.3,12.5l-4.2,0c-1.1,0-2-0.9-2-2c0-1.1,0.9-2,2-2h0l4.2,0c1.1,0,2,0.9,2,2
	C32.2,11.6,31.3,12.5,30.3,12.5z"/>
</svg>
