<?xml version="1.0" encoding="utf-8"?>
<!-- Generator: Adobe Illustrator 22.0.0, SVG Export Plug-In . SVG Version: 6.00 Build 0)  -->
<svg version="1.1" id="图层_1" xmlns="http://www.w3.org/2000/svg" xmlns:xlink="http://www.w3.org/1999/xlink" x="0px" y="0px"
	 viewBox="0 0 1024 1024" style="enable-background:new 0 0 1024 1024;" xml:space="preserve">
<path class="st0" d="M237.7,538.3h341.9v76.8H237.7V538.3z M237.7,730.4h269.5v76.8H237.7V730.4z"/>
<path class="st0" d="M122.2,845.8V346.1c0-38.3,38.6-38.4,77-38.4h115.5c21.2,0,38.6-17.3,38.6-38.4V152.1
	c0-34.1-0.4-68.1,27.4-75.3L661.1,77c42.5,0,77,34.5,77,76.8v345.9h77V153.8C815.1,69,746,0,661.1,0H353.2
	c-40.9,0-80.1,38-146,105.1c-9.2,9.4-18.6,19-28.1,28.4c-9.5,9.5-19.1,18.9-28.5,28.1c-67.2,65.8-105.2,105-105.2,145.7v538.2
	c0,84.8,69,153.7,154,153.7h384.9v-76.8h-385C156.7,922.7,122.2,888.2,122.2,845.8z"/>
<path class="st0" d="M929.6,755l63.8-40.1l-23.7-57.8L896.5,674c-10.4-14.5-23.2-27.2-37.8-38.2l16.7-73.1l-57.7-24.1L778.1,602
	c-18.1-2.9-36.2-2.9-53.8-0.4L685,538.3l-57.8,23.6l15.9,72.9c-14.5,10.5-27.4,23.3-38.4,38l-72.4-17.1l-24.1,57.6l62.6,40.4
	c-2.9,18.1-2.7,36.2-0.1,53.9l-63.4,39.1l23.7,57.8l73.1-15.9c10.5,14.3,23.3,27.1,38,38l-17.2,72.8l57.6,24l40.8-63
	c18,2.7,36.1,2.6,53.7-0.1l40,63.7l57.8-23.7l-16.9-73.2c14.2-10.5,27-23.2,37.9-37.6l73.7,16.7l24.1-57.6l-64-39.9
	C932.2,790.5,932.2,772.6,929.6,755z M830.8,814.8c-18.6,44.3-69.7,65.3-114.1,46.6c-44.4-18.5-65.4-69.4-46.8-114
	c18.6-44.3,69.7-65.1,114.1-46.6C828.5,719.5,849.5,770.4,830.8,814.8z M237.7,346.1h384.9v76.8H237.7V346.1z"/>
</svg>
