<?xml version="1.0" encoding="utf-8"?>
<!-- Generator: Adobe Illustrator 22.0.0, SVG Export Plug-In . SVG Version: 6.00 Build 0)  -->
<svg version="1.1" id="图层_1" xmlns="http://www.w3.org/2000/svg" xmlns:xlink="http://www.w3.org/1999/xlink" x="0px" y="0px"
	 viewBox="0 0 60 54" style="enable-background:new 0 0 60 54;" xml:space="preserve">
<style type="text/css">
	.st0{fill:#FFFFFF;}
</style>
<path class="st0" d="M46.6,41.5c0,1.1,0.9,2,2,2c1.1,0,2-0.9,2-2c0,0,0,0,0,0c0-1.1-0.9-2-2-2C47.5,39.6,46.6,40.5,46.6,41.5
	C46.6,41.5,46.6,41.5,46.6,41.5z"/>
<path class="st0" d="M53.8,36.1c-1.6-1.6-3.7-2.3-5.9-2.2l-3-3c0.4-1.2,0.7-2.4,0.7-3.7c0-2.9-1.1-5.8-3.3-7.9
	C39,16,34,15.1,29.8,17.1c0,0-0.1,0-0.1,0.1c0,0,0,0,0,0c0,0-0.1,0-0.1,0.1c-0.1,0.1-0.3,0.1-0.4,0.3c0,0,0,0,0,0.1
	c0,0,0,0.1-0.1,0.1c-0.3,0.3-0.4,0.7-0.4,1.1c0,0,0,0,0,0c0,0.2,0.1,0.4,0.1,0.6c0,0,0,0,0,0c0,0.1,0.1,0.1,0.1,0.2
	c0.1,0.1,0.1,0.2,0.2,0.3l4.6,4.6l-2.1,2.1L27,21.9c-0.7-0.7-1.8-0.7-2.4,0c-0.1,0.1-0.2,0.3-0.3,0.4c0,0-0.1,0.1-0.1,0.1
	c0,0,0,0,0,0l0,0c-2,4.3-1.1,9.4,2.2,12.7c3.1,3.1,7.7,4,11.6,2.6l2.9,2.9c-0.2,2.2,0.6,4.4,2.2,6c2.9,2.9,7.7,2.9,10.7,0
	c1.5-1.5,2.2-3.4,2.2-5.3C56,39.5,55.3,37.6,53.8,36.1L53.8,36.1z M28.9,32.8c-1.7-1.7-2.5-4.1-2.2-6.4l3.1,3.1
	c0.5,0.5,1.2,0.8,2,0.8c0.7,0,1.4-0.3,2-0.8l3-3c0.5-0.5,0.8-1.2,0.8-2c0-0.7-0.3-1.4-0.8-2l-3-3c2.3-0.2,4.6,0.6,6.3,2.2
	c3,3,3,8,0,11C36.9,35.8,31.9,35.8,28.9,32.8z M51.4,44.3c-1.6,1.6-4.2,1.6-5.8,0c-1-1-1.4-2.4-1.1-3.8c0-0.1,0-0.1,0-0.2
	c0-0.1,0-0.1,0-0.2c0-0.1,0-0.1,0-0.2c0-0.1,0-0.2-0.1-0.3c0-0.1-0.1-0.2-0.1-0.3c-0.1-0.1-0.1-0.2-0.2-0.3c0,0,0-0.1-0.1-0.1
	l-2.8-2.8c0.4-0.3,0.8-0.6,1.1-0.9c0.4-0.4,0.6-0.7,0.9-1.1l2.8,2.8c0,0,0,0,0.1,0c0.1,0.1,0.3,0.2,0.5,0.3c0,0,0,0,0,0
	c0.2,0.1,0.4,0.1,0.6,0.1c0,0,0,0,0,0c0.1,0,0.2,0,0.3,0c1.4-0.3,2.8,0.1,3.7,1.1C53,40.1,53,42.7,51.4,44.3L51.4,44.3z"/>
<path class="st0" d="M30.1,54.1c-8.5,0-16.5-4.1-21.7-11.2c-5.9-8-7-18.1-3-26.9c4-9,12.5-14.8,22.5-15.7C38-0.5,47.3,3.9,52.7,12.1
	c0.5,0.8,0.3,1.9-0.5,2.4c-0.8,0.5-1.9,0.3-2.4-0.5C45.1,6.8,37,3,28.2,3.7C19.4,4.4,12,9.5,8.5,17.3C5,25.1,6,33.8,11.2,40.9
	c5.2,7,13.3,10.7,21.7,9.7c1-0.1,1.8,0.6,1.9,1.5c0.1,0.9-0.6,1.8-1.5,1.9C32.2,54.1,31.2,54.1,30.1,54.1z"/>
</svg>
