<?xml version="1.0" encoding="utf-8"?>
<!-- Generator: Adobe Illustrator 22.0.0, SVG Export Plug-In . SVG Version: 6.00 Build 0)  -->
<svg version="1.1" id="图层_1" xmlns="http://www.w3.org/2000/svg" xmlns:xlink="http://www.w3.org/1999/xlink" x="0px" y="0px"
	 viewBox="0 0 1024 1024" style="enable-background:new 0 0 1024 1024;" xml:space="preserve">
<style type="text/css">
	.st0{fill:#FFFFFF;}
</style>
<path class="st0" d="M776,558c-128.7,0-233,104.3-233,233s104.3,233,233,233s233-104.3,233-233S904.7,558,776,558z M602.4,791
	L602.4,791c-0.1-95.9,77.7-173.7,173.6-173.7c38.2,0.1,75.4,13,105.5,36.5l-252,229.8C611.9,855.9,602.4,823.8,602.4,791z
	 M776,964.7c-38.2-0.1-75.4-13-105.5-36.6l252-229.8c17,26.9,27.2,58.5,27.2,92.6C949.7,886.9,872,964.7,776,964.7L776,964.7z"/>
<path class="st0" d="M583.7,597.6L583.7,597.6c2.8,0.8,5.6,1.7,8.7,1.7c15,8.1,33.7,2.5,41.8-12.6c8.1-15,2.5-33.7-12.6-41.8
	c-4.3-2.3-9.1-3.6-14-3.7l0.4-0.8c-1.1-0.4-2.2-0.7-3.2-1.1l-0.6-0.1c-7.5-2.8-15.1-5.4-22.8-7.7c86.7-49.4,145.9-141.6,145.9-248.6
	C724.8,124.3,594.4-2.3,435.8,0C280.5,2.4,155.3,127.6,153,282.9c0,110.4,62.9,205,154.2,253.1C137.8,595.4,22.1,752.7,15.9,932.2
	h0.5c-0.1,0.8-0.5,1.5-0.5,2.3c0,17.3,14,31.2,31.3,31.3c21.6,0,37.8-14,37.8-31.3c0-0.8-0.4-1.5-0.5-2.3h0.6
	c8-199.1,165-351.8,366.1-351.8c46.6,0,91.1,2.1,132.2,17.7L583.7,597.6z M440.1,506.2c-123.4,0-223.3-100-223.3-223.3
	s100-223.3,223.3-223.3s223.4,100,223.4,223.3S563.5,506.2,440.1,506.2z"/>
</svg>
