<?xml version="1.0" encoding="utf-8"?>
<!-- Generator: Adobe Illustrator 22.0.0, SVG Export Plug-In . SVG Version: 6.00 Build 0)  -->
<svg version="1.1" id="图层_1" xmlns="http://www.w3.org/2000/svg" xmlns:xlink="http://www.w3.org/1999/xlink" x="0px" y="0px"
	 viewBox="0 0 1024 1024" style="enable-background:new 0 0 1024 1024;" xml:space="preserve">
<style type="text/css">
	.st0{fill:#FFFFFF;}
</style>
<path class="st0" d="M194.9,539.5c-19.4,0-35.1,15.7-35.1,35.1s15.7,35.1,35.1,35.1h174c2.5-24,8-47.5,16.4-70H194.9V539.5z
	 M990.2,805.7l-141.6-94c8.5-24.5,12.8-50.3,12.8-76.3c1.6-125.4-98.7-228.4-224.1-230.2c-127.1,0-230.2,103.1-230.2,230.2
	s103.1,230.2,230.2,230.2c70.8-0.4,137.2-34.4,178.7-91.7l137,90.9c5.5,3.7,12,5.6,18.6,5.6c11.6,0.2,22.6-5.6,28.9-15.3
	c10.8-16.3,6.4-38.2-9.9-49C990.5,805.9,990.3,805.8,990.2,805.7z M637.3,795c-88.2,2.2-161.5-67.6-163.7-155.8
	s67.6-161.5,155.8-163.7S791,543,793.2,631.3c0,1.3,0,2.6,0,3.9C794.2,722.3,724.5,793.8,637.3,795z M593.3,362.7H194.9
	c-19.4,0-35.1,15.7-35.1,35.1c0,19.4,15.7,35.1,35.1,35.1H454C492.4,396.2,540.9,371.7,593.3,362.7z M671.7,221
	c0.3-19.1-15-34.7-34-35c-0.1,0-0.1,0-0.2,0H194.9c-19.4,0-35.1,15.7-35.1,35.1s15.7,35.1,35.1,35.1h442.5
	c19.1-0.1,34.5-15.6,34.4-34.7C671.7,221.3,671.7,221.1,671.7,221z"/>
<path class="st0" d="M749.8,892c-1,34.1-28.7,61.3-62.8,61.7H145.6c-34.1-0.4-61.8-27.7-62.6-61.8V134.5
	c-0.4-35,27.6-63.7,62.6-64.3H687c35,0.5,63,29.3,62.6,64.3v249.8c25,11.8,48.1,27.4,68.4,46.2v-296C818.9,61,760,0.8,686.5,0
	c0,0,0,0,0,0H145.6C72.1,0.8,13.2,61,14,134.5c0,0,0,0,0,0v759.6c1.6,71.7,59.8,129.2,131.5,129.9h542.6
	c71.7-0.7,129.9-58.2,131.5-129.9v-53.3c-20.7,19.2-44.3,35.1-69.9,47v4.9V892z"/>
</svg>
