<?xml version="1.0" encoding="utf-8"?>
<!-- Generator: Adobe Illustrator 22.0.0, SVG Export Plug-In . SVG Version: 6.00 Build 0)  -->
<svg version="1.1" id="图层_1" xmlns="http://www.w3.org/2000/svg" xmlns:xlink="http://www.w3.org/1999/xlink" x="0px" y="0px"
	 viewBox="0 0 60 54" style="enable-background:new 0 0 60 54;" xml:space="preserve">
<style type="text/css">
	.st0{fill:#FFFFFF;}
</style>
<path class="st0" d="M25.5,41.8c0,2.6,2,4.6,4.6,4.6s4.6-2,4.6-4.6s-2-4.6-4.6-4.6S25.5,39.2,25.5,41.8z M31.7,41.8
	c0,0.9-0.6,1.5-1.5,1.5s-1.5-0.6-1.5-1.5s0.6-1.5,1.5-1.5S31.7,40.9,31.7,41.8z M34.7,9.3c0.9,0,1.5-0.6,1.5-1.5s-0.6-1.5-1.5-1.5
	h-9.3c-0.9,0-1.5,0.6-1.5,1.5s0.6,1.5,1.5,1.5H34.7z M42.5,29.4V17.1c0-2.6-2-4.6-4.6-4.6H22.4c-2.6,0-4.6,2-4.6,4.6v12.4
	c0,2.6,2,4.6,4.6,4.6h15.5C40.5,34.1,42.5,32.1,42.5,29.4z M20.8,29.4V17.1c0-0.9,0.6-1.5,1.5-1.5h15.5c0.9,0,1.5,0.6,1.5,1.5v12.4
	c0,0.9-0.6,1.5-1.5,1.5H22.4C21.4,31,20.8,30.4,20.8,29.4z"/>
<path class="st0" d="M44.8,0.1H15.4c-2.2,0-3.9,1.7-3.9,3.9v43.3c0,2.2,1.7,3.9,3.9,3.9h14.7c1.4,0,1.7,0.6,1.7,1.5s0.6,1.5,1.5,1.5
	s1.5-0.6,1.5-1.5c0-2.9-1.9-4.6-4.8-4.6H15.4c-0.5,0-0.8-0.3-0.8-0.8V3.9c0-0.5,0.3-0.8,0.8-0.8h29.4c0.5,0,0.8,0.3,0.8,0.8v43.3
	c0,0.5-0.3,0.8-0.8,0.8h-6c-0.9,0-1.5,0.6-1.5,1.5s0.6,1.5,1.5,1.5h6c2.2,0,3.9-1.7,3.9-3.9V3.9C48.7,1.8,47,0.1,44.8,0.1z"/>
</svg>
