<?xml version="1.0" encoding="utf-8"?>
<!-- Generator: Adobe Illustrator 22.0.0, SVG Export Plug-In . SVG Version: 6.00 Build 0)  -->
<svg version="1.1" id="图层_1" xmlns="http://www.w3.org/2000/svg" xmlns:xlink="http://www.w3.org/1999/xlink" x="0px" y="0px"
	 viewBox="0 0 1024 1024" style="enable-background:new 0 0 1024 1024;" xml:space="preserve">
<style type="text/css">
	.st0{fill:#FFFFFF;}
</style>
<path class="st0" d="M806,762.6l86.5,81.7c13.5,12.8,35.6,12.8,49.2,0c13.5-12.8,13.5-33.7,0-46.5L769.5,635.1L597.2,797.8
	c-13.5,12.8-13.5,33.7,0,46.5c13.5,12.8,35.6,12.8,49.2,0l86.5-81.7v224.9c0,20.2,16.4,36.4,36.4,36.4c20.1,0,36.4-16.4,36.4-36.4
	V762.6H806z"/>
<path class="st0" d="M477.6,951c20.2,0,36.4,16.4,36.4,36.4c0,20.2-16.4,36.4-36.4,36.4h-219C157.9,1024,76.1,942.3,76.1,841.5
	V184.6C76.1,83.9,157.9,2.2,258.6,2.2h510.9c100.8,0,182.5,81.7,182.5,182.5v364.9c0,20.2-16.4,36.4-36.4,36.4s-36.4-16.4-36.4-36.4
	V184.6c0-60.4-49-109.4-109.4-109.4H258.7c-60.4,0-109.4,49-109.4,109.4v656.9c0,60.4,49,109.4,109.4,109.4
	C258.7,951,477.6,951,477.6,951z M331.6,221.2h364.9c20.2,0,36.4,16.4,36.4,36.4s-16.4,36.4-36.4,36.4H331.6
	c-20.2,0-36.4-16.4-36.4-36.4S311.4,221.2,331.6,221.2z M331.6,440.1h364.9c20.2,0,36.4,16.4,36.4,36.4c0,20.2-16.4,36.4-36.4,36.4
	H331.6c-20.2,0-36.4-16.4-36.4-36.4S311.4,440.1,331.6,440.1z M331.6,659.1h146c20.2,0,36.4,16.4,36.4,36.4
	c0,20.2-16.4,36.4-36.4,36.4h-146c-20.2,0-36.4-16.4-36.4-36.4C295.1,675.5,311.4,659.1,331.6,659.1z"/>
</svg>
