<?xml version="1.0" encoding="utf-8"?>
<!-- Generator: Adobe Illustrator 22.0.0, SVG Export Plug-In . SVG Version: 6.00 Build 0)  -->
<svg version="1.1" id="图层_1" xmlns="http://www.w3.org/2000/svg" xmlns:xlink="http://www.w3.org/1999/xlink" x="0px" y="0px"
	 viewBox="0 0 1024 1024" style="enable-background:new 0 0 1024 1024;" xml:space="preserve">
<path class="st0" d="M255.5,512c-63.4,0-113.4,51.9-113.4,113.4S194,738.7,255.5,738.7s113.4-51.9,113.4-113.4S318.9,512,255.5,512z
	 M255.5,683c-30.7,0-57.6-25-57.6-57.6s25-57.6,57.6-57.6c30.7,0,57.6,25,57.6,57.6S286.3,683,255.5,683z"/>
<path class="st0" d="M910.6,1H113.4C50,1,0,52.9,0,114.4v797.3C0,975,51.9,1025,113.4,1025h797.3c63.4,0,113.4-51.9,113.4-113.4
	V114.4C1024,51,972.1,1,910.6,1z M966.4,911.6c0,30.7-25,57.6-57.6,57.6H113.4c-30.7,0-57.6-25-57.6-57.6V114.4
	c0-30.7,25-57.6,57.6-57.6h797.3c30.7,0,57.6,25,57.6,57.6v797.3H966.4z"/>
<path class="st0" d="M511,227.7c-63.4,0-113.4,51.9-113.4,113.4S449.6,454.4,511,454.4s113.4-51.9,113.4-113.4
	S574.4,227.7,511,227.7z M511,398.7c-30.7,0-57.6-25-57.6-57.6s25-57.6,57.6-57.6c30.7,0,57.6,25,57.6,57.6S543.7,398.7,511,398.7z
	 M768.5,627.3c-63.4,0-113.4,51.9-113.4,113.4c0,63.4,51.9,113.4,113.4,113.4c63.4,0,113.4-51.9,113.4-113.4
	C881.8,677.3,830,627.3,768.5,627.3z M768.5,796.4c-30.7,0-57.6-25-57.6-57.6c0-30.7,25-57.6,57.6-57.6c30.7,0,57.6,25,57.6,57.6
	C824.2,771.4,799.2,796.4,768.5,796.4z"/>
<path class="st0" d="M511,227.7c7.7,0,19.2,1.9,28.8,1.9v-86.5c0-17.3-11.5-28.8-28.8-28.8c-17.3,0-28.8,11.5-28.8,28.8v88.4
	C491.8,231.5,503.4,227.7,511,227.7z M511,456.3c-7.7,0-19.2-1.9-28.8-1.9v430.3c0,17.3,11.5,28.8,28.8,28.8
	c17.3,0,28.8-11.5,28.8-28.8V452.5C532.2,452.5,520.6,456.3,511,456.3z M768.5,627.3c7.7,0,19.2,1.9,28.8,1.9V143.2
	c0-17.3-11.5-28.8-28.8-28.8c-17.3,0-28.8,11.5-28.8,28.8v486.1C747.3,629.2,758.9,627.3,768.5,627.3z M768.5,854
	c-7.7,0-19.2-1.9-28.8-1.9v30.7c0,17.3,11.5,28.8,28.8,28.8c17.3,0,28.8-11.5,28.8-28.8v-30.7C787.7,852.1,776.2,854,768.5,854z"/>
<path class="st0" d="M255.5,512c7.7,0,19.2,1.9,28.8,1.9V143.2c0-17.3-11.5-28.8-28.8-28.8s-28.8,11.5-28.8,28.8v372.7
	C236.3,515.9,247.8,512,255.5,512z M255.5,740.7c-7.7,0-19.2-1.9-28.8-1.9v146c0,17.3,11.5,28.8,28.8,28.8s28.8-11.5,28.8-28.8
	V736.8C274.7,736.8,263.2,740.7,255.5,740.7z"/>
</svg>
