<?xml version="1.0" encoding="utf-8"?>
<!-- Generator: Adobe Illustrator 22.0.0, SVG Export Plug-In . SVG Version: 6.00 Build 0)  -->
<svg version="1.1" id="图层_1" xmlns="http://www.w3.org/2000/svg" xmlns:xlink="http://www.w3.org/1999/xlink" x="0px" y="0px"
	 viewBox="0 0 60 54" style="enable-background:new 0 0 60 54;" xml:space="preserve">
<style type="text/css">
	.st0{fill:#FFFFFF;}
</style>
<path class="st0" d="M47.2,49.4l0-27.3c0-4.6-1.8-9-5.1-12.3c-3.3-3.3-7.6-5.1-12.2-5.1s-9,1.8-12.3,5.1c-3.3,3.3-5.1,7.7-5.1,12.3
	l0,27.3l-4.6,0l0-27.3c0-3,0.6-5.9,1.7-8.6c1.1-2.6,2.7-5,4.7-7s4.4-3.6,7-4.7C24,0.6,26.9,0,29.8,0c3,0,5.8,0.6,8.5,1.7
	c2.6,1.1,5,2.7,7,4.7c2,2,3.6,4.4,4.7,7c1.2,2.7,1.7,5.6,1.7,8.6v27.3L47.2,49.4z"/>
<path class="st0" d="M56.5,54H3.7c-1.3,0-2.3-1-2.3-2.3c0-1.3,1-2.3,2.2-2.3h52.8c1.4,0,2.4,1,2.4,2.3C58.8,53,57.8,54,56.5,54z
	 M37.2,27.1h-5.9V14.2L22.8,30H29v12.3L37.2,27.1z"/>
</svg>
