<?xml version="1.0" encoding="utf-8"?>
<!-- Generator: Adobe Illustrator 22.0.0, SVG Export Plug-In . SVG Version: 6.00 Build 0)  -->
<svg version="1.1" id="图层_1" xmlns="http://www.w3.org/2000/svg" xmlns:xlink="http://www.w3.org/1999/xlink" x="0px" y="0px"
	 viewBox="0 0 1024 1024" style="enable-background:new 0 0 1024 1024;" xml:space="preserve">
<style type="text/css">
	.st0{fill:#FFFFFF;}
</style>
<path class="st0" d="M438.3,535.8v3.8c-36.4,23-76.5,42.1-118.6,55.5c-13.4,5.7-23,19.1-23,32.5v26.8c0,11.5,9.6,21,21,21
	c11.5,0,21-9.6,21-21l0,0v-21c120.6-45.9,135.9-63.1,139.7-80.4c0-1.9,0-3.8,0-5.7v-19.1c0-5.7-1.9-11.5-5.7-15.3
	c-11.5-11.5-19.1-26.8-23-42.1c-1.9-5.7-3.8-9.6-7.7-11.5c-3.8-3.8-3.8-9.6,0-13.4l0,0c3.8-3.8,5.7-7.7,5.7-13.4v-42.1
	c-1.9-34.4,19.1-49.8,57.4-49.8s57.4,17.2,57.4,51.7v42.1c0,5.7,1.9,9.6,5.7,13.4c3.8,3.8,3.8,9.6,0,13.4l0,0
	c-3.8,3.8-7.7,7.7-7.7,11.5c-3.8,17.2-11.5,30.6-23,42.1c-3.8,3.8-5.7,9.6-5.7,15.3v19.1c0,1.9,0,3.8,0,5.7
	c5.7,15.3,21,34.4,139.7,82.3v21c0,11.5,9.6,21,21,21s21-9.6,21-21v-26.8c0-13.4-9.6-26.8-23-32.5c-42.1-13.4-82.3-32.5-120.6-55.5
	v-5.7c11.5-13.4,21-30.6,24.9-47.8c7.7-7.7,13.4-19.1,15.3-30.6c1.9-11.5-1.9-23-5.7-32.5v-38.3c1.9-49.8-36.4-91.8-86.1-93.8
	c-5.7,0-9.6,0-15.3,1.9c-49.8-5.7-95.7,30.6-101.4,80.4c0,3.8-1.9,7.7-1.9,11.5v34.4c-5.7,9.6-7.7,21-5.7,32.5
	c1.9,11.5,7.7,21,15.3,30.6C417.2,505.2,426.8,522.4,438.3,535.8z M423,212.4c5.7,24.9,26.8,44,53.6,42.1H534
	c24.9,1.9,49.8-17.2,53.6-42.1l19.1-151.2c1.9-15.3-1.9-30.6-11.5-42.1S570.3,0,555,0h-95.7c-15.3,0-30.6,7.7-40.2,19.1
	s-15.3,26.8-13.4,42.1L423,212.4z M449.8,45.9c1.9-1.9,5.7-3.8,7.7-3.8h95.7c3.8,0,5.7,1.9,7.7,5.7c1.9,1.9,3.8,3.8,1.9,7.7
	l-19.1,151.2c0,5.7-5.7,7.7-9.6,7.7h-57.4c-5.7,0-9.6-1.9-9.6-7.7l-21-151.2C445.9,51.7,447.8,47.8,449.8,45.9z"/>
<path class="st0" d="M746.4,170.3h-68.9c-11.5,0-21,9.6-21,21c0,11.5,9.6,21,21,21h68.9c30.6-1.9,55.5,23,57.4,53.6l0,0v459.2h-597
	V266c1.9-30.6,26.8-53.6,57.4-53.6l0,0H333c11.5,0,21-9.6,21-21c0-11.5-9.6-21-21-21l0,0h-68.9c-53.6-1.9-99.5,40.2-99.5,95.7l0,0
	v665.9c1.9,51.7,45.9,91.8,95.7,91.8c1.9,0,3.8,0,3.8,0h480.3c51.7,3.8,95.7-34.4,99.5-86.1c0-1.9,0-3.8,0-3.8V266
	C845.9,210.5,799.9,168.4,746.4,170.3L746.4,170.3z M746.4,979.7H264.1c-28.7,3.8-55.5-19.1-57.4-47.8V930V765.4h597V930
	C801.8,960.6,775.1,983.6,746.4,979.7L746.4,979.7z"/>
<path class="st0" d="M692.8,851.5H530.1c-11.5,0-21,9.6-21,21s9.6,21,21,21h160.7c11.5,0,21-9.6,21-21
	C713.8,861.1,704.3,851.5,692.8,851.5z M403.8,851.5h-84.2c-11.5,0-21,9.6-21,21s9.6,21,21,21h84.2c11.5,0,21-9.6,21-21
	C424.9,861.1,415.3,851.5,403.8,851.5z M505.2,126.3c5.7,0,11.5-1.9,15.3-5.7c3.8-3.8,5.7-9.6,5.7-15.3c0-11.5-9.6-21-23-21
	c-5.7,0-9.6,1.9-13.4,5.7c-3.8,3.8-5.7,9.6-5.7,15.3c0,5.7,1.9,11.5,5.7,15.3C493.8,124.4,499.5,126.3,505.2,126.3z"/>
</svg>
