<?xml version="1.0" encoding="utf-8"?>
<!-- Generator: Adobe Illustrator 22.0.0, SVG Export Plug-In . SVG Version: 6.00 Build 0)  -->
<svg version="1.1" id="图层_1" xmlns="http://www.w3.org/2000/svg" xmlns:xlink="http://www.w3.org/1999/xlink" x="0px" y="0px"
	 viewBox="0 0 100 100" style="enable-background:new 0 0 100 100;" xml:space="preserve">
<style type="text/css">
	.st0{fill:#7D7D7D;}
</style>
<path class="st0" d="M43.4,52.5v0.4c-3.6,2.3-7.5,4.2-11.6,5.4c-1.3,0.5-2.2,1.8-2.2,3.2v2.6c0,1.2,0.9,2.1,2.1,2.1s2.1-0.9,2.1-2.1
	l0,0V62c11.8-4.4,13.2-6.2,13.7-7.8c0-0.2,0-0.4,0-0.6v-1.8c0-0.5-0.2-1.1-0.6-1.5c-1.1-1.2-1.9-2.6-2.2-4.2
	c-0.1-0.5-0.4-0.9-0.8-1.1c-0.4-0.3-0.4-0.9,0-1.3l0,0c0.3-0.4,0.5-0.8,0.5-1.3v-4.2c-0.1-3.3,1.9-4.8,5.7-4.8s5.7,1.6,5.7,5.1v4.2
	c0,0.5,0.2,1,0.5,1.3c0.4,0.3,0.4,0.9,0,1.3l0,0c-0.4,0.3-0.7,0.7-0.8,1.1c-0.4,1.6-1.2,3-2.2,4.2c-0.4,0.4-0.6,0.9-0.6,1.5v1.8
	c0,0.2,0,0.4,0,0.6c0.5,1.5,2,3.4,13.7,8v2.1c0,1.2,0.9,2.1,2.1,2.1s2.1-0.9,2.1-2.1V62c0-1.4-0.9-2.7-2.2-3.2
	c-4.1-1.3-8-3.1-11.7-5.5v-0.5c1.1-1.4,2-2.9,2.5-4.6c0.8-0.8,1.3-1.8,1.5-2.9c0.2-1.1-0.1-2.3-0.6-3.2v-3.8c0.2-4.9-3.6-9-8.5-9.1
	c-0.5,0-1,0-1.5,0.1c-4.9-0.6-9.3,3-9.9,7.9c0,0.4-0.1,0.8-0.1,1.2v3.4c-0.6,1-0.8,2.1-0.6,3.2c0.2,1.1,0.7,2.1,1.5,2.9
	C41.4,49.5,42.3,51.1,43.4,52.5z M42,20.8c0.5,2.5,2.7,4.3,5.2,4.2h5.6c2.5,0.1,4.8-1.7,5.2-4.2L59.9,6c0.2-1.5-0.2-3-1.2-4.2
	c-1-1.1-2.4-1.8-4-1.8h-9.3c-1.5,0-2.9,0.7-3.9,1.8S40,4.5,40.2,6L42,20.8z M44.5,4.6c0.2-0.2,0.5-0.4,0.8-0.4h9.3
	c0.3,0,0.6,0.2,0.8,0.5c0.2,0.2,0.3,0.4,0.2,0.7l-1.8,14.8c0,0.5-0.6,0.7-1,0.7h-5.6c-0.5,0-1-0.2-1-0.7l-2-14.8
	C44.2,5.1,44.3,4.8,44.5,4.6z"/>
<path class="st0" d="M73.5,16.7h-6.8c-1.2,0-2.1,0.9-2.1,2.1s0.9,2.1,2.1,2.1h6.8c3-0.1,5.5,2.2,5.7,5.2l0,0v44.8H20.8V26
	c0.1-3,2.7-5.3,5.7-5.2l0,0h6.8c1.2,0,2.1-0.9,2.1-2.1s-0.9-2.1-2.1-2.1l0,0h-6.8c-5.3-0.1-9.7,4-9.8,9.3l0,0V91
	c0.1,5.1,4.4,9,9.4,8.9c0.1,0,0.3,0,0.4,0h47c5,0.4,9.4-3.4,9.8-8.5c0-0.1,0-0.3,0-0.4V26C83.2,20.7,78.8,16.5,73.5,16.7L73.5,16.7z
	 M73.5,95.8h-47c-2.8,0.3-5.4-1.8-5.7-4.6v-0.1V75h58.3v16.1C78.9,93.9,76.4,96.1,73.5,95.8L73.5,95.8z"/>
<path class="st0" d="M68.3,83.3H52.5c-1.2,0-2.1,0.9-2.1,2.1s0.9,2.1,2.1,2.1h15.7c1.2,0,2.1-0.9,2.1-2.1
	C70.4,84.2,69.4,83.3,68.3,83.3z M40,83.3h-8.3c-1.2,0-2.1,0.9-2.1,2.1s0.9,2.1,2.1,2.1H40c1.2,0,2.1-0.9,2.1-2.1
	C42.1,84.2,41.2,83.3,40,83.3z M50,12.5c0.6,0,1.1-0.2,1.5-0.6c0.4-0.4,0.6-0.9,0.6-1.5c0-1.2-1-2.1-2.2-2c-0.5,0-1,0.2-1.4,0.6
	c-0.4,0.4-0.6,0.9-0.6,1.5s0.2,1.1,0.6,1.5C48.9,12.3,49.4,12.5,50,12.5z"/>
</svg>
