<?xml version="1.0" encoding="utf-8"?>
<!-- Generator: Adobe Illustrator 22.0.0, SVG Export Plug-In . SVG Version: 6.00 Build 0)  -->
<svg version="1.1" id="图层_1" xmlns="http://www.w3.org/2000/svg" xmlns:xlink="http://www.w3.org/1999/xlink" x="0px" y="0px"
	 viewBox="0 0 3262 1024" style="enable-background:new 0 0 3262 1024;" xml:space="preserve">
<style type="text/css">
	.st0{fill:#C5A06B;}
	.st1{fill:#3E3B3C;}
	.st2{font-family:'YouYuan';}
	.st3{font-size:485.8471px;}
</style>
<g>
	<path class="st0" d="M751.1,604.7c-30,82.9-100.1,135.9-178.3,134.4c-67.2-1.3-119.8-52.6-121.3-120.4
		c-1.2-51.1-0.1-102.2-0.4-153.4c-0.2-42.9-24.9-70-63.5-70.5c-38.9-0.4-65.8,27.8-66.4,70.9c-0.5,39.4,0.1,78.9-0.4,118.5
		c-0.4,30.3-15.5,48.3-39,47.6c-22.9-0.7-36.7-17.8-36.9-46.8c-0.3-40.3-0.3-80.8,0-121.1c0.7-109.8,106.1-177.4,204.9-128.8
		c48.4,23.6,77.7,65.1,78.6,121.6c0.8,50.2-0.3,100.5,0.4,150.7c0.7,49.2,24.5,66.1,71.6,52.5c48.8-14,82.6-61.4,87.9-122.8
		C702,379.7,593,242.5,436.5,219.1c-113.1-17-209.2,16.8-284,101.5C66.2,418,55.2,566.3,134.6,675.7
		c80.6,111.1,211.7,154.4,341.9,116c27.5-8,49.5,0.7,57.2,23.1c6.7,19.3-6.4,45.5-32.8,55.2c-14,5.1-48.5,10.8-64.6,10.8
		c-44.9,0-96.9-5.4-123.5-9.7c-48.1-7.8-91.2-26.4-132.4-52.2C87,760.7,31.6,677.3,10,570.2c-1.2-6.4-10-34-1-103.7
		c4.7-36.7,15.4-73.2,30.4-106.5c43.5-97.2,117.2-166.7,218.9-197.5c64.9-19.6,146.8-24.5,204.9-14.2c40.5,7.2,83.3,25.5,118.9,45.6
		c90.8,51.1,145.9,131.7,176.3,230.2C770.2,509.2,756.4,590.4,751.1,604.7z"/>
</g>
<text transform="matrix(1 0 0 1 841.7495 666.5693)" class="st1 st2 st3">金融风控云</text>
</svg>
