<?xml version="1.0" encoding="utf-8"?>
<!-- Generator: Adobe Illustrator 22.0.0, SVG Export Plug-In . SVG Version: 6.00 Build 0)  -->
<svg version="1.1" id="图层_1" xmlns="http://www.w3.org/2000/svg" xmlns:xlink="http://www.w3.org/1999/xlink" x="0px" y="0px"
	 viewBox="0 0 3262 1024" style="enable-background:new 0 0 3262 1024;" xml:space="preserve">
<style type="text/css">
	.st0{fill:#FFFFFF;}
	.st1{fill:#C5A06B;}
	.st2{fill:url(#SVGID_1_);}
	.st3{font-family:'RTWSYueRoudGoDemo-Regular-GBpc-EUC-H';}
	.st4{font-size:444.5327px;}
	.st5{opacity:0.4;fill:#FFFFFF;}
	.st6{font-family:'YouYuan';}
	.st7{font-size:251.5556px;}
</style>
<path class="st0" d="M1605.4,446.3v62.6c0,7.9-6.6,14.5-14.5,14.5h-0.5c-8.3,0-14.5-6.6-14.5-14.5v-58.1l-127.1-0.2
	c-7.9,0.9-15.4-4-16.8-12.3v-0.9c-0.9-7.9,4-15.4,12.3-16.8l27.6-0.9V418l-2.3-256.6H1446c-7.5,0-14.5-6.2-14.5-14.5V146
	c0-7.5,7.1-14.5,14.5-14.5h144.4c20.1-0.9,15.1,29.9,15.1,29.9v254.1 M1502.3,228.8h73.5v-67.4h-73.5V228.8z M1502.3,326.5h73.5
	v-67.8h-73.5V326.5z M1502.3,419.5l73.5,0.4v-63.4h-73.5V419.5z M1643.7,342.4c-7.9,0-14.5-6.6-14.5-14.5v-0.5
	c0-8.3,6.6-14.5,14.5-14.5h74.9l1.4-7.9c2.2-23.3,3.5-49.3,3.5-78.4v-9.7H1657c-8.3,0-14.5-7.1-14.5-14.5v-0.9
	c0-7.9,6.2-14.5,14.5-14.5h18.5l-15-36.6c-3.1-7.9,0.5-16.3,7.9-19.4h0.5c7.9-3.1,15.9,0.5,18.9,7.9l18.5,44.1
	c0.5,1.4,0.9,2.6,0.9,4h66.5c0-1.4,0.5-2.6,0.9-4l18-44.1c3.1-7.5,11.4-11,18.9-7.9c4,1.4,6.6,4.4,8.3,7.9c1.7,3.5,1.7,7.5,0,11.4
	l-15.4,36.5h19.4c7.9,0,14.5,6.6,14.5,14.5v0.9c0,7.5-6.6,14.5-14.5,14.5h-70v9.7c0,31.3-1.7,59.5-4.4,84.6c0,0.9-0.5,1.4-0.5,1.7
	h86.8c8.3,0,14.5,6.2,14.5,14.5v0.5c0,7.9-6.2,14.5-14.5,14.5h-78.4l85,152c4,7.1,1.7,16.3-5.3,19.8l-0.5,0.5
	c-7.1,4-15.9,1.4-19.8-5.7l-78.9-140.1c-1.4,4.8-3.1,9.7-4.4,14.5c-16.3,48-44.5,88.9-80.1,129c-2.6,3.1-5.7,4.8-10.2,5.3
	c-4.4,0-7.9-1.4-11-4.4c-5.7-5.3-6.2-14.1-0.9-20.2c32.6-37.4,58.6-75.3,74-120.2c3.1-9.7,5.7-19.8,8.3-30.4h-69.9L1643.7,342.4
	L1643.7,342.4z"/>
<path class="st0" d="M1981.3,146c9.2-8.3,24.7-1.7,24.7,11v352.3c0,8.3-6.6,14.5-14.5,14.5h-0.9c-7.9,0-14.5-6.2-14.5-14.5V190.9
	c-9.2,8.3-18,17.1-27.3,25.6c-6.2,5.3-15,4.8-20.2-0.5c-3.1-3.5-4.4-6.6-4.4-11c0-4,1.7-7.5,4.8-10.2L1981.3,146z M2303.7,156.9
	c7.9,0,14.5,6.6,14.5,14.5v0.9c0,7.9-6.6,14.5-14.5,14.5h-251.5c-7.9,0-14.5-6.6-14.5-14.5v-0.9c0-7.9,6.6-14.5,14.5-14.5h111v-17.6
	c0-8.3,6.6-14.5,14.5-14.5h0.5c7.9,0,14.5,6.2,14.5,14.5v17.6H2303.7z M2044.7,408.4c0-6.2,1.4-12.3,3.5-18
	c7.9-17.1,23.8-29.1,43.2-29.1h173.1c12.8,0,24.2,5.3,33,14.1c8.8,8.8,14.1,20.7,14.1,33v68.7c0,19.4-11.4,35.6-29.1,43.2
	c-5.3,2.6-11.4,3.5-18,3.5h-173.1c-25.6,0-46.7-20.7-46.7-46.7V408.4L2044.7,408.4z M2293.6,228.8c7.9,0,14.5,6.6,14.5,14.5v0.9
	c0,7.5-6.6,14.5-14.5,14.5h-231.2c-7.9,0-14.5-7.1-14.5-14.5v-0.9c0-7.9,6.6-14.5,14.5-14.5L2293.6,228.8L2293.6,228.8z
	 M2293.6,299.2c7.9,0,14.5,7.1,14.5,14.5v0.9c0,7.9-6.6,14.5-14.5,14.5h-231.2c-7.9,0-14.5-6.6-14.5-14.5v-0.9
	c0-7.5,6.6-14.5,14.5-14.5H2293.6z M2074.6,477.2c0,10.2,6.6,17.1,16.8,17.1h173.1c10.2,0,17.1-7.1,17.1-17.1v-68.7
	c0-9.7-7.1-16.8-17.1-16.8h-173.1c-10.2,0-16.8,7.1-16.8,16.8V477.2z"/>
<g>
	<path class="st1" d="M1026.7,638.3C985.7,751.6,889.9,824.1,783,822c-91.9-1.8-163.7-71.9-165.8-164.5
		c-1.6-69.8-0.2-139.7-0.6-209.6c-0.3-58.6-34-95.7-86.8-96.3c-53.2-0.6-89.9,38-90.8,96.9c-0.7,53.9,0.1,107.8-0.5,161.9
		c-0.5,41.4-21.2,66-53.3,65c-31.3-1-50.1-24.3-50.4-63.9c-0.4-55.1-0.4-110.4,0-165.5c1-150.1,145-242.4,280-176.1
		c66.2,32.2,106.2,89,107.4,166.2c1.1,68.6-0.4,137.3,0.6,206c1,67.2,33.5,90.3,97.8,71.7c66.7-19.2,112.9-83.9,120.2-167.8
		c18.8-215.2-130.2-402.7-344-434.7c-154.6-23.2-285.9,23-388.2,138.7c-117.9,133.1-133,335.8-24.5,485.3
		c110.1,151.8,289.4,211,467.3,158.6c37.6-11,67.6,1,78.2,31.6c9.2,26.4-8.7,62.2-44.8,75.4c-19.2,7-66.3,14.8-88.3,14.8
		c-61.3,0-132.5-7.4-168.8-13.3c-65.7-10.6-124.6-36.1-181-71.3C119,851.5,43.4,737.5,13.8,591.2c-1.7-8.7-13.6-46.5-1.3-141.7
		c6.4-50.1,21-100,41.5-145.5C113.5,171.1,214.2,76.2,353.2,34.1c88.7-26.8,200.7-33.5,280-19.4C688.6,24.5,747,49.6,795.7,77
		c124.1,69.9,199.4,180,240.9,314.6C1052.8,507.8,1033.9,618.8,1026.7,638.3z"/>
</g>
<linearGradient id="SVGID_1_" gradientUnits="userSpaceOnUse" x1="1211.2" y1="442.45" x2="3007.1001" y2="442.45" gradientTransform="matrix(1 0 0 -1 0 1024)">
	<stop  offset="0" style="stop-color:#FFFFFF;stop-opacity:0"/>
	<stop  offset="0.5" style="stop-color:#FFFFFF"/>
	<stop  offset="1" style="stop-color:#FFFFFF;stop-opacity:0"/>
</linearGradient>
<rect x="1211.2" y="571.7" class="st2" width="1795.9" height="19.7"/>
<text transform="matrix(1 0 0 1 2369.1982 486.9873)" class="st0 st3 st4">服</text>
<text transform="matrix(1 0 0 1 1372 879.3682)" class="st5 st6 st7">数据核验服务</text>
</svg>
