<?xml version="1.0" encoding="utf-8"?>
<!-- Generator: Adobe Illustrator 22.0.0, SVG Export Plug-In . SVG Version: 6.00 Build 0)  -->
<svg version="1.1" id="图层_1" xmlns="http://www.w3.org/2000/svg" xmlns:xlink="http://www.w3.org/1999/xlink" x="0px" y="0px"
	 viewBox="0 0 100 100" style="enable-background:new 0 0 100 100;" xml:space="preserve">
<style type="text/css">
	.st0{fill:#7AA0FD;}
</style>
<path class="st0" d="M93.1,84.4H85V46.3c0-1.3-0.6-1.9-1.9-1.9c-1.2,0-1.9,0.6-1.9,1.9v38.1H70V42.5v-1.9c0-1.9,0-3.8-0.6-5.6
	c1.9-1.3,4.4-1.9,6.3-1.9c3.8,0,6.9,1.2,9.4,3.7c2.5,2.5,3.8,5.6,3.8,8.8v11.9c0,1.2,0.6,1.9,1.9,1.9s1.9-0.6,1.9-1.9V45.6
	c0-4.4-1.9-8.8-5-11.9c-1.9-1.9-3.8-3.1-5.6-3.7c1.9-1.9,2.5-3.8,2.5-6.3c0-5-3.8-8.8-8.7-8.8c-5,0-8.8,3.7-8.8,8.8
	c0,2.5,0.6,4.4,2.5,6.3c-0.6,1.2-1.3,1.2-1.9,1.9c-1.9-4.4-5.6-6.9-10-8.8c1.9-1.9,3.1-4.4,3.1-6.9c0-5.6-4.4-10-10-10
	s-9.4,4.4-9.4,10c0,3.1,1.2,5.6,3.1,7.5c-3.8,1.3-7.5,4.4-9.4,8.1c-0.6-0.6-1.3-0.6-1.9-1.3c1.3-1.9,2.5-3.7,2.5-6.3
	c0-5-3.7-8.8-8.7-8.8s-8.8,4.4-8.8,8.8c0,2.5,1.3,5,2.5,6.3c-6.3,2.5-10,8.1-10,15v11.9c0,1.2,0.6,1.9,1.9,1.9s1.9-0.6,1.9-1.9V46.3
	c0-6.9,5.6-12.5,13.1-12.5c2.5,0,4.4,0.6,6.3,1.9c-0.6,1.3-1.3,3.1-1.3,5v43.7H21.9V46.9c0-1.3-0.6-1.9-1.9-1.9s-1.9,0.6-1.9,1.9V85
	H7.5c-1.3,0-1.9,0.6-1.9,1.9c0,1.3,0.6,1.9,1.9,1.9h85c1.3,0,1.9-0.6,1.9-1.9C95,85.6,93.8,84.4,93.1,84.4z M66.3,63.8V85h-4.4V65
	C63.8,65,65,64.4,66.3,63.8z M75,19.4c2.5,0,5,2.5,5,5c0,1.3-0.6,2.5-1.3,3.8c-1.3,1.2-2.5,1.2-3.8,1.2c-1.3,0-2.5-0.6-3.8-1.2
	C70,26.9,70,25.6,70,24.4C70,21.9,72.5,19.4,75,19.4z M50.6,10c3.1,0,6.3,2.5,6.3,6.3s-2.5,6.3-6.3,6.3c-3.8,0-6.3-2.5-6.3-6.3
	S47.5,10,50.6,10z M51.3,25.6c6.3,0,11.9,3.7,13.7,9.4c0.6,1.9,1.3,3.8,1.3,5.6v15.6c0,2.5-1.9,5-4.4,5v-20c0-1.3-0.6-1.9-1.9-1.9
	c-1.3,0-1.9,0.6-1.9,1.9V85H45V41.3c0-1.3-0.6-1.9-1.9-1.9c-1.2,0-1.9,0.6-1.9,1.9v20.6c-3.1-0.6-5-3.1-5-5.6V40.6
	c0-1.9,0.6-3.8,1.2-5.6C40,29.4,45,25.6,51.3,25.6L51.3,25.6z M26.9,19.4c2.5,0,5,2.5,5,5s-2.5,5.6-5,5.6s-5-2.5-5-5.6
	C21.9,21.9,23.8,19.4,26.9,19.4z M36.3,63.8c1.3,0.6,3.1,1.3,5,1.3v19.4h-5V63.8z"/>
<path class="st0" d="M93.1,88.8H7.5c-1.3,0-2.5-1.3-2.5-2.5s1.3-2.5,2.5-2.5h9.4V46.3c0-1.3,1.3-2.5,2.5-2.5c1.3,0,2.5,1.2,2.5,2.5
	v37.5h10V40.6c0-1.9,0-3.8,0.6-5c-1.2-1.3-3.1-1.3-5-1.3C20.6,34.4,15,40,15,46.3v11.9c0,1.3-1.3,2.5-2.5,2.5S10,59.4,10,58.1V46.3
	c0-6.3,3.8-12.5,10-15c-1.3-1.9-2.5-3.8-2.5-6.3c0-5,4.4-9.4,9.4-9.4s9.4,4.4,9.4,9.4c0,1.9-0.6,4.4-1.9,5.6H35
	c1.9-3.1,5-6.3,8.8-7.5c-2.5-1.9-3.1-4.4-3.1-6.9c0-5.6,4.4-10.6,10-10.6s10,4.4,10,10.6c0,2.5-0.6,5-2.5,6.9
	c3.8,1.3,6.3,3.8,8.8,6.9c-0.6-1.2-1.3-3.1-1.3-5c0-2.5,1.3-5,2.5-6.9c1.9-1.9,4.4-2.5,6.9-2.5c5,0,9.4,4.4,9.4,9.4
	c0,1.9-0.6,4.4-1.9,5.6c1.9,0.6,3.8,1.9,5,3.7c3.1,3.1,5,7.5,5,11.9v11.9c0,1.2-1.3,2.5-2.5,2.5s-2.5-1.3-2.5-2.5V46.3
	c0-3.1-1.3-6.3-3.8-8.8c-2.5-2.5-5.6-3.8-8.7-3.8c-1.9,0-3.8,0.6-5.6,1.3c0.6,1.9,0.6,3.1,0.6,5v43.8h10V46.2c0-1.2,1.3-2.5,2.5-2.5
	S85,45,85,46.2v37.5h7.5c1.3,0,2.5,1.3,2.5,2.5C95,87.5,94.4,88.7,93.1,88.8L93.1,88.8z M7.5,85c-0.6,0-1.3,0.6-1.3,1.2
	c0,0.6,0.6,1.3,1.3,1.3h85c0.6,0,1.3-0.6,1.3-1.3c0-0.6-0.6-1.2-1.3-1.2h-8.8V46.3c0-0.6-0.6-1.3-1.2-1.3c-0.6,0-1.3,0.6-1.3,1.3V85
	H68.8V40c0-1.9,0-3.8-0.6-5v-0.6h0.6c1.9-1.3,4.4-1.9,6.9-1.9c3.8,0,6.9,1.2,9.4,3.8c2.5,2.5,3.8,5.6,3.8,9.4v11.9
	c0,0.6,0.6,1.2,1.3,1.2c0.6,0,1.3-0.6,1.3-1.2V45.6c0-4.4-1.9-8.1-5-11.3c-1.3-1.3-3.1-2.5-5-3.1H80l0.6-0.6
	c1.3-1.2,2.5-3.7,2.5-5.6c0-4.4-3.8-8.1-8.1-8.1c-1.9,0-4.4,0.6-5.6,2.5c-1.3,1.9-2.5,3.1-2.5,5.6s0.6,4.4,2.5,5.6l0.6,0.6h-0.6
	l-1.3,1.3l-0.6,0.6v-0.6c-2.5-4.4-6.3-7.5-10-8.8h-1.3l0.6-0.6c1.9-1.9,3.1-4.4,3.1-6.9c0-5-3.8-9.4-8.8-9.4s-9.4,4.4-9.4,9.4
	c0,2.5,1.3,5,3.1,6.9l0.6,0.6l-1.3,0.6c-3.7,1.2-6.9,3.7-8.8,7.5v0.6H35c-0.6-0.6-1.2-0.6-1.9-1.3h-1.2l0.6-0.6
	c1.3-1.3,2.5-3.8,2.5-5.6c0-4.4-3.7-8.1-8.1-8.1s-8.1,3.1-8.1,7.5c0,2.5,0.6,4.4,2.5,6.3l0.6,0.6l-0.6,0.6c-6.2,2.5-10,8.1-10,14.4
	v11.9c0,0.6,0.6,1.2,1.3,1.2s1.3-0.6,1.3-1.2V46.3c0-7.5,6.3-13.1,13.8-13.1c2.5,0,4.4,0.6,6.9,1.9H35v0.6c-1.3,1.3-1.9,3.1-1.9,5
	V85H20.6V46.9c0-0.6-0.6-1.3-1.3-1.3c-0.6,0-0.6,0.6-0.6,1.3v38.8H7.5L7.5,85z M67.5,30c0,0,0,0.6,0.6,0.6L67.5,30
	C67.5,30.6,67.5,30.6,67.5,30z M66.9,85h-5.6V64.4h0.6c1.3,0,3.1-0.6,4.4-1.9l1.3-0.6C67.5,61.9,66.9,85,66.9,85z M62.5,83.8h3.1
	V64.4c-1.3,0.6-1.9,1.3-3.1,1.3V83.8z M58.7,85H44.4V41.2c0-0.6-0.6-1.3-1.3-1.3s-1.3,0.6-1.3,1.3v21.3h-0.6
	c-3.1-0.6-5.6-3.1-5.6-6.3V40.6c0-1.9,0.6-3.8,1.3-5.6c2.5-6.3,8.1-10,14.4-10s11.9,3.8,14.4,9.4c0.6,1.9,1.3,3.8,1.3,5.6v16.3
	c0,3.1-1.9,5-5,5.6l-0.6,0.6V41.3c0-0.6-0.6-1.3-1.3-1.3s-1.3,0.6-1.3,1.3C58.7,41.3,58.7,85,58.7,85z M45.6,83.8h11.9V41.3
	c0-1.3,1.2-2.5,2.5-2.5s2.5,1.2,2.5,2.5v19.4c1.9-0.6,3.1-2.5,3.1-4.4V40.6c0-1.9-0.6-3.8-1.3-5c-1.9-5.6-6.9-9.4-13.1-9.4
	c-5.6,0-11.3,3.1-13.1,8.8c-0.6,1.9-1.2,3.8-1.2,5.6v15.6c0,1.9,1.2,3.8,3.7,4.4V41.3c0-1.3,1.3-2.5,2.5-2.5c1.3,0,2.5,1.2,2.5,2.5
	C45.6,41.3,45.6,83.8,45.6,83.8z M41.9,85h-6.3V62.5l1.2,0.6c1.3,1.2,2.5,1.2,4.4,1.9h0.6C41.9,65,41.9,85,41.9,85z M36.9,83.8h3.8
	V65.6c-1.2,0-2.5-0.6-3.8-1.3V83.8z M75,30.6c-1.3,0-3.1-0.6-3.8-1.9c-1.3-1.3-1.9-2.5-1.9-3.8c0-3.8,2.5-6.3,5.6-6.3
	s5.6,2.5,5.6,5.6c0,1.3-0.6,3.1-1.9,3.8C78.1,30,76.2,30.6,75,30.6L75,30.6z M75,20c-2.5,0-4.4,1.9-4.4,4.4c0,1.3,0.6,2.5,1.3,3.1
	c1.9,1.9,4.4,1.9,6.3,0c0.6-0.6,1.3-1.9,1.3-3.1C79.4,22.5,77.5,20,75,20z M26.9,30.6c-3.1,0-5.6-2.5-5.6-5.6s2.5-6.3,5.6-6.3
	s5.6,2.5,5.6,5.6S30,30.6,26.9,30.6z M26.9,20c-2.5,0-4.4,1.9-4.4,4.4s1.9,4.4,4.4,4.4s4.4-1.9,4.4-4.4S29.4,20,26.9,20z M50.6,23.1
	c-3.8,0-6.9-3.1-6.9-6.9s3.1-6.9,6.9-6.9c3.8,0,6.9,3.1,6.9,6.9S54.4,23.1,50.6,23.1z M50.6,10.6c-3.1,0-5.6,2.5-5.6,5.6
	s2.5,5.6,5.6,5.6s5.6-2.5,5.6-5.6S53.8,10.6,50.6,10.6z"/>
</svg>
