<?xml version="1.0" encoding="utf-8"?>
<!-- Generator: Adobe Illustrator 22.0.0, SVG Export Plug-In . SVG Version: 6.00 Build 0)  -->
<svg version="1.1" id="图层_1" xmlns="http://www.w3.org/2000/svg" xmlns:xlink="http://www.w3.org/1999/xlink" x="0px" y="0px"
	 viewBox="0 0 3262 1024" style="enable-background:new 0 0 3262 1024;" xml:space="preserve">
<style type="text/css">
	.st0{fill:#3E3B3C;}
	.st1{fill:#C5A06B;}
	.st2{font-family:'YouYuan';}
	.st3{font-size:262.3017px;}
	.st4{letter-spacing:18;}
	.st5{fill:url(#SVGID_1_);}
</style>
<path class="st0" d="M1642.8,430.4v83.2c0,10.5-8.8,19.3-19.3,19.3h-0.6c-11.1,0-19.3-8.8-19.3-19.3v-77.3l-169.1-0.2
	c-10.5,1.2-20.5-5.3-22.3-16.4v-1.2c-1.2-10.5,5.3-20.5,16.4-22.3l36.7-1.2v-2.3l-3-341.3h-31.5c-10,0-19.3-8.2-19.3-19.3v-1.2
	c0-10,9.4-19.3,19.3-19.3h192c26.7-1.2,20.1,39.8,20.1,39.8v338 M1505.7,141h97.8V51.4h-97.8V141z M1505.7,271h97.8v-90.2h-97.8V271
	z M1505.7,394.7l97.8,0.5v-84.3h-97.8V394.7z M1693.7,292.1c-10.5,0-19.3-8.8-19.3-19.3v-0.6c0-11.1,8.8-19.3,19.3-19.3h99.6
	l1.8-10.5c2.9-31,4.7-65.6,4.7-104.3v-12.9h-88.5c-11.1,0-19.3-9.4-19.3-19.3v-1.2c0-10.5,8.2-19.3,19.3-19.3h24.6L1716,36.7
	c-4.1-10.5,0.6-21.7,10.5-25.8h0.6c10.5-4.1,21.1,0.6,25.2,10.5l24.6,58.6c0.6,1.8,1.2,3.5,1.2,5.3h88.4c0-1.8,0.6-3.5,1.2-5.3
	l24-58.6c4.1-10,15.2-14.6,25.2-10.5c5.3,1.8,8.8,5.9,11.1,10.5c2.3,4.7,2.3,10,0,15.2l-20.5,48.6h25.8c10.5,0,19.3,8.8,19.3,19.3
	v1.2c0,10-8.8,19.3-19.3,19.3h-93.1v12.9c0,41.6-2.3,79.1-5.9,112.5c0,1.2-0.6,1.8-0.6,2.3h115.4c11.1,0,19.3,8.2,19.3,19.3v0.6
	c0,10.5-8.2,19.3-19.3,19.3h-104.3L1957.9,494c5.3,9.4,2.3,21.7-7,26.4l-0.6,0.6c-9.4,5.3-21.1,1.8-26.4-7.6L1819,327.1
	c-1.8,6.4-4.1,12.9-5.9,19.3c-21.7,63.8-59.2,118.3-106.6,171.6c-3.5,4.1-7.6,6.4-13.5,7c-5.9,0-10.5-1.8-14.6-5.9
	c-7.6-7-8.2-18.7-1.2-26.9c43.3-49.8,77.9-100.2,98.4-159.9c4.1-12.9,7.6-26.4,11.1-40.4h-93V292.1z"/>
<path class="st0" d="M2142.8,30.9c12.3-11.1,32.8-2.3,32.8,14.6v468.6c0,11.1-8.8,19.3-19.3,19.3h-1.2c-10.5,0-19.3-8.2-19.3-19.3
	V90.6c-12.3,11.1-24,22.8-36.3,34c-8.2,7-19.9,6.4-26.9-0.6c-4.1-4.7-5.9-8.8-5.9-14.6c0-5.3,2.3-10,6.4-13.5L2142.8,30.9z
	 M2571.5,45.5c10.5,0,19.3,8.8,19.3,19.3V66c0,10.5-8.8,19.3-19.3,19.3H2237c-10.5,0-19.3-8.8-19.3-19.3v-1.2
	c0-10.5,8.8-19.3,19.3-19.3h147.6V22.1c0-11.1,8.8-19.3,19.3-19.3h0.6c10.5,0,19.3,8.2,19.3,19.3v23.4H2571.5z M2227.1,380
	c0-8.2,1.8-16.4,4.7-24c10.5-22.8,31.6-38.7,57.4-38.7h230.2c17,0,32.2,7,43.9,18.7s18.7,27.5,18.7,43.9v91.4
	c0,25.8-15.2,47.4-38.7,57.4c-7,3.5-15.2,4.7-24,4.7h-230.2c-34,0-62.1-27.5-62.1-62.1V380H2227.1z M2558.1,141
	c10.5,0,19.3,8.8,19.3,19.3v1.2c0,10-8.8,19.3-19.3,19.3h-307.5c-10.5,0-19.3-9.4-19.3-19.3v-1.2c0-10.5,8.8-19.3,19.3-19.3H2558.1z
	 M2558.1,234.7c10.5,0,19.3,9.4,19.3,19.3v1.2c0,10.5-8.8,19.3-19.3,19.3h-307.5c-10.5,0-19.3-8.8-19.3-19.3V254
	c0-10,8.8-19.3,19.3-19.3H2558.1z M2266.9,471.4c0,13.5,8.8,22.8,22.3,22.8h230.2c13.5,0,22.8-9.4,22.8-22.8V380
	c0-12.9-9.4-22.3-22.8-22.3h-230.2c-13.5,0-22.3,9.4-22.3,22.3V471.4z"/>
<path class="st0" d="M2725.4,157.4c0,70.3-2.3,135.3-5.9,198c-2.9,53.3-7.6,102.5-11.7,147c-1.2,10.5-10.5,18.7-21.7,17h-1.2
	c-10.5-0.6-18.2-10.5-17-20.5c4.7-45.1,8.8-94.3,11.7-146.4c4.7-62.7,5.9-126.5,5.9-195.1c0-10,8.8-18.7,19.3-18.7h1.2
	C2716.6,138.7,2725.4,147.4,2725.4,157.4z M2858.9,74.2c10.5,0,19.3,9.4,19.3,19.3v1.2c0,10.5-8.8,19.3-19.3,19.3h-61.5v399.5
	c0,11.1-8.8,19.3-19.3,19.3h-1.2c-10,0-19.3-8.2-19.3-19.3V114.1h-60.3c-11.1,0-19.3-8.8-19.3-19.3v-1.2c0-10,8.2-19.3,19.3-19.3
	h60.3v-54c0-11.1,9.4-19.3,19.3-19.3h1.2c10.5,0,19.3,8.2,19.3,19.3v53.9H2858.9z M2865.9,505.9c0,10.5-8.8,19.3-19.3,19.3h-1.2
	c-10.5,0-19.3-8.8-19.3-19.3V159.2c0-10.5,8.8-19.3,19.3-19.3h1.2c10.5,0,19.3,8.8,19.3,19.3V505.9z M3174.6,57.8
	c10.5,0,19.3,8.2,19.3,19.3v1.2c0,10-8.8,19.3-19.3,19.3h-139.4c-0.6,2.3-1.2,4.7-1.8,6.4l-62.1,124.8h114.2
	c12.3-15.2,84.2-92.4,94.7-109.3c5.9-9.4,17-12.3,25.8-7c5.3,2.9,8.8,6.4,10,12.3c1.8,5.3,1.2,10.5-2.3,14.6
	c-27.5,45.1-120.5,145.7-158,181.4c-36.3,34-74.4,64.4-114.2,89.6c-4.7,3.5-9.4,4.1-14.6,2.9c-5.9-1.2-9.4-4.1-12.3-9.4l-0.6-0.6
	c-5.9-8.8-2.9-20.5,6.4-25.8c37.5-24.6,73.2-52.7,108.4-85.5c7.6-7.6,15.8-15.2,23.4-23.4h-112.5c-14.6,0-24-15.2-17.6-28.1
	l69.7-142.9h-65.6c-11.1,0-19.3-9.4-19.3-19.3v-1.2c0-11.1,8.2-19.3,19.3-19.3h104.9V20.9c0-10.5,8.8-19.3,18.7-19.3h1.2
	c10.5,0,19.3,8.8,19.3,19.3v36.9C3070.3,57.8,3174.6,57.8,3174.6,57.8z M3182.8,306.8c-24,35.7-51,68.5-81.4,98.4l79.1,83.8
	c7.6,7.6,7.6,19.9,0,26.9l-1.2,1.2c-3.5,3.5-8.8,5.9-14.1,5.3c-5.3,0-10-2.3-13.5-5.9l-79.7-84.3c-39.2,34-83.8,63.3-134.1,89.6
	c-4.7,2.9-10.5,2.9-15.2,1.2c-5.3-1.8-8.8-4.7-11.1-10l-0.6-0.6c-4.1-9.4-0.6-20.5,8.8-25.2c49.8-26.4,93.7-56.2,131.8-89.6
	c37.5-34,70.9-71.5,99-113.1c5.9-8.2,17.6-10.5,25.8-5.3c5.3,3.5,8.2,7,9.4,12.9C3186.9,297.4,3185.8,302.1,3182.8,306.8z"/>
<g>
	<path class="st1" d="M1026.7,638.3C985.7,751.6,889.9,824.1,783,822c-91.9-1.8-163.7-71.9-165.8-164.5
		c-1.6-69.8-0.2-139.7-0.6-209.6c-0.3-58.6-34-95.7-86.8-96.3c-53.2-0.6-89.9,38-90.8,96.9c-0.7,53.9,0.1,107.8-0.5,161.9
		c-0.5,41.4-21.2,66-53.3,65c-31.3-1-50.1-24.3-50.4-63.9c-0.4-55.1-0.4-110.4,0-165.5c1-150.1,145-242.4,280-176.1
		c66.2,32.2,106.2,89,107.4,166.2c1.1,68.6-0.4,137.3,0.6,206c1,67.2,33.5,90.3,97.8,71.7c66.7-19.2,112.9-83.9,120.2-167.8
		c18.8-215.2-130.2-402.7-344-434.7c-154.6-23.2-285.9,23-388.2,138.7c-117.9,133.1-133,335.8-24.5,485.3
		c110.1,151.8,289.4,211,467.3,158.6c37.6-11,67.6,1,78.2,31.6c9.2,26.4-8.7,62.2-44.8,75.4c-19.2,7-66.3,14.8-88.3,14.8
		c-61.3,0-132.5-7.4-168.8-13.3c-65.7-10.6-124.6-36.1-181-71.3C119,851.5,43.4,737.5,13.8,591.2c-1.7-8.7-13.6-46.5-1.3-141.7
		c6.4-50.1,21-100,41.5-145.5C113.5,171.1,214.2,76.2,353.2,34.1c88.7-26.8,200.7-33.5,280-19.4C688.6,24.5,747,49.6,795.7,77
		c124.1,69.9,199.4,180,240.9,314.6C1052.8,507.8,1033.9,618.8,1026.7,638.3z"/>
</g>
<text transform="matrix(1 0 0 1 1613.2686 983.2139)" class="st0 st2 st3 st4">贷前反欺诈</text>
<linearGradient id="SVGID_1_" gradientUnits="userSpaceOnUse" x1="1417.2" y1="397.45" x2="3213.1001" y2="397.45" gradientTransform="matrix(1 0 0 -1 0 1024)">
	<stop  offset="0" style="stop-color:#FFFFFF;stop-opacity:0"/>
	<stop  offset="0.5" style="stop-color:#C5A06B"/>
	<stop  offset="1" style="stop-color:#FFFFFF;stop-opacity:0"/>
</linearGradient>
<rect x="1417.2" y="616.7" class="st5" width="1795.9" height="19.7"/>
</svg>
